M48
; DRILL file {KiCad (5.1.9)-1} date 03/24/21 10:42:44
; FORMAT={-:-/ absolute / inch / decimal}
; #@! TF.CreationDate,2021-03-24T10:42:44-04:00
; #@! TF.GenerationSoftware,Kicad,Pcbnew,(5.1.9)-1
; #@! TF.FileFunction,Plated,1,2,PTH
FMAT,2
INCH
T1C0.0118
T2C0.0157
T3C0.0450
%
G90
G05
T1
X4.0Y-2.3
X4.0Y-2.6
X4.0Y-2.9
X4.0Y-3.2
X4.0Y-3.5
X4.0Y-4.1
X4.0Y-4.4
X4.0Y-5.1
X4.0Y-5.4
X4.2Y-5.0
X4.23Y-2.68
X4.24Y-3.01
X4.24Y-3.32
X4.25Y-4.1
X4.25Y-4.55
X4.3Y-2.0
X4.3Y-5.7
X4.33Y-2.62
X4.33Y-2.75
X4.4Y-4.25
X4.44Y-3.6
X4.44Y-4.45
X4.45Y-3.71
X4.47Y-3.85
X4.5Y-4.56
X4.5Y-4.64
X4.5274Y-4.9103
X4.53Y-5.16
X4.5368Y-3.8768
X4.54Y-4.56
X4.54Y-4.64
X4.5448Y-3.939
X4.57Y-3.86
X4.57Y-3.92
X4.57Y-4.63
X4.5759Y-4.5259
X4.5966Y-4.9517
X4.5968Y-4.1163
X4.5982Y-5.1919
X4.6Y-4.85
X4.6Y-5.4
X4.6Y-5.7
X4.61Y-3.92
X4.62Y-2.15
X4.63Y-4.95
X4.65Y-4.6
X4.67Y-5.0
X4.67Y-5.106
X4.6794Y-5.1537
X4.68Y-5.21
X4.6875Y-3.72
X4.7Y-3.0
X4.71Y-3.36
X4.7375Y-3.77
X4.75Y-4.5
X4.75Y-4.85
X4.77Y-2.1848
X4.7714Y-3.2986
X4.8Y-2.8
X4.8253Y-4.8953
X4.8275Y-4.7975
X4.83Y-3.95
X4.836Y-4.006
X4.85Y-4.4
X4.85Y-5.1562
X4.85Y-5.21
X4.86Y-4.17
X4.87Y-3.57
X4.89Y-4.93
X4.9Y-2.0
X4.9Y-3.2
X4.9223Y-4.99
X4.9225Y-3.8525
X4.94Y-3.59
X4.95Y-4.3
X4.98Y-3.98
X4.9896Y-4.9868
X4.99Y-5.17
X5.0Y-2.7
X5.0Y-4.7
X5.02Y-4.0
X5.04Y-4.17
X5.0479Y-4.985
X5.0562Y-5.1938
X5.0689Y-4.9289
X5.07Y-4.86
X5.08Y-5.2748
X5.1Y-3.2
X5.1Y-4.25
X5.1151Y-5.3449
X5.12Y-5.2252
X5.1325Y-2.3675
X5.16Y-3.94
X5.16Y-4.72
X5.1603Y-5.0903
X5.17Y-5.17
X5.19Y-5.07
X5.195Y-4.815
X5.2Y-2.9
X5.2Y-3.61
X5.2Y-3.85
X5.2Y-4.157
X5.2Y-4.35
X5.2Y-4.5
X5.22Y-3.9152
X5.24Y-4.78
X5.24Y-5.22
X5.2452Y-2.59
X5.2463Y-4.18
X5.2463Y-4.63
X5.2463Y-4.67
X5.25Y-3.18
X5.2756Y-4.8797
X5.28Y-5.15
X5.29Y-4.97
X5.3005Y-4.84
X5.3005Y-4.7454
X5.3156Y-4.69
X5.355Y-4.635
X5.36Y-3.6
X5.36Y-5.22
X5.3747Y-4.08
X5.3747Y-4.14
X5.3748Y-4.79
X5.38Y-3.92
X5.38Y-4.46
X5.39Y-3.62
X5.39Y-4.33
X5.39Y-4.4
X5.39Y-4.91
X5.3975Y-4.0575
X5.4Y-4.52
X5.4Y-5.26
X5.41Y-2.59
X5.41Y-4.96
X5.416Y-3.916
X5.4803Y-5.2603
X5.4883Y-3.9034
X5.49Y-3.87
X5.5072Y-3.25
X5.51Y-5.03
X5.51Y-5.08
X5.51Y-5.13
X5.5103Y-5.2303
X5.54Y-5.21
X5.55Y-4.41
X5.5528Y-3.5625
X5.5724Y-4.3876
X5.5748Y-3.39
X5.58Y-3.25
X5.6Y-4.46
X5.61Y-3.2252
X5.6136Y-4.9107
X5.62Y-2.59
X5.62Y-4.09
X5.6316Y-4.46
X5.65Y-3.45
X5.6712Y-4.01
X5.68Y-2.57
X5.7Y-2.0
X5.7Y-3.2
X5.7Y-5.2
X5.7Y-5.5
X5.7147Y-3.7216
X5.7208Y-4.06
X5.74Y-2.83
X5.74Y-3.04
X5.75Y-3.76
X5.77Y-2.8
X5.7709Y-2.9709
X5.7748Y-3.5748
X5.8Y-3.5
X5.8Y-3.92
X5.8Y-4.9
X5.8Y-5.7
X5.82Y-2.57
X5.85Y-3.35
X5.855Y-3.655
X5.86Y-3.95
X5.8631Y-2.7831
X5.8852Y-2.69
X5.895Y-4.035
X5.9Y-3.05
X5.95Y-2.9
X5.96Y-2.57
X6.0Y-2.0
X6.01Y-4.5148
X6.03Y-3.445
X6.04Y-3.65
X6.07Y-4.21
X6.0725Y-2.7025
X6.09Y-3.39
X6.09Y-3.6
X6.1Y-2.57
X6.1Y-4.7
X6.1Y-5.7
X6.1125Y-2.6625
X6.15Y-2.75
X6.15Y-4.1
X6.2Y-3.1
X6.24Y-2.57
X6.25Y-3.3
X6.25Y-3.55
X6.2879Y-4.6621
X6.3Y-3.0
X6.3Y-3.73
X6.3Y-4.25
X6.31Y-3.79
X6.36Y-3.79
X6.3679Y-4.7421
X6.4Y-2.9
X6.4Y-3.1
X6.4Y-5.0
X6.4Y-5.7
X6.415Y-2.37
X6.47Y-3.32
X6.52Y-2.37
X6.55Y-2.75
X6.5682Y-3.0082
X6.57Y-2.37
X6.57Y-3.71
X6.6Y-2.0
X6.6Y-4.25
X6.65Y-2.55
X6.65Y-2.78
X6.675Y-3.67
X6.7Y-5.3
X6.7Y-5.7
X6.72Y-3.16
X6.75Y-2.795
X6.75Y-3.9
X6.795Y-3.08
X6.9Y-2.3
X6.9Y-2.65
X6.9Y-3.15
X6.95Y-3.5
T2
X4.135Y-4.5882
X5.13Y-4.155
X5.15Y-3.375
X5.57Y-4.23
X5.62Y-4.15
X5.735Y-3.61
X6.265Y-2.0825
X6.32Y-1.91
X6.45Y-1.91
T3
X3.99Y-3.64
X3.99Y-3.74
X3.99Y-3.84
X3.99Y-3.94
X3.99Y-4.515
X3.99Y-4.615
X3.99Y-4.715
X3.99Y-4.815
X4.48Y-1.98
X4.58Y-1.98
X4.68Y-1.98
X4.73Y-5.7
X4.78Y-1.98
X4.83Y-5.7
X4.93Y-5.7
X5.03Y-1.98
X5.03Y-5.7
X5.13Y-1.98
X5.13Y-5.7
X5.23Y-1.98
X5.23Y-5.7
X5.33Y-1.98
X5.33Y-5.7
X5.43Y-1.98
X5.43Y-5.7
X5.53Y-1.98
X5.53Y-5.7
X5.63Y-5.7
X5.83Y-3.16
X5.83Y-3.26
X5.93Y-3.16
X5.93Y-3.26
X6.03Y-3.16
X6.03Y-3.26
X6.92Y-2.43
X6.92Y-2.53
X6.92Y-3.78
X6.92Y-3.88
X6.92Y-4.04
X6.92Y-4.14
X6.92Y-4.31
X6.92Y-4.41
X6.92Y-4.51
X6.92Y-4.61
X6.92Y-4.71
X6.92Y-4.81
X6.92Y-4.91
X6.92Y-5.01
X6.92Y-5.11
X6.92Y-5.21
X6.92Y-5.31
T0
M30
