%TF.GenerationSoftware,KiCad,Pcbnew,(5.1.9)-1*%
%TF.CreationDate,2021-03-24T10:42:52-04:00*%
%TF.ProjectId,dev_board,6465765f-626f-4617-9264-2e6b69636164,rev?*%
%TF.SameCoordinates,Original*%
%TF.FileFunction,Paste,Top*%
%TF.FilePolarity,Positive*%
%FSLAX46Y46*%
G04 Gerber Fmt 4.6, Leading zero omitted, Abs format (unit mm)*
G04 Created by KiCad (PCBNEW (5.1.9)-1) date 2021-03-24 10:42:52*
%MOMM*%
%LPD*%
G01*
G04 APERTURE LIST*
%ADD10C,0.100000*%
%ADD11C,0.152400*%
%ADD12R,1.250000X1.000000*%
%ADD13R,1.000000X0.500000*%
%ADD14R,0.780000X0.720000*%
%ADD15R,1.080000X1.050000*%
%ADD16R,1.200000X1.050000*%
%ADD17R,2.390000X1.050000*%
%ADD18R,0.550000X2.910000*%
%ADD19R,1.000000X1.250000*%
%ADD20R,2.997200X1.219200*%
%ADD21R,0.500000X0.400000*%
%ADD22R,1.200000X1.200000*%
%ADD23O,3.048000X2.032000*%
%ADD24O,2.032000X3.048000*%
%ADD25R,0.275000X0.250000*%
%ADD26R,4.320000X2.030000*%
%ADD27R,2.030000X4.320000*%
%ADD28R,1.270000X1.270000*%
%ADD29R,0.500000X1.005599*%
%ADD30R,0.350000X0.580000*%
%ADD31R,0.580000X0.350000*%
%ADD32R,1.092200X0.609600*%
%ADD33R,0.900000X0.800000*%
%ADD34R,0.838200X1.295400*%
%ADD35R,0.500000X0.500000*%
%ADD36R,0.600000X0.500000*%
%ADD37R,1.380000X0.450000*%
%ADD38R,2.100000X1.475000*%
%ADD39R,1.900000X2.375000*%
%ADD40R,1.900000X1.175000*%
%ADD41R,1.000000X0.250000*%
%ADD42R,0.250000X1.000000*%
%ADD43R,1.550000X0.600000*%
%ADD44R,1.300000X1.500000*%
G04 APERTURE END LIST*
D10*
%TO.C,D2*%
G36*
X163114000Y-87084000D02*
G01*
X163114000Y-88684000D01*
X162014000Y-88684000D01*
X162014000Y-88084000D01*
X161764000Y-88084000D01*
X161764000Y-87684000D01*
X162014000Y-87684000D01*
X162014000Y-87084000D01*
X163114000Y-87084000D01*
G37*
D11*
%TO.C,U5*%
X135767900Y-127233200D02*
X135767900Y-127842800D01*
X135767900Y-127842800D02*
X136860100Y-127842800D01*
X136860100Y-127842800D02*
X136860100Y-127233200D01*
X136860100Y-127233200D02*
X135767900Y-127233200D01*
X135767900Y-128483200D02*
X135767900Y-129092800D01*
X135767900Y-129092800D02*
X136860100Y-129092800D01*
X136860100Y-129092800D02*
X136860100Y-128483200D01*
X136860100Y-128483200D02*
X135767900Y-128483200D01*
X135767900Y-129733200D02*
X135767900Y-130342800D01*
X135767900Y-130342800D02*
X136860100Y-130342800D01*
X136860100Y-130342800D02*
X136860100Y-129733200D01*
X136860100Y-129733200D02*
X135767900Y-129733200D01*
X135767900Y-130983200D02*
X135767900Y-131592800D01*
X135767900Y-131592800D02*
X136860100Y-131592800D01*
X136860100Y-131592800D02*
X136860100Y-130983200D01*
X136860100Y-130983200D02*
X135767900Y-130983200D01*
X137967900Y-130983200D02*
X137967900Y-131592800D01*
X137967900Y-131592800D02*
X139060100Y-131592800D01*
X139060100Y-131592800D02*
X139060100Y-130983200D01*
X139060100Y-130983200D02*
X137967900Y-130983200D01*
X137967900Y-129733200D02*
X137967900Y-130342800D01*
X137967900Y-130342800D02*
X139060100Y-130342800D01*
X139060100Y-130342800D02*
X139060100Y-129733200D01*
X139060100Y-129733200D02*
X137967900Y-129733200D01*
X137967900Y-128483200D02*
X137967900Y-129092800D01*
X137967900Y-129092800D02*
X139060100Y-129092800D01*
X139060100Y-129092800D02*
X139060100Y-128483200D01*
X139060100Y-128483200D02*
X137967900Y-128483200D01*
X137967900Y-127233200D02*
X137967900Y-127842800D01*
X137967900Y-127842800D02*
X139060100Y-127842800D01*
X139060100Y-127842800D02*
X139060100Y-127233200D01*
X139060100Y-127233200D02*
X137967900Y-127233200D01*
%TD*%
D12*
%TO.C,C8*%
X158623000Y-96885000D03*
X158623000Y-94885000D03*
%TD*%
D13*
%TO.C,J12*%
X157760000Y-58414000D03*
X157760000Y-57314000D03*
X157760000Y-56214000D03*
X157760000Y-55114000D03*
X157760000Y-54014000D03*
X157760000Y-52914000D03*
X157760000Y-51814000D03*
X157760000Y-50714000D03*
D14*
X160440000Y-60174000D03*
D15*
X161710000Y-60189000D03*
D16*
X164320000Y-60189000D03*
X163750000Y-49539000D03*
D17*
X160565000Y-49539000D03*
D18*
X164995000Y-56850000D03*
X164995000Y-52660000D03*
%TD*%
D19*
%TO.C,C1*%
X117332000Y-127127000D03*
X115332000Y-127127000D03*
%TD*%
D12*
%TO.C,C2*%
X171196000Y-78216000D03*
X171196000Y-76216000D03*
%TD*%
%TO.C,C3*%
X112014000Y-129048000D03*
X112014000Y-131048000D03*
%TD*%
%TO.C,C4*%
X113919000Y-129048000D03*
X113919000Y-131048000D03*
%TD*%
D19*
%TO.C,C5*%
X170958000Y-94234000D03*
X172958000Y-94234000D03*
%TD*%
%TO.C,C6*%
X154702000Y-92837000D03*
X156702000Y-92837000D03*
%TD*%
D12*
%TO.C,C7*%
X156845000Y-96885000D03*
X156845000Y-94885000D03*
%TD*%
D19*
%TO.C,C9*%
X125492000Y-123444000D03*
X127492000Y-123444000D03*
%TD*%
%TO.C,C10*%
X125492000Y-125222000D03*
X127492000Y-125222000D03*
%TD*%
D12*
%TO.C,C11*%
X134112000Y-129524000D03*
X134112000Y-127524000D03*
%TD*%
D19*
%TO.C,C12*%
X114078000Y-91440000D03*
X116078000Y-91440000D03*
%TD*%
D12*
%TO.C,C13*%
X120396000Y-92488000D03*
X120396000Y-94488000D03*
%TD*%
%TO.C,C14*%
X125476000Y-92370400D03*
X125476000Y-94370400D03*
%TD*%
D19*
%TO.C,C15*%
X139446000Y-105934000D03*
X141446000Y-105934000D03*
%TD*%
D20*
%TO.C,C16*%
X115354100Y-68072000D03*
X109943900Y-68072000D03*
%TD*%
D12*
%TO.C,C17*%
X144272000Y-89678000D03*
X144272000Y-91678000D03*
%TD*%
%TO.C,C18*%
X126492000Y-99552000D03*
X126492000Y-97552000D03*
%TD*%
%TO.C,C19*%
X121412000Y-102346000D03*
X121412000Y-100346000D03*
%TD*%
D19*
%TO.C,C20*%
X132302000Y-104140000D03*
X130302000Y-104140000D03*
%TD*%
%TO.C,C21*%
X141462000Y-104140000D03*
X139462000Y-104140000D03*
%TD*%
%TO.C,C22*%
X128794000Y-87122000D03*
X130794000Y-87122000D03*
%TD*%
D21*
%TO.C,D2*%
X162001200Y-87884000D03*
X163614000Y-88534000D03*
X163614000Y-87234000D03*
%TD*%
D22*
%TO.C,D3*%
X158496000Y-99060000D03*
X160696000Y-99060000D03*
%TD*%
%TO.C,D4*%
X170688000Y-60536000D03*
X170688000Y-58336000D03*
%TD*%
%TO.C,D5*%
X115484000Y-76581000D03*
X113284000Y-76581000D03*
%TD*%
%TO.C,D6*%
X115400000Y-84328000D03*
X113200000Y-84328000D03*
%TD*%
D23*
%TO.C,J2*%
X175768000Y-98552000D03*
X175768000Y-96012000D03*
%TD*%
%TO.C,J3*%
X175768000Y-102616000D03*
X175768000Y-105156000D03*
%TD*%
D24*
%TO.C,J4*%
X127762000Y-50292000D03*
X130302000Y-50292000D03*
X132842000Y-50292000D03*
X135382000Y-50292000D03*
X137922000Y-50292000D03*
X140462000Y-50292000D03*
%TD*%
%TO.C,J5*%
X120142000Y-144780000D03*
X122682000Y-144780000D03*
X125222000Y-144780000D03*
X127762000Y-144780000D03*
X130302000Y-144780000D03*
X132842000Y-144780000D03*
X135382000Y-144780000D03*
X137922000Y-144780000D03*
X140462000Y-144780000D03*
X143002000Y-144780000D03*
%TD*%
%TO.C,J7*%
X121412000Y-50292000D03*
X118872000Y-50292000D03*
X116332000Y-50292000D03*
X113792000Y-50292000D03*
%TD*%
D23*
%TO.C,J8*%
X101346000Y-92456000D03*
X101346000Y-94996000D03*
X101346000Y-97536000D03*
X101346000Y-100076000D03*
%TD*%
%TO.C,J9*%
X101346000Y-114681000D03*
X101346000Y-117221000D03*
X101346000Y-119761000D03*
X101346000Y-122301000D03*
%TD*%
%TO.C,J10*%
X175768000Y-109474000D03*
X175768000Y-112014000D03*
X175768000Y-114554000D03*
X175768000Y-117094000D03*
X175768000Y-119634000D03*
X175768000Y-122174000D03*
X175768000Y-124714000D03*
X175768000Y-127254000D03*
X175768000Y-129794000D03*
X175768000Y-132334000D03*
X175768000Y-134874000D03*
%TD*%
%TO.C,J11*%
X175768000Y-64262000D03*
X175768000Y-61722000D03*
%TD*%
%TO.C,R1*%
G36*
G01*
X170413500Y-71806750D02*
X170413500Y-72719250D01*
G75*
G02*
X170169750Y-72963000I-243750J0D01*
G01*
X169682250Y-72963000D01*
G75*
G02*
X169438500Y-72719250I0J243750D01*
G01*
X169438500Y-71806750D01*
G75*
G02*
X169682250Y-71563000I243750J0D01*
G01*
X170169750Y-71563000D01*
G75*
G02*
X170413500Y-71806750I0J-243750D01*
G01*
G37*
G36*
G01*
X168538500Y-71806750D02*
X168538500Y-72719250D01*
G75*
G02*
X168294750Y-72963000I-243750J0D01*
G01*
X167807250Y-72963000D01*
G75*
G02*
X167563500Y-72719250I0J243750D01*
G01*
X167563500Y-71806750D01*
G75*
G02*
X167807250Y-71563000I243750J0D01*
G01*
X168294750Y-71563000D01*
G75*
G02*
X168538500Y-71806750I0J-243750D01*
G01*
G37*
%TD*%
%TO.C,R2*%
G36*
G01*
X170413500Y-73711750D02*
X170413500Y-74624250D01*
G75*
G02*
X170169750Y-74868000I-243750J0D01*
G01*
X169682250Y-74868000D01*
G75*
G02*
X169438500Y-74624250I0J243750D01*
G01*
X169438500Y-73711750D01*
G75*
G02*
X169682250Y-73468000I243750J0D01*
G01*
X170169750Y-73468000D01*
G75*
G02*
X170413500Y-73711750I0J-243750D01*
G01*
G37*
G36*
G01*
X168538500Y-73711750D02*
X168538500Y-74624250D01*
G75*
G02*
X168294750Y-74868000I-243750J0D01*
G01*
X167807250Y-74868000D01*
G75*
G02*
X167563500Y-74624250I0J243750D01*
G01*
X167563500Y-73711750D01*
G75*
G02*
X167807250Y-73468000I243750J0D01*
G01*
X168294750Y-73468000D01*
G75*
G02*
X168538500Y-73711750I0J-243750D01*
G01*
G37*
%TD*%
%TO.C,R3*%
G36*
G01*
X166215000Y-79577250D02*
X166215000Y-78664750D01*
G75*
G02*
X166458750Y-78421000I243750J0D01*
G01*
X166946250Y-78421000D01*
G75*
G02*
X167190000Y-78664750I0J-243750D01*
G01*
X167190000Y-79577250D01*
G75*
G02*
X166946250Y-79821000I-243750J0D01*
G01*
X166458750Y-79821000D01*
G75*
G02*
X166215000Y-79577250I0J243750D01*
G01*
G37*
G36*
G01*
X168090000Y-79577250D02*
X168090000Y-78664750D01*
G75*
G02*
X168333750Y-78421000I243750J0D01*
G01*
X168821250Y-78421000D01*
G75*
G02*
X169065000Y-78664750I0J-243750D01*
G01*
X169065000Y-79577250D01*
G75*
G02*
X168821250Y-79821000I-243750J0D01*
G01*
X168333750Y-79821000D01*
G75*
G02*
X168090000Y-79577250I0J243750D01*
G01*
G37*
%TD*%
%TO.C,R4*%
G36*
G01*
X163270250Y-99547500D02*
X162357750Y-99547500D01*
G75*
G02*
X162114000Y-99303750I0J243750D01*
G01*
X162114000Y-98816250D01*
G75*
G02*
X162357750Y-98572500I243750J0D01*
G01*
X163270250Y-98572500D01*
G75*
G02*
X163514000Y-98816250I0J-243750D01*
G01*
X163514000Y-99303750D01*
G75*
G02*
X163270250Y-99547500I-243750J0D01*
G01*
G37*
G36*
G01*
X163270250Y-97672500D02*
X162357750Y-97672500D01*
G75*
G02*
X162114000Y-97428750I0J243750D01*
G01*
X162114000Y-96941250D01*
G75*
G02*
X162357750Y-96697500I243750J0D01*
G01*
X163270250Y-96697500D01*
G75*
G02*
X163514000Y-96941250I0J-243750D01*
G01*
X163514000Y-97428750D01*
G75*
G02*
X163270250Y-97672500I-243750J0D01*
G01*
G37*
%TD*%
%TO.C,R5*%
G36*
G01*
X168072750Y-57835500D02*
X168985250Y-57835500D01*
G75*
G02*
X169229000Y-58079250I0J-243750D01*
G01*
X169229000Y-58566750D01*
G75*
G02*
X168985250Y-58810500I-243750J0D01*
G01*
X168072750Y-58810500D01*
G75*
G02*
X167829000Y-58566750I0J243750D01*
G01*
X167829000Y-58079250D01*
G75*
G02*
X168072750Y-57835500I243750J0D01*
G01*
G37*
G36*
G01*
X168072750Y-59710500D02*
X168985250Y-59710500D01*
G75*
G02*
X169229000Y-59954250I0J-243750D01*
G01*
X169229000Y-60441750D01*
G75*
G02*
X168985250Y-60685500I-243750J0D01*
G01*
X168072750Y-60685500D01*
G75*
G02*
X167829000Y-60441750I0J243750D01*
G01*
X167829000Y-59954250D01*
G75*
G02*
X168072750Y-59710500I243750J0D01*
G01*
G37*
%TD*%
%TO.C,R6*%
G36*
G01*
X158952250Y-64592500D02*
X158039750Y-64592500D01*
G75*
G02*
X157796000Y-64348750I0J243750D01*
G01*
X157796000Y-63861250D01*
G75*
G02*
X158039750Y-63617500I243750J0D01*
G01*
X158952250Y-63617500D01*
G75*
G02*
X159196000Y-63861250I0J-243750D01*
G01*
X159196000Y-64348750D01*
G75*
G02*
X158952250Y-64592500I-243750J0D01*
G01*
G37*
G36*
G01*
X158952250Y-62717500D02*
X158039750Y-62717500D01*
G75*
G02*
X157796000Y-62473750I0J243750D01*
G01*
X157796000Y-61986250D01*
G75*
G02*
X158039750Y-61742500I243750J0D01*
G01*
X158952250Y-61742500D01*
G75*
G02*
X159196000Y-61986250I0J-243750D01*
G01*
X159196000Y-62473750D01*
G75*
G02*
X158952250Y-62717500I-243750J0D01*
G01*
G37*
%TD*%
%TO.C,R7*%
G36*
G01*
X155396250Y-64592500D02*
X154483750Y-64592500D01*
G75*
G02*
X154240000Y-64348750I0J243750D01*
G01*
X154240000Y-63861250D01*
G75*
G02*
X154483750Y-63617500I243750J0D01*
G01*
X155396250Y-63617500D01*
G75*
G02*
X155640000Y-63861250I0J-243750D01*
G01*
X155640000Y-64348750D01*
G75*
G02*
X155396250Y-64592500I-243750J0D01*
G01*
G37*
G36*
G01*
X155396250Y-62717500D02*
X154483750Y-62717500D01*
G75*
G02*
X154240000Y-62473750I0J243750D01*
G01*
X154240000Y-61986250D01*
G75*
G02*
X154483750Y-61742500I243750J0D01*
G01*
X155396250Y-61742500D01*
G75*
G02*
X155640000Y-61986250I0J-243750D01*
G01*
X155640000Y-62473750D01*
G75*
G02*
X155396250Y-62717500I-243750J0D01*
G01*
G37*
%TD*%
%TO.C,R8*%
G36*
G01*
X151840250Y-64592500D02*
X150927750Y-64592500D01*
G75*
G02*
X150684000Y-64348750I0J243750D01*
G01*
X150684000Y-63861250D01*
G75*
G02*
X150927750Y-63617500I243750J0D01*
G01*
X151840250Y-63617500D01*
G75*
G02*
X152084000Y-63861250I0J-243750D01*
G01*
X152084000Y-64348750D01*
G75*
G02*
X151840250Y-64592500I-243750J0D01*
G01*
G37*
G36*
G01*
X151840250Y-62717500D02*
X150927750Y-62717500D01*
G75*
G02*
X150684000Y-62473750I0J243750D01*
G01*
X150684000Y-61986250D01*
G75*
G02*
X150927750Y-61742500I243750J0D01*
G01*
X151840250Y-61742500D01*
G75*
G02*
X152084000Y-61986250I0J-243750D01*
G01*
X152084000Y-62473750D01*
G75*
G02*
X151840250Y-62717500I-243750J0D01*
G01*
G37*
%TD*%
%TO.C,R9*%
G36*
G01*
X148284250Y-64592500D02*
X147371750Y-64592500D01*
G75*
G02*
X147128000Y-64348750I0J243750D01*
G01*
X147128000Y-63861250D01*
G75*
G02*
X147371750Y-63617500I243750J0D01*
G01*
X148284250Y-63617500D01*
G75*
G02*
X148528000Y-63861250I0J-243750D01*
G01*
X148528000Y-64348750D01*
G75*
G02*
X148284250Y-64592500I-243750J0D01*
G01*
G37*
G36*
G01*
X148284250Y-62717500D02*
X147371750Y-62717500D01*
G75*
G02*
X147128000Y-62473750I0J243750D01*
G01*
X147128000Y-61986250D01*
G75*
G02*
X147371750Y-61742500I243750J0D01*
G01*
X148284250Y-61742500D01*
G75*
G02*
X148528000Y-61986250I0J-243750D01*
G01*
X148528000Y-62473750D01*
G75*
G02*
X148284250Y-62717500I-243750J0D01*
G01*
G37*
%TD*%
%TO.C,R10*%
G36*
G01*
X144728250Y-64592500D02*
X143815750Y-64592500D01*
G75*
G02*
X143572000Y-64348750I0J243750D01*
G01*
X143572000Y-63861250D01*
G75*
G02*
X143815750Y-63617500I243750J0D01*
G01*
X144728250Y-63617500D01*
G75*
G02*
X144972000Y-63861250I0J-243750D01*
G01*
X144972000Y-64348750D01*
G75*
G02*
X144728250Y-64592500I-243750J0D01*
G01*
G37*
G36*
G01*
X144728250Y-62717500D02*
X143815750Y-62717500D01*
G75*
G02*
X143572000Y-62473750I0J243750D01*
G01*
X143572000Y-61986250D01*
G75*
G02*
X143815750Y-61742500I243750J0D01*
G01*
X144728250Y-61742500D01*
G75*
G02*
X144972000Y-61986250I0J-243750D01*
G01*
X144972000Y-62473750D01*
G75*
G02*
X144728250Y-62717500I-243750J0D01*
G01*
G37*
%TD*%
%TO.C,R11*%
G36*
G01*
X162254250Y-64592500D02*
X161341750Y-64592500D01*
G75*
G02*
X161098000Y-64348750I0J243750D01*
G01*
X161098000Y-63861250D01*
G75*
G02*
X161341750Y-63617500I243750J0D01*
G01*
X162254250Y-63617500D01*
G75*
G02*
X162498000Y-63861250I0J-243750D01*
G01*
X162498000Y-64348750D01*
G75*
G02*
X162254250Y-64592500I-243750J0D01*
G01*
G37*
G36*
G01*
X162254250Y-62717500D02*
X161341750Y-62717500D01*
G75*
G02*
X161098000Y-62473750I0J243750D01*
G01*
X161098000Y-61986250D01*
G75*
G02*
X161341750Y-61742500I243750J0D01*
G01*
X162254250Y-61742500D01*
G75*
G02*
X162498000Y-61986250I0J-243750D01*
G01*
X162498000Y-62473750D01*
G75*
G02*
X162254250Y-62717500I-243750J0D01*
G01*
G37*
%TD*%
%TO.C,R12*%
G36*
G01*
X111407000Y-76124750D02*
X111407000Y-77037250D01*
G75*
G02*
X111163250Y-77281000I-243750J0D01*
G01*
X110675750Y-77281000D01*
G75*
G02*
X110432000Y-77037250I0J243750D01*
G01*
X110432000Y-76124750D01*
G75*
G02*
X110675750Y-75881000I243750J0D01*
G01*
X111163250Y-75881000D01*
G75*
G02*
X111407000Y-76124750I0J-243750D01*
G01*
G37*
G36*
G01*
X109532000Y-76124750D02*
X109532000Y-77037250D01*
G75*
G02*
X109288250Y-77281000I-243750J0D01*
G01*
X108800750Y-77281000D01*
G75*
G02*
X108557000Y-77037250I0J243750D01*
G01*
X108557000Y-76124750D01*
G75*
G02*
X108800750Y-75881000I243750J0D01*
G01*
X109288250Y-75881000D01*
G75*
G02*
X109532000Y-76124750I0J-243750D01*
G01*
G37*
%TD*%
%TO.C,R13*%
G36*
G01*
X111407000Y-83871750D02*
X111407000Y-84784250D01*
G75*
G02*
X111163250Y-85028000I-243750J0D01*
G01*
X110675750Y-85028000D01*
G75*
G02*
X110432000Y-84784250I0J243750D01*
G01*
X110432000Y-83871750D01*
G75*
G02*
X110675750Y-83628000I243750J0D01*
G01*
X111163250Y-83628000D01*
G75*
G02*
X111407000Y-83871750I0J-243750D01*
G01*
G37*
G36*
G01*
X109532000Y-83871750D02*
X109532000Y-84784250D01*
G75*
G02*
X109288250Y-85028000I-243750J0D01*
G01*
X108800750Y-85028000D01*
G75*
G02*
X108557000Y-84784250I0J243750D01*
G01*
X108557000Y-83871750D01*
G75*
G02*
X108800750Y-83628000I243750J0D01*
G01*
X109288250Y-83628000D01*
G75*
G02*
X109532000Y-83871750I0J-243750D01*
G01*
G37*
%TD*%
%TO.C,R14*%
G36*
G01*
X117907750Y-68679000D02*
X118820250Y-68679000D01*
G75*
G02*
X119064000Y-68922750I0J-243750D01*
G01*
X119064000Y-69410250D01*
G75*
G02*
X118820250Y-69654000I-243750J0D01*
G01*
X117907750Y-69654000D01*
G75*
G02*
X117664000Y-69410250I0J243750D01*
G01*
X117664000Y-68922750D01*
G75*
G02*
X117907750Y-68679000I243750J0D01*
G01*
G37*
G36*
G01*
X117907750Y-70554000D02*
X118820250Y-70554000D01*
G75*
G02*
X119064000Y-70797750I0J-243750D01*
G01*
X119064000Y-71285250D01*
G75*
G02*
X118820250Y-71529000I-243750J0D01*
G01*
X117907750Y-71529000D01*
G75*
G02*
X117664000Y-71285250I0J243750D01*
G01*
X117664000Y-70797750D01*
G75*
G02*
X117907750Y-70554000I243750J0D01*
G01*
G37*
%TD*%
%TO.C,R15*%
G36*
G01*
X134060250Y-84483000D02*
X133147750Y-84483000D01*
G75*
G02*
X132904000Y-84239250I0J243750D01*
G01*
X132904000Y-83751750D01*
G75*
G02*
X133147750Y-83508000I243750J0D01*
G01*
X134060250Y-83508000D01*
G75*
G02*
X134304000Y-83751750I0J-243750D01*
G01*
X134304000Y-84239250D01*
G75*
G02*
X134060250Y-84483000I-243750J0D01*
G01*
G37*
G36*
G01*
X134060250Y-82608000D02*
X133147750Y-82608000D01*
G75*
G02*
X132904000Y-82364250I0J243750D01*
G01*
X132904000Y-81876750D01*
G75*
G02*
X133147750Y-81633000I243750J0D01*
G01*
X134060250Y-81633000D01*
G75*
G02*
X134304000Y-81876750I0J-243750D01*
G01*
X134304000Y-82364250D01*
G75*
G02*
X134060250Y-82608000I-243750J0D01*
G01*
G37*
%TD*%
%TO.C,R16*%
G36*
G01*
X112064500Y-53923250D02*
X112064500Y-53010750D01*
G75*
G02*
X112308250Y-52767000I243750J0D01*
G01*
X112795750Y-52767000D01*
G75*
G02*
X113039500Y-53010750I0J-243750D01*
G01*
X113039500Y-53923250D01*
G75*
G02*
X112795750Y-54167000I-243750J0D01*
G01*
X112308250Y-54167000D01*
G75*
G02*
X112064500Y-53923250I0J243750D01*
G01*
G37*
G36*
G01*
X113939500Y-53923250D02*
X113939500Y-53010750D01*
G75*
G02*
X114183250Y-52767000I243750J0D01*
G01*
X114670750Y-52767000D01*
G75*
G02*
X114914500Y-53010750I0J-243750D01*
G01*
X114914500Y-53923250D01*
G75*
G02*
X114670750Y-54167000I-243750J0D01*
G01*
X114183250Y-54167000D01*
G75*
G02*
X113939500Y-53923250I0J243750D01*
G01*
G37*
%TD*%
%TO.C,R17*%
G36*
G01*
X112064500Y-56082250D02*
X112064500Y-55169750D01*
G75*
G02*
X112308250Y-54926000I243750J0D01*
G01*
X112795750Y-54926000D01*
G75*
G02*
X113039500Y-55169750I0J-243750D01*
G01*
X113039500Y-56082250D01*
G75*
G02*
X112795750Y-56326000I-243750J0D01*
G01*
X112308250Y-56326000D01*
G75*
G02*
X112064500Y-56082250I0J243750D01*
G01*
G37*
G36*
G01*
X113939500Y-56082250D02*
X113939500Y-55169750D01*
G75*
G02*
X114183250Y-54926000I243750J0D01*
G01*
X114670750Y-54926000D01*
G75*
G02*
X114914500Y-55169750I0J-243750D01*
G01*
X114914500Y-56082250D01*
G75*
G02*
X114670750Y-56326000I-243750J0D01*
G01*
X114183250Y-56326000D01*
G75*
G02*
X113939500Y-56082250I0J243750D01*
G01*
G37*
%TD*%
D25*
%TO.C,U1*%
X117717001Y-129798000D03*
X117717001Y-130298000D03*
X117717001Y-130798001D03*
X117217000Y-130798001D03*
X116717000Y-130798001D03*
X116216999Y-130798001D03*
X116216999Y-130298000D03*
X116216999Y-129798000D03*
X116216999Y-129297999D03*
X116717000Y-129297999D03*
X117217000Y-129297999D03*
X117717001Y-129297999D03*
%TD*%
D26*
%TO.C,U2*%
X174116000Y-91184000D03*
X169546000Y-91184000D03*
D27*
X166116000Y-90044000D03*
D28*
X175266000Y-86614000D03*
X175266000Y-84324000D03*
X175266000Y-82044000D03*
X172976000Y-82044000D03*
X170686000Y-82044000D03*
X168406000Y-82044000D03*
X166116000Y-82044000D03*
X166116000Y-84324000D03*
X166116000Y-86614000D03*
%TD*%
D29*
%TO.C,U3*%
X155001001Y-94659201D03*
X154051000Y-94659201D03*
X153100999Y-94659201D03*
X153100999Y-97364799D03*
X155001001Y-97364799D03*
%TD*%
D30*
%TO.C,U4*%
X127611000Y-127872000D03*
X127111000Y-127872000D03*
X126611000Y-127872000D03*
X126111000Y-127872000D03*
X125611000Y-127872000D03*
X125111000Y-127872000D03*
X124611000Y-127872000D03*
D31*
X124201000Y-129032000D03*
D30*
X124611000Y-130192000D03*
X125111000Y-130192000D03*
X125611000Y-130192000D03*
X126111000Y-130192000D03*
X126611000Y-130192000D03*
X127111000Y-130192000D03*
X127611000Y-130192000D03*
D31*
X128021000Y-129032000D03*
%TD*%
D32*
%TO.C,U5*%
X136314000Y-127538000D03*
X136314000Y-128788000D03*
X136314000Y-130038000D03*
X136314000Y-131288000D03*
X138514000Y-131288000D03*
X138514000Y-130038000D03*
X138514000Y-128788000D03*
X138514000Y-127538000D03*
%TD*%
D33*
%TO.C,U6*%
X116062000Y-95184000D03*
X116062000Y-93284000D03*
X114062000Y-94234000D03*
%TD*%
D34*
%TO.C,Y1*%
X123736100Y-94780100D03*
X123736100Y-92163900D03*
X122135900Y-92163900D03*
X122135900Y-94780100D03*
%TD*%
D35*
%TO.C,D1*%
X158412000Y-92710000D03*
X160612000Y-92710000D03*
%TD*%
%TO.C,D7*%
X118364000Y-64940000D03*
X118364000Y-67140000D03*
%TD*%
D36*
%TO.C,D8*%
X165692000Y-94234000D03*
X164592000Y-94234000D03*
%TD*%
D37*
%TO.C,J1*%
X173489000Y-74198000D03*
X173489000Y-73548000D03*
X173489000Y-72898000D03*
X173489000Y-72248000D03*
X173489000Y-71598000D03*
D38*
X173849000Y-75360500D03*
X173849000Y-70435500D03*
D39*
X176149000Y-75808000D03*
X176149000Y-69988000D03*
D40*
X176149000Y-73738000D03*
X176149000Y-72058000D03*
%TD*%
D41*
%TO.C,U7*%
X129936000Y-91881000D03*
X129936000Y-92381000D03*
X129936000Y-92881000D03*
X129936000Y-93381000D03*
X129936000Y-93881000D03*
X129936000Y-94381000D03*
X129936000Y-94881000D03*
X129936000Y-95381000D03*
X129936000Y-95881000D03*
X129936000Y-96381000D03*
X129936000Y-96881000D03*
X129936000Y-97381000D03*
X129936000Y-97881000D03*
X129936000Y-98381000D03*
X129936000Y-98881000D03*
X129936000Y-99381000D03*
D42*
X131886000Y-101331000D03*
X132386000Y-101331000D03*
X132886000Y-101331000D03*
X133386000Y-101331000D03*
X133886000Y-101331000D03*
X134386000Y-101331000D03*
X134886000Y-101331000D03*
X135386000Y-101331000D03*
X135886000Y-101331000D03*
X136386000Y-101331000D03*
X136886000Y-101331000D03*
X137386000Y-101331000D03*
X137886000Y-101331000D03*
X138386000Y-101331000D03*
X138886000Y-101331000D03*
X139386000Y-101331000D03*
D41*
X141336000Y-99381000D03*
X141336000Y-98881000D03*
X141336000Y-98381000D03*
X141336000Y-97881000D03*
X141336000Y-97381000D03*
X141336000Y-96881000D03*
X141336000Y-96381000D03*
X141336000Y-95881000D03*
X141336000Y-95381000D03*
X141336000Y-94881000D03*
X141336000Y-94381000D03*
X141336000Y-93881000D03*
X141336000Y-93381000D03*
X141336000Y-92881000D03*
X141336000Y-92381000D03*
X141336000Y-91881000D03*
D42*
X139386000Y-89931000D03*
X138886000Y-89931000D03*
X138386000Y-89931000D03*
X137886000Y-89931000D03*
X137386000Y-89931000D03*
X136886000Y-89931000D03*
X136386000Y-89931000D03*
X135886000Y-89931000D03*
X135386000Y-89931000D03*
X134886000Y-89931000D03*
X134386000Y-89931000D03*
X133886000Y-89931000D03*
X133386000Y-89931000D03*
X132886000Y-89931000D03*
X132386000Y-89931000D03*
X131886000Y-89931000D03*
%TD*%
D43*
%TO.C,U8*%
X119286000Y-104521000D03*
X119286000Y-103251000D03*
X119286000Y-101981000D03*
X119286000Y-100711000D03*
X113886000Y-100711000D03*
X113886000Y-101981000D03*
X113886000Y-103251000D03*
X113886000Y-104521000D03*
%TD*%
D44*
%TO.C,F1*%
X172720000Y-105236000D03*
X172720000Y-102536000D03*
%TD*%
%TO.C,F2*%
X162306000Y-90090000D03*
X162306000Y-92790000D03*
%TD*%
M02*
