%TF.GenerationSoftware,KiCad,Pcbnew,(5.1.9)-1*%
%TF.CreationDate,2021-03-24T10:42:52-04:00*%
%TF.ProjectId,dev_board,6465765f-626f-4617-9264-2e6b69636164,rev?*%
%TF.SameCoordinates,Original*%
%TF.FileFunction,Legend,Top*%
%TF.FilePolarity,Positive*%
%FSLAX46Y46*%
G04 Gerber Fmt 4.6, Leading zero omitted, Abs format (unit mm)*
G04 Created by KiCad (PCBNEW (5.1.9)-1) date 2021-03-24 10:42:52*
%MOMM*%
%LPD*%
G01*
G04 APERTURE LIST*
%ADD10C,0.150000*%
%ADD11C,0.120000*%
%ADD12C,0.010000*%
%ADD13C,0.200000*%
%ADD14C,0.152400*%
%ADD15C,0.125000*%
%ADD16C,0.100000*%
%ADD17C,0.127000*%
G04 APERTURE END LIST*
D10*
X152614380Y-77438095D02*
X152614380Y-76819047D01*
X152995333Y-77152380D01*
X152995333Y-77009523D01*
X153042952Y-76914285D01*
X153090571Y-76866666D01*
X153185809Y-76819047D01*
X153423904Y-76819047D01*
X153519142Y-76866666D01*
X153566761Y-76914285D01*
X153614380Y-77009523D01*
X153614380Y-77295238D01*
X153566761Y-77390476D01*
X153519142Y-77438095D01*
X152614380Y-76533333D02*
X153614380Y-76200000D01*
X152614380Y-75866666D01*
X152614380Y-75628571D02*
X152614380Y-75009523D01*
X152995333Y-75342857D01*
X152995333Y-75200000D01*
X153042952Y-75104761D01*
X153090571Y-75057142D01*
X153185809Y-75009523D01*
X153423904Y-75009523D01*
X153519142Y-75057142D01*
X153566761Y-75104761D01*
X153614380Y-75200000D01*
X153614380Y-75485714D01*
X153566761Y-75580952D01*
X153519142Y-75628571D01*
X150074380Y-78072761D02*
X150883904Y-78072761D01*
X150979142Y-78025142D01*
X151026761Y-77977523D01*
X151074380Y-77882285D01*
X151074380Y-77691809D01*
X151026761Y-77596571D01*
X150979142Y-77548952D01*
X150883904Y-77501333D01*
X150074380Y-77501333D01*
X151026761Y-77072761D02*
X151074380Y-76929904D01*
X151074380Y-76691809D01*
X151026761Y-76596571D01*
X150979142Y-76548952D01*
X150883904Y-76501333D01*
X150788666Y-76501333D01*
X150693428Y-76548952D01*
X150645809Y-76596571D01*
X150598190Y-76691809D01*
X150550571Y-76882285D01*
X150502952Y-76977523D01*
X150455333Y-77025142D01*
X150360095Y-77072761D01*
X150264857Y-77072761D01*
X150169619Y-77025142D01*
X150122000Y-76977523D01*
X150074380Y-76882285D01*
X150074380Y-76644190D01*
X150122000Y-76501333D01*
X150788666Y-76120380D02*
X150788666Y-75644190D01*
X151074380Y-76215619D02*
X150074380Y-75882285D01*
X151074380Y-75548952D01*
X151074380Y-74644190D02*
X150598190Y-74977523D01*
X151074380Y-75215619D02*
X150074380Y-75215619D01*
X150074380Y-74834666D01*
X150122000Y-74739428D01*
X150169619Y-74691809D01*
X150264857Y-74644190D01*
X150407714Y-74644190D01*
X150502952Y-74691809D01*
X150550571Y-74739428D01*
X150598190Y-74834666D01*
X150598190Y-75215619D01*
X150074380Y-74358476D02*
X150074380Y-73787047D01*
X151074380Y-74072761D02*
X150074380Y-74072761D01*
X151074380Y-72929904D02*
X151074380Y-73501333D01*
X151074380Y-73215619D02*
X150074380Y-73215619D01*
X150217238Y-73310857D01*
X150312476Y-73406095D01*
X150360095Y-73501333D01*
X151169619Y-72739428D02*
X151169619Y-71977523D01*
X151074380Y-71168000D02*
X150598190Y-71501333D01*
X151074380Y-71739428D02*
X150074380Y-71739428D01*
X150074380Y-71358476D01*
X150122000Y-71263238D01*
X150169619Y-71215619D01*
X150264857Y-71168000D01*
X150407714Y-71168000D01*
X150502952Y-71215619D01*
X150550571Y-71263238D01*
X150598190Y-71358476D01*
X150598190Y-71739428D01*
X150074380Y-70834666D02*
X151074380Y-70168000D01*
X150074380Y-70168000D02*
X151074380Y-70834666D01*
X148486761Y-78207904D02*
X148534380Y-78065047D01*
X148534380Y-77826952D01*
X148486761Y-77731714D01*
X148439142Y-77684095D01*
X148343904Y-77636476D01*
X148248666Y-77636476D01*
X148153428Y-77684095D01*
X148105809Y-77731714D01*
X148058190Y-77826952D01*
X148010571Y-78017428D01*
X147962952Y-78112666D01*
X147915333Y-78160285D01*
X147820095Y-78207904D01*
X147724857Y-78207904D01*
X147629619Y-78160285D01*
X147582000Y-78112666D01*
X147534380Y-78017428D01*
X147534380Y-77779333D01*
X147582000Y-77636476D01*
X147534380Y-77303142D02*
X148534380Y-77065047D01*
X147820095Y-76874571D01*
X148534380Y-76684095D01*
X147534380Y-76446000D01*
X148439142Y-75493619D02*
X148486761Y-75541238D01*
X148534380Y-75684095D01*
X148534380Y-75779333D01*
X148486761Y-75922190D01*
X148391523Y-76017428D01*
X148296285Y-76065047D01*
X148105809Y-76112666D01*
X147962952Y-76112666D01*
X147772476Y-76065047D01*
X147677238Y-76017428D01*
X147582000Y-75922190D01*
X147534380Y-75779333D01*
X147534380Y-75684095D01*
X147582000Y-75541238D01*
X147629619Y-75493619D01*
X148534380Y-74588857D02*
X148534380Y-75065047D01*
X147534380Y-75065047D01*
X148534380Y-74255523D02*
X147534380Y-74255523D01*
X148534380Y-73684095D02*
X147962952Y-74112666D01*
X147534380Y-73684095D02*
X148105809Y-74255523D01*
X152614380Y-92431714D02*
X153423904Y-92431714D01*
X153519142Y-92384095D01*
X153566761Y-92336476D01*
X153614380Y-92241238D01*
X153614380Y-92050761D01*
X153566761Y-91955523D01*
X153519142Y-91907904D01*
X153423904Y-91860285D01*
X152614380Y-91860285D01*
X153566761Y-91431714D02*
X153614380Y-91288857D01*
X153614380Y-91050761D01*
X153566761Y-90955523D01*
X153519142Y-90907904D01*
X153423904Y-90860285D01*
X153328666Y-90860285D01*
X153233428Y-90907904D01*
X153185809Y-90955523D01*
X153138190Y-91050761D01*
X153090571Y-91241238D01*
X153042952Y-91336476D01*
X152995333Y-91384095D01*
X152900095Y-91431714D01*
X152804857Y-91431714D01*
X152709619Y-91384095D01*
X152662000Y-91336476D01*
X152614380Y-91241238D01*
X152614380Y-91003142D01*
X152662000Y-90860285D01*
X153328666Y-90479333D02*
X153328666Y-90003142D01*
X153614380Y-90574571D02*
X152614380Y-90241238D01*
X153614380Y-89907904D01*
X153614380Y-89003142D02*
X153138190Y-89336476D01*
X153614380Y-89574571D02*
X152614380Y-89574571D01*
X152614380Y-89193619D01*
X152662000Y-89098380D01*
X152709619Y-89050761D01*
X152804857Y-89003142D01*
X152947714Y-89003142D01*
X153042952Y-89050761D01*
X153090571Y-89098380D01*
X153138190Y-89193619D01*
X153138190Y-89574571D01*
X152614380Y-88717428D02*
X152614380Y-88146000D01*
X153614380Y-88431714D02*
X152614380Y-88431714D01*
X153614380Y-87288857D02*
X153614380Y-87860285D01*
X153614380Y-87574571D02*
X152614380Y-87574571D01*
X152757238Y-87669809D01*
X152852476Y-87765047D01*
X152900095Y-87860285D01*
X153709619Y-87098380D02*
X153709619Y-86336476D01*
X152614380Y-86241238D02*
X152614380Y-85669809D01*
X153614380Y-85955523D02*
X152614380Y-85955523D01*
X152614380Y-85431714D02*
X153614380Y-84765047D01*
X152614380Y-84765047D02*
X153614380Y-85431714D01*
X151026761Y-88987047D02*
X151074380Y-88844190D01*
X151074380Y-88606095D01*
X151026761Y-88510857D01*
X150979142Y-88463238D01*
X150883904Y-88415619D01*
X150788666Y-88415619D01*
X150693428Y-88463238D01*
X150645809Y-88510857D01*
X150598190Y-88606095D01*
X150550571Y-88796571D01*
X150502952Y-88891809D01*
X150455333Y-88939428D01*
X150360095Y-88987047D01*
X150264857Y-88987047D01*
X150169619Y-88939428D01*
X150122000Y-88891809D01*
X150074380Y-88796571D01*
X150074380Y-88558476D01*
X150122000Y-88415619D01*
X150074380Y-88082285D02*
X151074380Y-87844190D01*
X150360095Y-87653714D01*
X151074380Y-87463238D01*
X150074380Y-87225142D01*
X151074380Y-86844190D02*
X150074380Y-86844190D01*
X150074380Y-86606095D01*
X150122000Y-86463238D01*
X150217238Y-86368000D01*
X150312476Y-86320380D01*
X150502952Y-86272761D01*
X150645809Y-86272761D01*
X150836285Y-86320380D01*
X150931523Y-86368000D01*
X151026761Y-86463238D01*
X151074380Y-86606095D01*
X151074380Y-86844190D01*
X151074380Y-85844190D02*
X150074380Y-85844190D01*
X150074380Y-85177523D02*
X150074380Y-84987047D01*
X150122000Y-84891809D01*
X150217238Y-84796571D01*
X150407714Y-84748952D01*
X150741047Y-84748952D01*
X150931523Y-84796571D01*
X151026761Y-84891809D01*
X151074380Y-84987047D01*
X151074380Y-85177523D01*
X151026761Y-85272761D01*
X150931523Y-85368000D01*
X150741047Y-85415619D01*
X150407714Y-85415619D01*
X150217238Y-85368000D01*
X150122000Y-85272761D01*
X150074380Y-85177523D01*
X147582000Y-86867904D02*
X147534380Y-86963142D01*
X147534380Y-87106000D01*
X147582000Y-87248857D01*
X147677238Y-87344095D01*
X147772476Y-87391714D01*
X147962952Y-87439333D01*
X148105809Y-87439333D01*
X148296285Y-87391714D01*
X148391523Y-87344095D01*
X148486761Y-87248857D01*
X148534380Y-87106000D01*
X148534380Y-87010761D01*
X148486761Y-86867904D01*
X148439142Y-86820285D01*
X148105809Y-86820285D01*
X148105809Y-87010761D01*
X148534380Y-86391714D02*
X147534380Y-86391714D01*
X148534380Y-85820285D01*
X147534380Y-85820285D01*
X148534380Y-85344095D02*
X147534380Y-85344095D01*
X147534380Y-85106000D01*
X147582000Y-84963142D01*
X147677238Y-84867904D01*
X147772476Y-84820285D01*
X147962952Y-84772666D01*
X148105809Y-84772666D01*
X148296285Y-84820285D01*
X148391523Y-84867904D01*
X148486761Y-84963142D01*
X148534380Y-85106000D01*
X148534380Y-85344095D01*
X150495333Y-137804000D02*
X150400095Y-137756380D01*
X150257238Y-137756380D01*
X150114380Y-137804000D01*
X150019142Y-137899238D01*
X149971523Y-137994476D01*
X149923904Y-138184952D01*
X149923904Y-138327809D01*
X149971523Y-138518285D01*
X150019142Y-138613523D01*
X150114380Y-138708761D01*
X150257238Y-138756380D01*
X150352476Y-138756380D01*
X150495333Y-138708761D01*
X150542952Y-138661142D01*
X150542952Y-138327809D01*
X150352476Y-138327809D01*
X150971523Y-138661142D02*
X151019142Y-138708761D01*
X150971523Y-138756380D01*
X150923904Y-138708761D01*
X150971523Y-138661142D01*
X150971523Y-138756380D01*
X151638190Y-137756380D02*
X151828666Y-137756380D01*
X151923904Y-137804000D01*
X152019142Y-137899238D01*
X152066761Y-138089714D01*
X152066761Y-138423047D01*
X152019142Y-138613523D01*
X151923904Y-138708761D01*
X151828666Y-138756380D01*
X151638190Y-138756380D01*
X151542952Y-138708761D01*
X151447714Y-138613523D01*
X151400095Y-138423047D01*
X151400095Y-138089714D01*
X151447714Y-137899238D01*
X151542952Y-137804000D01*
X151638190Y-137756380D01*
X152495333Y-138661142D02*
X152542952Y-138708761D01*
X152495333Y-138756380D01*
X152447714Y-138708761D01*
X152495333Y-138661142D01*
X152495333Y-138756380D01*
X153162000Y-137756380D02*
X153352476Y-137756380D01*
X153447714Y-137804000D01*
X153542952Y-137899238D01*
X153590571Y-138089714D01*
X153590571Y-138423047D01*
X153542952Y-138613523D01*
X153447714Y-138708761D01*
X153352476Y-138756380D01*
X153162000Y-138756380D01*
X153066761Y-138708761D01*
X152971523Y-138613523D01*
X152923904Y-138423047D01*
X152923904Y-138089714D01*
X152971523Y-137899238D01*
X153066761Y-137804000D01*
X153162000Y-137756380D01*
X154019142Y-138661142D02*
X154066761Y-138708761D01*
X154019142Y-138756380D01*
X153971523Y-138708761D01*
X154019142Y-138661142D01*
X154019142Y-138756380D01*
X154447714Y-138708761D02*
X154590571Y-138756380D01*
X154828666Y-138756380D01*
X154923904Y-138708761D01*
X154971523Y-138661142D01*
X155019142Y-138565904D01*
X155019142Y-138470666D01*
X154971523Y-138375428D01*
X154923904Y-138327809D01*
X154828666Y-138280190D01*
X154638190Y-138232571D01*
X154542952Y-138184952D01*
X154495333Y-138137333D01*
X154447714Y-138042095D01*
X154447714Y-137946857D01*
X154495333Y-137851619D01*
X154542952Y-137804000D01*
X154638190Y-137756380D01*
X154876285Y-137756380D01*
X155019142Y-137804000D01*
X155447714Y-138661142D02*
X155495333Y-138708761D01*
X155447714Y-138756380D01*
X155400095Y-138708761D01*
X155447714Y-138661142D01*
X155447714Y-138756380D01*
X155923904Y-138232571D02*
X156257238Y-138232571D01*
X156400095Y-138756380D02*
X155923904Y-138756380D01*
X155923904Y-137756380D01*
X156400095Y-137756380D01*
X151162000Y-139406380D02*
X151400095Y-140406380D01*
X151590571Y-139692095D01*
X151781047Y-140406380D01*
X152019142Y-139406380D01*
X152400095Y-140406380D02*
X152400095Y-139739714D01*
X152400095Y-139406380D02*
X152352476Y-139454000D01*
X152400095Y-139501619D01*
X152447714Y-139454000D01*
X152400095Y-139406380D01*
X152400095Y-139501619D01*
X153019142Y-140406380D02*
X152923904Y-140358761D01*
X152876285Y-140263523D01*
X152876285Y-139406380D01*
X153542952Y-140406380D02*
X153447714Y-140358761D01*
X153400095Y-140263523D01*
X153400095Y-139406380D01*
X155019142Y-139882571D02*
X154685809Y-139882571D01*
X154685809Y-140406380D02*
X154685809Y-139406380D01*
X155162000Y-139406380D01*
X151804857Y-142056380D02*
X151471523Y-141580190D01*
X151233428Y-142056380D02*
X151233428Y-141056380D01*
X151614380Y-141056380D01*
X151709619Y-141104000D01*
X151757238Y-141151619D01*
X151804857Y-141246857D01*
X151804857Y-141389714D01*
X151757238Y-141484952D01*
X151709619Y-141532571D01*
X151614380Y-141580190D01*
X151233428Y-141580190D01*
X152614380Y-142008761D02*
X152519142Y-142056380D01*
X152328666Y-142056380D01*
X152233428Y-142008761D01*
X152185809Y-141913523D01*
X152185809Y-141532571D01*
X152233428Y-141437333D01*
X152328666Y-141389714D01*
X152519142Y-141389714D01*
X152614380Y-141437333D01*
X152662000Y-141532571D01*
X152662000Y-141627809D01*
X152185809Y-141723047D01*
X152995333Y-141389714D02*
X153233428Y-142056380D01*
X153471523Y-141389714D01*
X155138190Y-142056380D02*
X154566761Y-142056380D01*
X154852476Y-142056380D02*
X154852476Y-141056380D01*
X154757238Y-141199238D01*
X154662000Y-141294476D01*
X154566761Y-141342095D01*
X139914380Y-55086095D02*
X139914380Y-54467047D01*
X140295333Y-54800380D01*
X140295333Y-54657523D01*
X140342952Y-54562285D01*
X140390571Y-54514666D01*
X140485809Y-54467047D01*
X140723904Y-54467047D01*
X140819142Y-54514666D01*
X140866761Y-54562285D01*
X140914380Y-54657523D01*
X140914380Y-54943238D01*
X140866761Y-55038476D01*
X140819142Y-55086095D01*
X139914380Y-54181333D02*
X140914380Y-53848000D01*
X139914380Y-53514666D01*
X139914380Y-53276571D02*
X139914380Y-52657523D01*
X140295333Y-52990857D01*
X140295333Y-52848000D01*
X140342952Y-52752761D01*
X140390571Y-52705142D01*
X140485809Y-52657523D01*
X140723904Y-52657523D01*
X140819142Y-52705142D01*
X140866761Y-52752761D01*
X140914380Y-52848000D01*
X140914380Y-53133714D01*
X140866761Y-53228952D01*
X140819142Y-53276571D01*
X138326761Y-59237142D02*
X138374380Y-59094285D01*
X138374380Y-58856190D01*
X138326761Y-58760952D01*
X138279142Y-58713333D01*
X138183904Y-58665714D01*
X138088666Y-58665714D01*
X137993428Y-58713333D01*
X137945809Y-58760952D01*
X137898190Y-58856190D01*
X137850571Y-59046666D01*
X137802952Y-59141904D01*
X137755333Y-59189523D01*
X137660095Y-59237142D01*
X137564857Y-59237142D01*
X137469619Y-59189523D01*
X137422000Y-59141904D01*
X137374380Y-59046666D01*
X137374380Y-58808571D01*
X137422000Y-58665714D01*
X138374380Y-58237142D02*
X137374380Y-58237142D01*
X137374380Y-57856190D01*
X137422000Y-57760952D01*
X137469619Y-57713333D01*
X137564857Y-57665714D01*
X137707714Y-57665714D01*
X137802952Y-57713333D01*
X137850571Y-57760952D01*
X137898190Y-57856190D01*
X137898190Y-58237142D01*
X138374380Y-57237142D02*
X137374380Y-57237142D01*
X137374380Y-56856190D02*
X137374380Y-56237142D01*
X137755333Y-56570476D01*
X137755333Y-56427619D01*
X137802952Y-56332380D01*
X137850571Y-56284761D01*
X137945809Y-56237142D01*
X138183904Y-56237142D01*
X138279142Y-56284761D01*
X138326761Y-56332380D01*
X138374380Y-56427619D01*
X138374380Y-56713333D01*
X138326761Y-56808571D01*
X138279142Y-56856190D01*
X138326761Y-55094285D02*
X138374380Y-54951428D01*
X138374380Y-54713333D01*
X138326761Y-54618095D01*
X138279142Y-54570476D01*
X138183904Y-54522857D01*
X138088666Y-54522857D01*
X137993428Y-54570476D01*
X137945809Y-54618095D01*
X137898190Y-54713333D01*
X137850571Y-54903809D01*
X137802952Y-54999047D01*
X137755333Y-55046666D01*
X137660095Y-55094285D01*
X137564857Y-55094285D01*
X137469619Y-55046666D01*
X137422000Y-54999047D01*
X137374380Y-54903809D01*
X137374380Y-54665714D01*
X137422000Y-54522857D01*
X138279142Y-53522857D02*
X138326761Y-53570476D01*
X138374380Y-53713333D01*
X138374380Y-53808571D01*
X138326761Y-53951428D01*
X138231523Y-54046666D01*
X138136285Y-54094285D01*
X137945809Y-54141904D01*
X137802952Y-54141904D01*
X137612476Y-54094285D01*
X137517238Y-54046666D01*
X137422000Y-53951428D01*
X137374380Y-53808571D01*
X137374380Y-53713333D01*
X137422000Y-53570476D01*
X137469619Y-53522857D01*
X138374380Y-53094285D02*
X137374380Y-53094285D01*
X138374380Y-52522857D02*
X137802952Y-52951428D01*
X137374380Y-52522857D02*
X137945809Y-53094285D01*
X135786761Y-59824476D02*
X135834380Y-59681619D01*
X135834380Y-59443523D01*
X135786761Y-59348285D01*
X135739142Y-59300666D01*
X135643904Y-59253047D01*
X135548666Y-59253047D01*
X135453428Y-59300666D01*
X135405809Y-59348285D01*
X135358190Y-59443523D01*
X135310571Y-59634000D01*
X135262952Y-59729238D01*
X135215333Y-59776857D01*
X135120095Y-59824476D01*
X135024857Y-59824476D01*
X134929619Y-59776857D01*
X134882000Y-59729238D01*
X134834380Y-59634000D01*
X134834380Y-59395904D01*
X134882000Y-59253047D01*
X135834380Y-58824476D02*
X134834380Y-58824476D01*
X134834380Y-58443523D01*
X134882000Y-58348285D01*
X134929619Y-58300666D01*
X135024857Y-58253047D01*
X135167714Y-58253047D01*
X135262952Y-58300666D01*
X135310571Y-58348285D01*
X135358190Y-58443523D01*
X135358190Y-58824476D01*
X135834380Y-57824476D02*
X134834380Y-57824476D01*
X134834380Y-57443523D02*
X134834380Y-56824476D01*
X135215333Y-57157809D01*
X135215333Y-57014952D01*
X135262952Y-56919714D01*
X135310571Y-56872095D01*
X135405809Y-56824476D01*
X135643904Y-56824476D01*
X135739142Y-56872095D01*
X135786761Y-56919714D01*
X135834380Y-57014952D01*
X135834380Y-57300666D01*
X135786761Y-57395904D01*
X135739142Y-57443523D01*
X135834380Y-55634000D02*
X134834380Y-55634000D01*
X135548666Y-55300666D01*
X134834380Y-54967333D01*
X135834380Y-54967333D01*
X135834380Y-54491142D02*
X134834380Y-54491142D01*
X135786761Y-54062571D02*
X135834380Y-53919714D01*
X135834380Y-53681619D01*
X135786761Y-53586380D01*
X135739142Y-53538761D01*
X135643904Y-53491142D01*
X135548666Y-53491142D01*
X135453428Y-53538761D01*
X135405809Y-53586380D01*
X135358190Y-53681619D01*
X135310571Y-53872095D01*
X135262952Y-53967333D01*
X135215333Y-54014952D01*
X135120095Y-54062571D01*
X135024857Y-54062571D01*
X134929619Y-54014952D01*
X134882000Y-53967333D01*
X134834380Y-53872095D01*
X134834380Y-53634000D01*
X134882000Y-53491142D01*
X134834380Y-52872095D02*
X134834380Y-52681619D01*
X134882000Y-52586380D01*
X134977238Y-52491142D01*
X135167714Y-52443523D01*
X135501047Y-52443523D01*
X135691523Y-52491142D01*
X135786761Y-52586380D01*
X135834380Y-52681619D01*
X135834380Y-52872095D01*
X135786761Y-52967333D01*
X135691523Y-53062571D01*
X135501047Y-53110190D01*
X135167714Y-53110190D01*
X134977238Y-53062571D01*
X134882000Y-52967333D01*
X134834380Y-52872095D01*
X133246761Y-59824476D02*
X133294380Y-59681619D01*
X133294380Y-59443523D01*
X133246761Y-59348285D01*
X133199142Y-59300666D01*
X133103904Y-59253047D01*
X133008666Y-59253047D01*
X132913428Y-59300666D01*
X132865809Y-59348285D01*
X132818190Y-59443523D01*
X132770571Y-59634000D01*
X132722952Y-59729238D01*
X132675333Y-59776857D01*
X132580095Y-59824476D01*
X132484857Y-59824476D01*
X132389619Y-59776857D01*
X132342000Y-59729238D01*
X132294380Y-59634000D01*
X132294380Y-59395904D01*
X132342000Y-59253047D01*
X133294380Y-58824476D02*
X132294380Y-58824476D01*
X132294380Y-58443523D01*
X132342000Y-58348285D01*
X132389619Y-58300666D01*
X132484857Y-58253047D01*
X132627714Y-58253047D01*
X132722952Y-58300666D01*
X132770571Y-58348285D01*
X132818190Y-58443523D01*
X132818190Y-58824476D01*
X133294380Y-57824476D02*
X132294380Y-57824476D01*
X132294380Y-57443523D02*
X132294380Y-56824476D01*
X132675333Y-57157809D01*
X132675333Y-57014952D01*
X132722952Y-56919714D01*
X132770571Y-56872095D01*
X132865809Y-56824476D01*
X133103904Y-56824476D01*
X133199142Y-56872095D01*
X133246761Y-56919714D01*
X133294380Y-57014952D01*
X133294380Y-57300666D01*
X133246761Y-57395904D01*
X133199142Y-57443523D01*
X133294380Y-55634000D02*
X132294380Y-55634000D01*
X133008666Y-55300666D01*
X132294380Y-54967333D01*
X133294380Y-54967333D01*
X132294380Y-54300666D02*
X132294380Y-54110190D01*
X132342000Y-54014952D01*
X132437238Y-53919714D01*
X132627714Y-53872095D01*
X132961047Y-53872095D01*
X133151523Y-53919714D01*
X133246761Y-54014952D01*
X133294380Y-54110190D01*
X133294380Y-54300666D01*
X133246761Y-54395904D01*
X133151523Y-54491142D01*
X132961047Y-54538761D01*
X132627714Y-54538761D01*
X132437238Y-54491142D01*
X132342000Y-54395904D01*
X132294380Y-54300666D01*
X133246761Y-53491142D02*
X133294380Y-53348285D01*
X133294380Y-53110190D01*
X133246761Y-53014952D01*
X133199142Y-52967333D01*
X133103904Y-52919714D01*
X133008666Y-52919714D01*
X132913428Y-52967333D01*
X132865809Y-53014952D01*
X132818190Y-53110190D01*
X132770571Y-53300666D01*
X132722952Y-53395904D01*
X132675333Y-53443523D01*
X132580095Y-53491142D01*
X132484857Y-53491142D01*
X132389619Y-53443523D01*
X132342000Y-53395904D01*
X132294380Y-53300666D01*
X132294380Y-53062571D01*
X132342000Y-52919714D01*
X133294380Y-52491142D02*
X132294380Y-52491142D01*
X130706761Y-58229142D02*
X130754380Y-58086285D01*
X130754380Y-57848190D01*
X130706761Y-57752952D01*
X130659142Y-57705333D01*
X130563904Y-57657714D01*
X130468666Y-57657714D01*
X130373428Y-57705333D01*
X130325809Y-57752952D01*
X130278190Y-57848190D01*
X130230571Y-58038666D01*
X130182952Y-58133904D01*
X130135333Y-58181523D01*
X130040095Y-58229142D01*
X129944857Y-58229142D01*
X129849619Y-58181523D01*
X129802000Y-58133904D01*
X129754380Y-58038666D01*
X129754380Y-57800571D01*
X129802000Y-57657714D01*
X130754380Y-57229142D02*
X129754380Y-57229142D01*
X129754380Y-56848190D01*
X129802000Y-56752952D01*
X129849619Y-56705333D01*
X129944857Y-56657714D01*
X130087714Y-56657714D01*
X130182952Y-56705333D01*
X130230571Y-56752952D01*
X130278190Y-56848190D01*
X130278190Y-57229142D01*
X130754380Y-56229142D02*
X129754380Y-56229142D01*
X129754380Y-55848190D02*
X129754380Y-55229142D01*
X130135333Y-55562476D01*
X130135333Y-55419619D01*
X130182952Y-55324380D01*
X130230571Y-55276761D01*
X130325809Y-55229142D01*
X130563904Y-55229142D01*
X130659142Y-55276761D01*
X130706761Y-55324380D01*
X130754380Y-55419619D01*
X130754380Y-55705333D01*
X130706761Y-55800571D01*
X130659142Y-55848190D01*
X130659142Y-53467238D02*
X130706761Y-53514857D01*
X130754380Y-53657714D01*
X130754380Y-53752952D01*
X130706761Y-53895809D01*
X130611523Y-53991047D01*
X130516285Y-54038666D01*
X130325809Y-54086285D01*
X130182952Y-54086285D01*
X129992476Y-54038666D01*
X129897238Y-53991047D01*
X129802000Y-53895809D01*
X129754380Y-53752952D01*
X129754380Y-53657714D01*
X129802000Y-53514857D01*
X129849619Y-53467238D01*
X130706761Y-53086285D02*
X130754380Y-52943428D01*
X130754380Y-52705333D01*
X130706761Y-52610095D01*
X130659142Y-52562476D01*
X130563904Y-52514857D01*
X130468666Y-52514857D01*
X130373428Y-52562476D01*
X130325809Y-52610095D01*
X130278190Y-52705333D01*
X130230571Y-52895809D01*
X130182952Y-52991047D01*
X130135333Y-53038666D01*
X130040095Y-53086285D01*
X129944857Y-53086285D01*
X129849619Y-53038666D01*
X129802000Y-52991047D01*
X129754380Y-52895809D01*
X129754380Y-52657714D01*
X129802000Y-52514857D01*
X127262000Y-54609904D02*
X127214380Y-54705142D01*
X127214380Y-54848000D01*
X127262000Y-54990857D01*
X127357238Y-55086095D01*
X127452476Y-55133714D01*
X127642952Y-55181333D01*
X127785809Y-55181333D01*
X127976285Y-55133714D01*
X128071523Y-55086095D01*
X128166761Y-54990857D01*
X128214380Y-54848000D01*
X128214380Y-54752761D01*
X128166761Y-54609904D01*
X128119142Y-54562285D01*
X127785809Y-54562285D01*
X127785809Y-54752761D01*
X128214380Y-54133714D02*
X127214380Y-54133714D01*
X128214380Y-53562285D01*
X127214380Y-53562285D01*
X128214380Y-53086095D02*
X127214380Y-53086095D01*
X127214380Y-52848000D01*
X127262000Y-52705142D01*
X127357238Y-52609904D01*
X127452476Y-52562285D01*
X127642952Y-52514666D01*
X127785809Y-52514666D01*
X127976285Y-52562285D01*
X128071523Y-52609904D01*
X128166761Y-52705142D01*
X128214380Y-52848000D01*
X128214380Y-53086095D01*
X120912000Y-54609904D02*
X120864380Y-54705142D01*
X120864380Y-54848000D01*
X120912000Y-54990857D01*
X121007238Y-55086095D01*
X121102476Y-55133714D01*
X121292952Y-55181333D01*
X121435809Y-55181333D01*
X121626285Y-55133714D01*
X121721523Y-55086095D01*
X121816761Y-54990857D01*
X121864380Y-54848000D01*
X121864380Y-54752761D01*
X121816761Y-54609904D01*
X121769142Y-54562285D01*
X121435809Y-54562285D01*
X121435809Y-54752761D01*
X121864380Y-54133714D02*
X120864380Y-54133714D01*
X121864380Y-53562285D01*
X120864380Y-53562285D01*
X121864380Y-53086095D02*
X120864380Y-53086095D01*
X120864380Y-52848000D01*
X120912000Y-52705142D01*
X121007238Y-52609904D01*
X121102476Y-52562285D01*
X121292952Y-52514666D01*
X121435809Y-52514666D01*
X121626285Y-52562285D01*
X121721523Y-52609904D01*
X121816761Y-52705142D01*
X121864380Y-52848000D01*
X121864380Y-53086095D01*
X119324380Y-59118095D02*
X118324380Y-59118095D01*
X118419619Y-58689523D02*
X118372000Y-58641904D01*
X118324380Y-58546666D01*
X118324380Y-58308571D01*
X118372000Y-58213333D01*
X118419619Y-58165714D01*
X118514857Y-58118095D01*
X118610095Y-58118095D01*
X118752952Y-58165714D01*
X119324380Y-58737142D01*
X119324380Y-58118095D01*
X119229142Y-57118095D02*
X119276761Y-57165714D01*
X119324380Y-57308571D01*
X119324380Y-57403809D01*
X119276761Y-57546666D01*
X119181523Y-57641904D01*
X119086285Y-57689523D01*
X118895809Y-57737142D01*
X118752952Y-57737142D01*
X118562476Y-57689523D01*
X118467238Y-57641904D01*
X118372000Y-57546666D01*
X118324380Y-57403809D01*
X118324380Y-57308571D01*
X118372000Y-57165714D01*
X118419619Y-57118095D01*
X119324380Y-56165714D02*
X119324380Y-56737142D01*
X119324380Y-56451428D02*
X118324380Y-56451428D01*
X118467238Y-56546666D01*
X118562476Y-56641904D01*
X118610095Y-56737142D01*
X119276761Y-55022857D02*
X119324380Y-54880000D01*
X119324380Y-54641904D01*
X119276761Y-54546666D01*
X119229142Y-54499047D01*
X119133904Y-54451428D01*
X119038666Y-54451428D01*
X118943428Y-54499047D01*
X118895809Y-54546666D01*
X118848190Y-54641904D01*
X118800571Y-54832380D01*
X118752952Y-54927619D01*
X118705333Y-54975238D01*
X118610095Y-55022857D01*
X118514857Y-55022857D01*
X118419619Y-54975238D01*
X118372000Y-54927619D01*
X118324380Y-54832380D01*
X118324380Y-54594285D01*
X118372000Y-54451428D01*
X119324380Y-54022857D02*
X118324380Y-54022857D01*
X118324380Y-53784761D01*
X118372000Y-53641904D01*
X118467238Y-53546666D01*
X118562476Y-53499047D01*
X118752952Y-53451428D01*
X118895809Y-53451428D01*
X119086285Y-53499047D01*
X119181523Y-53546666D01*
X119276761Y-53641904D01*
X119324380Y-53784761D01*
X119324380Y-54022857D01*
X119038666Y-53070476D02*
X119038666Y-52594285D01*
X119324380Y-53165714D02*
X118324380Y-52832380D01*
X119324380Y-52499047D01*
X116784380Y-59094285D02*
X115784380Y-59094285D01*
X115879619Y-58665714D02*
X115832000Y-58618095D01*
X115784380Y-58522857D01*
X115784380Y-58284761D01*
X115832000Y-58189523D01*
X115879619Y-58141904D01*
X115974857Y-58094285D01*
X116070095Y-58094285D01*
X116212952Y-58141904D01*
X116784380Y-58713333D01*
X116784380Y-58094285D01*
X116689142Y-57094285D02*
X116736761Y-57141904D01*
X116784380Y-57284761D01*
X116784380Y-57380000D01*
X116736761Y-57522857D01*
X116641523Y-57618095D01*
X116546285Y-57665714D01*
X116355809Y-57713333D01*
X116212952Y-57713333D01*
X116022476Y-57665714D01*
X115927238Y-57618095D01*
X115832000Y-57522857D01*
X115784380Y-57380000D01*
X115784380Y-57284761D01*
X115832000Y-57141904D01*
X115879619Y-57094285D01*
X116784380Y-56141904D02*
X116784380Y-56713333D01*
X116784380Y-56427619D02*
X115784380Y-56427619D01*
X115927238Y-56522857D01*
X116022476Y-56618095D01*
X116070095Y-56713333D01*
X116736761Y-54999047D02*
X116784380Y-54856190D01*
X116784380Y-54618095D01*
X116736761Y-54522857D01*
X116689142Y-54475238D01*
X116593904Y-54427619D01*
X116498666Y-54427619D01*
X116403428Y-54475238D01*
X116355809Y-54522857D01*
X116308190Y-54618095D01*
X116260571Y-54808571D01*
X116212952Y-54903809D01*
X116165333Y-54951428D01*
X116070095Y-54999047D01*
X115974857Y-54999047D01*
X115879619Y-54951428D01*
X115832000Y-54903809D01*
X115784380Y-54808571D01*
X115784380Y-54570476D01*
X115832000Y-54427619D01*
X116689142Y-53427619D02*
X116736761Y-53475238D01*
X116784380Y-53618095D01*
X116784380Y-53713333D01*
X116736761Y-53856190D01*
X116641523Y-53951428D01*
X116546285Y-53999047D01*
X116355809Y-54046666D01*
X116212952Y-54046666D01*
X116022476Y-53999047D01*
X115927238Y-53951428D01*
X115832000Y-53856190D01*
X115784380Y-53713333D01*
X115784380Y-53618095D01*
X115832000Y-53475238D01*
X115879619Y-53427619D01*
X116784380Y-52522857D02*
X116784380Y-52999047D01*
X115784380Y-52999047D01*
X113244380Y-59404095D02*
X113244380Y-58785047D01*
X113625333Y-59118380D01*
X113625333Y-58975523D01*
X113672952Y-58880285D01*
X113720571Y-58832666D01*
X113815809Y-58785047D01*
X114053904Y-58785047D01*
X114149142Y-58832666D01*
X114196761Y-58880285D01*
X114244380Y-58975523D01*
X114244380Y-59261238D01*
X114196761Y-59356476D01*
X114149142Y-59404095D01*
X113244380Y-58499333D02*
X114244380Y-58166000D01*
X113244380Y-57832666D01*
X113244380Y-57594571D02*
X113244380Y-56975523D01*
X113625333Y-57308857D01*
X113625333Y-57166000D01*
X113672952Y-57070761D01*
X113720571Y-57023142D01*
X113815809Y-56975523D01*
X114053904Y-56975523D01*
X114149142Y-57023142D01*
X114196761Y-57070761D01*
X114244380Y-57166000D01*
X114244380Y-57451714D01*
X114196761Y-57546952D01*
X114149142Y-57594571D01*
X103449857Y-100480761D02*
X103592714Y-100528380D01*
X103830809Y-100528380D01*
X103926047Y-100480761D01*
X103973666Y-100433142D01*
X104021285Y-100337904D01*
X104021285Y-100242666D01*
X103973666Y-100147428D01*
X103926047Y-100099809D01*
X103830809Y-100052190D01*
X103640333Y-100004571D01*
X103545095Y-99956952D01*
X103497476Y-99909333D01*
X103449857Y-99814095D01*
X103449857Y-99718857D01*
X103497476Y-99623619D01*
X103545095Y-99576000D01*
X103640333Y-99528380D01*
X103878428Y-99528380D01*
X104021285Y-99576000D01*
X104449857Y-100528380D02*
X104449857Y-99528380D01*
X104830809Y-99528380D01*
X104926047Y-99576000D01*
X104973666Y-99623619D01*
X105021285Y-99718857D01*
X105021285Y-99861714D01*
X104973666Y-99956952D01*
X104926047Y-100004571D01*
X104830809Y-100052190D01*
X104449857Y-100052190D01*
X105449857Y-100528380D02*
X105449857Y-99528380D01*
X105878428Y-99623619D02*
X105926047Y-99576000D01*
X106021285Y-99528380D01*
X106259380Y-99528380D01*
X106354619Y-99576000D01*
X106402238Y-99623619D01*
X106449857Y-99718857D01*
X106449857Y-99814095D01*
X106402238Y-99956952D01*
X105830809Y-100528380D01*
X106449857Y-100528380D01*
X107592714Y-100480761D02*
X107735571Y-100528380D01*
X107973666Y-100528380D01*
X108068904Y-100480761D01*
X108116523Y-100433142D01*
X108164142Y-100337904D01*
X108164142Y-100242666D01*
X108116523Y-100147428D01*
X108068904Y-100099809D01*
X107973666Y-100052190D01*
X107783190Y-100004571D01*
X107687952Y-99956952D01*
X107640333Y-99909333D01*
X107592714Y-99814095D01*
X107592714Y-99718857D01*
X107640333Y-99623619D01*
X107687952Y-99576000D01*
X107783190Y-99528380D01*
X108021285Y-99528380D01*
X108164142Y-99576000D01*
X109164142Y-100433142D02*
X109116523Y-100480761D01*
X108973666Y-100528380D01*
X108878428Y-100528380D01*
X108735571Y-100480761D01*
X108640333Y-100385523D01*
X108592714Y-100290285D01*
X108545095Y-100099809D01*
X108545095Y-99956952D01*
X108592714Y-99766476D01*
X108640333Y-99671238D01*
X108735571Y-99576000D01*
X108878428Y-99528380D01*
X108973666Y-99528380D01*
X109116523Y-99576000D01*
X109164142Y-99623619D01*
X109592714Y-100528380D02*
X109592714Y-99528380D01*
X110164142Y-100528380D02*
X109735571Y-99956952D01*
X110164142Y-99528380D02*
X109592714Y-100099809D01*
X103497523Y-97940761D02*
X103640380Y-97988380D01*
X103878476Y-97988380D01*
X103973714Y-97940761D01*
X104021333Y-97893142D01*
X104068952Y-97797904D01*
X104068952Y-97702666D01*
X104021333Y-97607428D01*
X103973714Y-97559809D01*
X103878476Y-97512190D01*
X103688000Y-97464571D01*
X103592761Y-97416952D01*
X103545142Y-97369333D01*
X103497523Y-97274095D01*
X103497523Y-97178857D01*
X103545142Y-97083619D01*
X103592761Y-97036000D01*
X103688000Y-96988380D01*
X103926095Y-96988380D01*
X104068952Y-97036000D01*
X104497523Y-97988380D02*
X104497523Y-96988380D01*
X104878476Y-96988380D01*
X104973714Y-97036000D01*
X105021333Y-97083619D01*
X105068952Y-97178857D01*
X105068952Y-97321714D01*
X105021333Y-97416952D01*
X104973714Y-97464571D01*
X104878476Y-97512190D01*
X104497523Y-97512190D01*
X105497523Y-97988380D02*
X105497523Y-96988380D01*
X105926095Y-97083619D02*
X105973714Y-97036000D01*
X106068952Y-96988380D01*
X106307047Y-96988380D01*
X106402285Y-97036000D01*
X106449904Y-97083619D01*
X106497523Y-97178857D01*
X106497523Y-97274095D01*
X106449904Y-97416952D01*
X105878476Y-97988380D01*
X106497523Y-97988380D01*
X107688000Y-97988380D02*
X107688000Y-96988380D01*
X108021333Y-97702666D01*
X108354666Y-96988380D01*
X108354666Y-97988380D01*
X108830857Y-97988380D02*
X108830857Y-96988380D01*
X109259428Y-97940761D02*
X109402285Y-97988380D01*
X109640380Y-97988380D01*
X109735619Y-97940761D01*
X109783238Y-97893142D01*
X109830857Y-97797904D01*
X109830857Y-97702666D01*
X109783238Y-97607428D01*
X109735619Y-97559809D01*
X109640380Y-97512190D01*
X109449904Y-97464571D01*
X109354666Y-97416952D01*
X109307047Y-97369333D01*
X109259428Y-97274095D01*
X109259428Y-97178857D01*
X109307047Y-97083619D01*
X109354666Y-97036000D01*
X109449904Y-96988380D01*
X109688000Y-96988380D01*
X109830857Y-97036000D01*
X110449904Y-96988380D02*
X110640380Y-96988380D01*
X110735619Y-97036000D01*
X110830857Y-97131238D01*
X110878476Y-97321714D01*
X110878476Y-97655047D01*
X110830857Y-97845523D01*
X110735619Y-97940761D01*
X110640380Y-97988380D01*
X110449904Y-97988380D01*
X110354666Y-97940761D01*
X110259428Y-97845523D01*
X110211809Y-97655047D01*
X110211809Y-97321714D01*
X110259428Y-97131238D01*
X110354666Y-97036000D01*
X110449904Y-96988380D01*
X103497523Y-95400761D02*
X103640380Y-95448380D01*
X103878476Y-95448380D01*
X103973714Y-95400761D01*
X104021333Y-95353142D01*
X104068952Y-95257904D01*
X104068952Y-95162666D01*
X104021333Y-95067428D01*
X103973714Y-95019809D01*
X103878476Y-94972190D01*
X103688000Y-94924571D01*
X103592761Y-94876952D01*
X103545142Y-94829333D01*
X103497523Y-94734095D01*
X103497523Y-94638857D01*
X103545142Y-94543619D01*
X103592761Y-94496000D01*
X103688000Y-94448380D01*
X103926095Y-94448380D01*
X104068952Y-94496000D01*
X104497523Y-95448380D02*
X104497523Y-94448380D01*
X104878476Y-94448380D01*
X104973714Y-94496000D01*
X105021333Y-94543619D01*
X105068952Y-94638857D01*
X105068952Y-94781714D01*
X105021333Y-94876952D01*
X104973714Y-94924571D01*
X104878476Y-94972190D01*
X104497523Y-94972190D01*
X105497523Y-95448380D02*
X105497523Y-94448380D01*
X105926095Y-94543619D02*
X105973714Y-94496000D01*
X106068952Y-94448380D01*
X106307047Y-94448380D01*
X106402285Y-94496000D01*
X106449904Y-94543619D01*
X106497523Y-94638857D01*
X106497523Y-94734095D01*
X106449904Y-94876952D01*
X105878476Y-95448380D01*
X106497523Y-95448380D01*
X107688000Y-95448380D02*
X107688000Y-94448380D01*
X108021333Y-95162666D01*
X108354666Y-94448380D01*
X108354666Y-95448380D01*
X109021333Y-94448380D02*
X109211809Y-94448380D01*
X109307047Y-94496000D01*
X109402285Y-94591238D01*
X109449904Y-94781714D01*
X109449904Y-95115047D01*
X109402285Y-95305523D01*
X109307047Y-95400761D01*
X109211809Y-95448380D01*
X109021333Y-95448380D01*
X108926095Y-95400761D01*
X108830857Y-95305523D01*
X108783238Y-95115047D01*
X108783238Y-94781714D01*
X108830857Y-94591238D01*
X108926095Y-94496000D01*
X109021333Y-94448380D01*
X109830857Y-95400761D02*
X109973714Y-95448380D01*
X110211809Y-95448380D01*
X110307047Y-95400761D01*
X110354666Y-95353142D01*
X110402285Y-95257904D01*
X110402285Y-95162666D01*
X110354666Y-95067428D01*
X110307047Y-95019809D01*
X110211809Y-94972190D01*
X110021333Y-94924571D01*
X109926095Y-94876952D01*
X109878476Y-94829333D01*
X109830857Y-94734095D01*
X109830857Y-94638857D01*
X109878476Y-94543619D01*
X109926095Y-94496000D01*
X110021333Y-94448380D01*
X110259428Y-94448380D01*
X110402285Y-94496000D01*
X110830857Y-95448380D02*
X110830857Y-94448380D01*
X103965714Y-92384571D02*
X103632380Y-92384571D01*
X103632380Y-92908380D02*
X103632380Y-91908380D01*
X104108571Y-91908380D01*
X105060952Y-92908380D02*
X104727619Y-92432190D01*
X104489523Y-92908380D02*
X104489523Y-91908380D01*
X104870476Y-91908380D01*
X104965714Y-91956000D01*
X105013333Y-92003619D01*
X105060952Y-92098857D01*
X105060952Y-92241714D01*
X105013333Y-92336952D01*
X104965714Y-92384571D01*
X104870476Y-92432190D01*
X104489523Y-92432190D01*
X105441904Y-92622666D02*
X105918095Y-92622666D01*
X105346666Y-92908380D02*
X105680000Y-91908380D01*
X106013333Y-92908380D01*
X106346666Y-92908380D02*
X106346666Y-91908380D01*
X106680000Y-92622666D01*
X107013333Y-91908380D01*
X107013333Y-92908380D01*
X108013333Y-91541000D02*
X109013333Y-91541000D01*
X108822857Y-92813142D02*
X108775238Y-92860761D01*
X108632380Y-92908380D01*
X108537142Y-92908380D01*
X108394285Y-92860761D01*
X108299047Y-92765523D01*
X108251428Y-92670285D01*
X108203809Y-92479809D01*
X108203809Y-92336952D01*
X108251428Y-92146476D01*
X108299047Y-92051238D01*
X108394285Y-91956000D01*
X108537142Y-91908380D01*
X108632380Y-91908380D01*
X108775238Y-91956000D01*
X108822857Y-92003619D01*
X109013333Y-91541000D02*
X109965714Y-91541000D01*
X109203809Y-92860761D02*
X109346666Y-92908380D01*
X109584761Y-92908380D01*
X109680000Y-92860761D01*
X109727619Y-92813142D01*
X109775238Y-92717904D01*
X109775238Y-92622666D01*
X109727619Y-92527428D01*
X109680000Y-92479809D01*
X109584761Y-92432190D01*
X109394285Y-92384571D01*
X109299047Y-92336952D01*
X109251428Y-92289333D01*
X109203809Y-92194095D01*
X109203809Y-92098857D01*
X109251428Y-92003619D01*
X109299047Y-91956000D01*
X109394285Y-91908380D01*
X109632380Y-91908380D01*
X109775238Y-91956000D01*
X103663904Y-121880380D02*
X104282952Y-121880380D01*
X103949619Y-122261333D01*
X104092476Y-122261333D01*
X104187714Y-122308952D01*
X104235333Y-122356571D01*
X104282952Y-122451809D01*
X104282952Y-122689904D01*
X104235333Y-122785142D01*
X104187714Y-122832761D01*
X104092476Y-122880380D01*
X103806761Y-122880380D01*
X103711523Y-122832761D01*
X103663904Y-122785142D01*
X104568666Y-121880380D02*
X104902000Y-122880380D01*
X105235333Y-121880380D01*
X105473428Y-121880380D02*
X106092476Y-121880380D01*
X105759142Y-122261333D01*
X105902000Y-122261333D01*
X105997238Y-122308952D01*
X106044857Y-122356571D01*
X106092476Y-122451809D01*
X106092476Y-122689904D01*
X106044857Y-122785142D01*
X105997238Y-122832761D01*
X105902000Y-122880380D01*
X105616285Y-122880380D01*
X105521047Y-122832761D01*
X105473428Y-122785142D01*
X103783285Y-119340380D02*
X103783285Y-120149904D01*
X103830904Y-120245142D01*
X103878523Y-120292761D01*
X103973761Y-120340380D01*
X104164238Y-120340380D01*
X104259476Y-120292761D01*
X104307095Y-120245142D01*
X104354714Y-120149904D01*
X104354714Y-119340380D01*
X104783285Y-120292761D02*
X104926142Y-120340380D01*
X105164238Y-120340380D01*
X105259476Y-120292761D01*
X105307095Y-120245142D01*
X105354714Y-120149904D01*
X105354714Y-120054666D01*
X105307095Y-119959428D01*
X105259476Y-119911809D01*
X105164238Y-119864190D01*
X104973761Y-119816571D01*
X104878523Y-119768952D01*
X104830904Y-119721333D01*
X104783285Y-119626095D01*
X104783285Y-119530857D01*
X104830904Y-119435619D01*
X104878523Y-119388000D01*
X104973761Y-119340380D01*
X105211857Y-119340380D01*
X105354714Y-119388000D01*
X105735666Y-120054666D02*
X106211857Y-120054666D01*
X105640428Y-120340380D02*
X105973761Y-119340380D01*
X106307095Y-120340380D01*
X107211857Y-120340380D02*
X106878523Y-119864190D01*
X106640428Y-120340380D02*
X106640428Y-119340380D01*
X107021380Y-119340380D01*
X107116619Y-119388000D01*
X107164238Y-119435619D01*
X107211857Y-119530857D01*
X107211857Y-119673714D01*
X107164238Y-119768952D01*
X107116619Y-119816571D01*
X107021380Y-119864190D01*
X106640428Y-119864190D01*
X107497571Y-119340380D02*
X108069000Y-119340380D01*
X107783285Y-120340380D02*
X107783285Y-119340380D01*
X108354714Y-119435619D02*
X108402333Y-119388000D01*
X108497571Y-119340380D01*
X108735666Y-119340380D01*
X108830904Y-119388000D01*
X108878523Y-119435619D01*
X108926142Y-119530857D01*
X108926142Y-119626095D01*
X108878523Y-119768952D01*
X108307095Y-120340380D01*
X108926142Y-120340380D01*
X109973761Y-119340380D02*
X110545190Y-119340380D01*
X110259476Y-120340380D02*
X110259476Y-119340380D01*
X110783285Y-119340380D02*
X111449952Y-120340380D01*
X111449952Y-119340380D02*
X110783285Y-120340380D01*
X103791238Y-116800380D02*
X103791238Y-117609904D01*
X103838857Y-117705142D01*
X103886476Y-117752761D01*
X103981714Y-117800380D01*
X104172190Y-117800380D01*
X104267428Y-117752761D01*
X104315047Y-117705142D01*
X104362666Y-117609904D01*
X104362666Y-116800380D01*
X104791238Y-117752761D02*
X104934095Y-117800380D01*
X105172190Y-117800380D01*
X105267428Y-117752761D01*
X105315047Y-117705142D01*
X105362666Y-117609904D01*
X105362666Y-117514666D01*
X105315047Y-117419428D01*
X105267428Y-117371809D01*
X105172190Y-117324190D01*
X104981714Y-117276571D01*
X104886476Y-117228952D01*
X104838857Y-117181333D01*
X104791238Y-117086095D01*
X104791238Y-116990857D01*
X104838857Y-116895619D01*
X104886476Y-116848000D01*
X104981714Y-116800380D01*
X105219809Y-116800380D01*
X105362666Y-116848000D01*
X105743619Y-117514666D02*
X106219809Y-117514666D01*
X105648380Y-117800380D02*
X105981714Y-116800380D01*
X106315047Y-117800380D01*
X107219809Y-117800380D02*
X106886476Y-117324190D01*
X106648380Y-117800380D02*
X106648380Y-116800380D01*
X107029333Y-116800380D01*
X107124571Y-116848000D01*
X107172190Y-116895619D01*
X107219809Y-116990857D01*
X107219809Y-117133714D01*
X107172190Y-117228952D01*
X107124571Y-117276571D01*
X107029333Y-117324190D01*
X106648380Y-117324190D01*
X107505523Y-116800380D02*
X108076952Y-116800380D01*
X107791238Y-117800380D02*
X107791238Y-116800380D01*
X108362666Y-116895619D02*
X108410285Y-116848000D01*
X108505523Y-116800380D01*
X108743619Y-116800380D01*
X108838857Y-116848000D01*
X108886476Y-116895619D01*
X108934095Y-116990857D01*
X108934095Y-117086095D01*
X108886476Y-117228952D01*
X108315047Y-117800380D01*
X108934095Y-117800380D01*
X110696000Y-117800380D02*
X110362666Y-117324190D01*
X110124571Y-117800380D02*
X110124571Y-116800380D01*
X110505523Y-116800380D01*
X110600761Y-116848000D01*
X110648380Y-116895619D01*
X110696000Y-116990857D01*
X110696000Y-117133714D01*
X110648380Y-117228952D01*
X110600761Y-117276571D01*
X110505523Y-117324190D01*
X110124571Y-117324190D01*
X111029333Y-116800380D02*
X111696000Y-117800380D01*
X111696000Y-116800380D02*
X111029333Y-117800380D01*
X104394095Y-114308000D02*
X104298857Y-114260380D01*
X104156000Y-114260380D01*
X104013142Y-114308000D01*
X103917904Y-114403238D01*
X103870285Y-114498476D01*
X103822666Y-114688952D01*
X103822666Y-114831809D01*
X103870285Y-115022285D01*
X103917904Y-115117523D01*
X104013142Y-115212761D01*
X104156000Y-115260380D01*
X104251238Y-115260380D01*
X104394095Y-115212761D01*
X104441714Y-115165142D01*
X104441714Y-114831809D01*
X104251238Y-114831809D01*
X104870285Y-115260380D02*
X104870285Y-114260380D01*
X105441714Y-115260380D01*
X105441714Y-114260380D01*
X105917904Y-115260380D02*
X105917904Y-114260380D01*
X106156000Y-114260380D01*
X106298857Y-114308000D01*
X106394095Y-114403238D01*
X106441714Y-114498476D01*
X106489333Y-114688952D01*
X106489333Y-114831809D01*
X106441714Y-115022285D01*
X106394095Y-115117523D01*
X106298857Y-115212761D01*
X106156000Y-115260380D01*
X105917904Y-115260380D01*
X143406761Y-142549142D02*
X143454380Y-142406285D01*
X143454380Y-142168190D01*
X143406761Y-142072952D01*
X143359142Y-142025333D01*
X143263904Y-141977714D01*
X143168666Y-141977714D01*
X143073428Y-142025333D01*
X143025809Y-142072952D01*
X142978190Y-142168190D01*
X142930571Y-142358666D01*
X142882952Y-142453904D01*
X142835333Y-142501523D01*
X142740095Y-142549142D01*
X142644857Y-142549142D01*
X142549619Y-142501523D01*
X142502000Y-142453904D01*
X142454380Y-142358666D01*
X142454380Y-142120571D01*
X142502000Y-141977714D01*
X143454380Y-141549142D02*
X142454380Y-141549142D01*
X142454380Y-141168190D01*
X142502000Y-141072952D01*
X142549619Y-141025333D01*
X142644857Y-140977714D01*
X142787714Y-140977714D01*
X142882952Y-141025333D01*
X142930571Y-141072952D01*
X142978190Y-141168190D01*
X142978190Y-141549142D01*
X143454380Y-140549142D02*
X142454380Y-140549142D01*
X143454380Y-139549142D02*
X143454380Y-140120571D01*
X143454380Y-139834857D02*
X142454380Y-139834857D01*
X142597238Y-139930095D01*
X142692476Y-140025333D01*
X142740095Y-140120571D01*
X143406761Y-138406285D02*
X143454380Y-138263428D01*
X143454380Y-138025333D01*
X143406761Y-137930095D01*
X143359142Y-137882476D01*
X143263904Y-137834857D01*
X143168666Y-137834857D01*
X143073428Y-137882476D01*
X143025809Y-137930095D01*
X142978190Y-138025333D01*
X142930571Y-138215809D01*
X142882952Y-138311047D01*
X142835333Y-138358666D01*
X142740095Y-138406285D01*
X142644857Y-138406285D01*
X142549619Y-138358666D01*
X142502000Y-138311047D01*
X142454380Y-138215809D01*
X142454380Y-137977714D01*
X142502000Y-137834857D01*
X143359142Y-136834857D02*
X143406761Y-136882476D01*
X143454380Y-137025333D01*
X143454380Y-137120571D01*
X143406761Y-137263428D01*
X143311523Y-137358666D01*
X143216285Y-137406285D01*
X143025809Y-137453904D01*
X142882952Y-137453904D01*
X142692476Y-137406285D01*
X142597238Y-137358666D01*
X142502000Y-137263428D01*
X142454380Y-137120571D01*
X142454380Y-137025333D01*
X142502000Y-136882476D01*
X142549619Y-136834857D01*
X143454380Y-136406285D02*
X142454380Y-136406285D01*
X143454380Y-135834857D02*
X142882952Y-136263428D01*
X142454380Y-135834857D02*
X143025809Y-136406285D01*
X140866761Y-142628476D02*
X140914380Y-142485619D01*
X140914380Y-142247523D01*
X140866761Y-142152285D01*
X140819142Y-142104666D01*
X140723904Y-142057047D01*
X140628666Y-142057047D01*
X140533428Y-142104666D01*
X140485809Y-142152285D01*
X140438190Y-142247523D01*
X140390571Y-142438000D01*
X140342952Y-142533238D01*
X140295333Y-142580857D01*
X140200095Y-142628476D01*
X140104857Y-142628476D01*
X140009619Y-142580857D01*
X139962000Y-142533238D01*
X139914380Y-142438000D01*
X139914380Y-142199904D01*
X139962000Y-142057047D01*
X140914380Y-141628476D02*
X139914380Y-141628476D01*
X139914380Y-141247523D01*
X139962000Y-141152285D01*
X140009619Y-141104666D01*
X140104857Y-141057047D01*
X140247714Y-141057047D01*
X140342952Y-141104666D01*
X140390571Y-141152285D01*
X140438190Y-141247523D01*
X140438190Y-141628476D01*
X140914380Y-140628476D02*
X139914380Y-140628476D01*
X140914380Y-139628476D02*
X140914380Y-140199904D01*
X140914380Y-139914190D02*
X139914380Y-139914190D01*
X140057238Y-140009428D01*
X140152476Y-140104666D01*
X140200095Y-140199904D01*
X140914380Y-138438000D02*
X139914380Y-138438000D01*
X140628666Y-138104666D01*
X139914380Y-137771333D01*
X140914380Y-137771333D01*
X140914380Y-137295142D02*
X139914380Y-137295142D01*
X140866761Y-136866571D02*
X140914380Y-136723714D01*
X140914380Y-136485619D01*
X140866761Y-136390380D01*
X140819142Y-136342761D01*
X140723904Y-136295142D01*
X140628666Y-136295142D01*
X140533428Y-136342761D01*
X140485809Y-136390380D01*
X140438190Y-136485619D01*
X140390571Y-136676095D01*
X140342952Y-136771333D01*
X140295333Y-136818952D01*
X140200095Y-136866571D01*
X140104857Y-136866571D01*
X140009619Y-136818952D01*
X139962000Y-136771333D01*
X139914380Y-136676095D01*
X139914380Y-136438000D01*
X139962000Y-136295142D01*
X139914380Y-135676095D02*
X139914380Y-135485619D01*
X139962000Y-135390380D01*
X140057238Y-135295142D01*
X140247714Y-135247523D01*
X140581047Y-135247523D01*
X140771523Y-135295142D01*
X140866761Y-135390380D01*
X140914380Y-135485619D01*
X140914380Y-135676095D01*
X140866761Y-135771333D01*
X140771523Y-135866571D01*
X140581047Y-135914190D01*
X140247714Y-135914190D01*
X140057238Y-135866571D01*
X139962000Y-135771333D01*
X139914380Y-135676095D01*
X138326761Y-142628476D02*
X138374380Y-142485619D01*
X138374380Y-142247523D01*
X138326761Y-142152285D01*
X138279142Y-142104666D01*
X138183904Y-142057047D01*
X138088666Y-142057047D01*
X137993428Y-142104666D01*
X137945809Y-142152285D01*
X137898190Y-142247523D01*
X137850571Y-142438000D01*
X137802952Y-142533238D01*
X137755333Y-142580857D01*
X137660095Y-142628476D01*
X137564857Y-142628476D01*
X137469619Y-142580857D01*
X137422000Y-142533238D01*
X137374380Y-142438000D01*
X137374380Y-142199904D01*
X137422000Y-142057047D01*
X138374380Y-141628476D02*
X137374380Y-141628476D01*
X137374380Y-141247523D01*
X137422000Y-141152285D01*
X137469619Y-141104666D01*
X137564857Y-141057047D01*
X137707714Y-141057047D01*
X137802952Y-141104666D01*
X137850571Y-141152285D01*
X137898190Y-141247523D01*
X137898190Y-141628476D01*
X138374380Y-140628476D02*
X137374380Y-140628476D01*
X138374380Y-139628476D02*
X138374380Y-140199904D01*
X138374380Y-139914190D02*
X137374380Y-139914190D01*
X137517238Y-140009428D01*
X137612476Y-140104666D01*
X137660095Y-140199904D01*
X138374380Y-138438000D02*
X137374380Y-138438000D01*
X138088666Y-138104666D01*
X137374380Y-137771333D01*
X138374380Y-137771333D01*
X137374380Y-137104666D02*
X137374380Y-136914190D01*
X137422000Y-136818952D01*
X137517238Y-136723714D01*
X137707714Y-136676095D01*
X138041047Y-136676095D01*
X138231523Y-136723714D01*
X138326761Y-136818952D01*
X138374380Y-136914190D01*
X138374380Y-137104666D01*
X138326761Y-137199904D01*
X138231523Y-137295142D01*
X138041047Y-137342761D01*
X137707714Y-137342761D01*
X137517238Y-137295142D01*
X137422000Y-137199904D01*
X137374380Y-137104666D01*
X138326761Y-136295142D02*
X138374380Y-136152285D01*
X138374380Y-135914190D01*
X138326761Y-135818952D01*
X138279142Y-135771333D01*
X138183904Y-135723714D01*
X138088666Y-135723714D01*
X137993428Y-135771333D01*
X137945809Y-135818952D01*
X137898190Y-135914190D01*
X137850571Y-136104666D01*
X137802952Y-136199904D01*
X137755333Y-136247523D01*
X137660095Y-136295142D01*
X137564857Y-136295142D01*
X137469619Y-136247523D01*
X137422000Y-136199904D01*
X137374380Y-136104666D01*
X137374380Y-135866571D01*
X137422000Y-135723714D01*
X138374380Y-135295142D02*
X137374380Y-135295142D01*
X135310571Y-142184095D02*
X135358190Y-142041238D01*
X135405809Y-141993619D01*
X135501047Y-141946000D01*
X135643904Y-141946000D01*
X135739142Y-141993619D01*
X135786761Y-142041238D01*
X135834380Y-142136476D01*
X135834380Y-142517428D01*
X134834380Y-142517428D01*
X134834380Y-142184095D01*
X134882000Y-142088857D01*
X134929619Y-142041238D01*
X135024857Y-141993619D01*
X135120095Y-141993619D01*
X135215333Y-142041238D01*
X135262952Y-142088857D01*
X135310571Y-142184095D01*
X135310571Y-142517428D01*
X135548666Y-141565047D02*
X135548666Y-141088857D01*
X135834380Y-141660285D02*
X134834380Y-141326952D01*
X135834380Y-140993619D01*
X135834380Y-140088857D02*
X135358190Y-140422190D01*
X135834380Y-140660285D02*
X134834380Y-140660285D01*
X134834380Y-140279333D01*
X134882000Y-140184095D01*
X134929619Y-140136476D01*
X135024857Y-140088857D01*
X135167714Y-140088857D01*
X135262952Y-140136476D01*
X135310571Y-140184095D01*
X135358190Y-140279333D01*
X135358190Y-140660285D01*
X134834380Y-139469809D02*
X134834380Y-139279333D01*
X134882000Y-139184095D01*
X134977238Y-139088857D01*
X135167714Y-139041238D01*
X135501047Y-139041238D01*
X135691523Y-139088857D01*
X135786761Y-139184095D01*
X135834380Y-139279333D01*
X135834380Y-139469809D01*
X135786761Y-139565047D01*
X135691523Y-139660285D01*
X135501047Y-139707904D01*
X135167714Y-139707904D01*
X134977238Y-139660285D01*
X134882000Y-139565047D01*
X134834380Y-139469809D01*
X135739142Y-137279333D02*
X135786761Y-137326952D01*
X135834380Y-137469809D01*
X135834380Y-137565047D01*
X135786761Y-137707904D01*
X135691523Y-137803142D01*
X135596285Y-137850761D01*
X135405809Y-137898380D01*
X135262952Y-137898380D01*
X135072476Y-137850761D01*
X134977238Y-137803142D01*
X134882000Y-137707904D01*
X134834380Y-137565047D01*
X134834380Y-137469809D01*
X134882000Y-137326952D01*
X134929619Y-137279333D01*
X135786761Y-136898380D02*
X135834380Y-136755523D01*
X135834380Y-136517428D01*
X135786761Y-136422190D01*
X135739142Y-136374571D01*
X135643904Y-136326952D01*
X135548666Y-136326952D01*
X135453428Y-136374571D01*
X135405809Y-136422190D01*
X135358190Y-136517428D01*
X135310571Y-136707904D01*
X135262952Y-136803142D01*
X135215333Y-136850761D01*
X135120095Y-136898380D01*
X135024857Y-136898380D01*
X134929619Y-136850761D01*
X134882000Y-136803142D01*
X134834380Y-136707904D01*
X134834380Y-136469809D01*
X134882000Y-136326952D01*
X132342000Y-141930000D02*
X132294380Y-142025238D01*
X132294380Y-142168095D01*
X132342000Y-142310952D01*
X132437238Y-142406190D01*
X132532476Y-142453809D01*
X132722952Y-142501428D01*
X132865809Y-142501428D01*
X133056285Y-142453809D01*
X133151523Y-142406190D01*
X133246761Y-142310952D01*
X133294380Y-142168095D01*
X133294380Y-142072857D01*
X133246761Y-141930000D01*
X133199142Y-141882380D01*
X132865809Y-141882380D01*
X132865809Y-142072857D01*
X132818190Y-141263333D02*
X133294380Y-141263333D01*
X132294380Y-141596666D02*
X132818190Y-141263333D01*
X132294380Y-140930000D01*
X133294380Y-140025238D02*
X132818190Y-140358571D01*
X133294380Y-140596666D02*
X132294380Y-140596666D01*
X132294380Y-140215714D01*
X132342000Y-140120476D01*
X132389619Y-140072857D01*
X132484857Y-140025238D01*
X132627714Y-140025238D01*
X132722952Y-140072857D01*
X132770571Y-140120476D01*
X132818190Y-140215714D01*
X132818190Y-140596666D01*
X132294380Y-139406190D02*
X132294380Y-139215714D01*
X132342000Y-139120476D01*
X132437238Y-139025238D01*
X132627714Y-138977619D01*
X132961047Y-138977619D01*
X133151523Y-139025238D01*
X133246761Y-139120476D01*
X133294380Y-139215714D01*
X133294380Y-139406190D01*
X133246761Y-139501428D01*
X133151523Y-139596666D01*
X132961047Y-139644285D01*
X132627714Y-139644285D01*
X132437238Y-139596666D01*
X132342000Y-139501428D01*
X132294380Y-139406190D01*
X133294380Y-137787142D02*
X132294380Y-137787142D01*
X132294380Y-137549047D01*
X132342000Y-137406190D01*
X132437238Y-137310952D01*
X132532476Y-137263333D01*
X132722952Y-137215714D01*
X132865809Y-137215714D01*
X133056285Y-137263333D01*
X133151523Y-137310952D01*
X133246761Y-137406190D01*
X133294380Y-137549047D01*
X133294380Y-137787142D01*
X133294380Y-136215714D02*
X132818190Y-136549047D01*
X133294380Y-136787142D02*
X132294380Y-136787142D01*
X132294380Y-136406190D01*
X132342000Y-136310952D01*
X132389619Y-136263333D01*
X132484857Y-136215714D01*
X132627714Y-136215714D01*
X132722952Y-136263333D01*
X132770571Y-136310952D01*
X132818190Y-136406190D01*
X132818190Y-136787142D01*
X133294380Y-135787142D02*
X132294380Y-135787142D01*
X132294380Y-135549047D01*
X132342000Y-135406190D01*
X132437238Y-135310952D01*
X132532476Y-135263333D01*
X132722952Y-135215714D01*
X132865809Y-135215714D01*
X133056285Y-135263333D01*
X133151523Y-135310952D01*
X133246761Y-135406190D01*
X133294380Y-135549047D01*
X133294380Y-135787142D01*
X132818190Y-134596666D02*
X133294380Y-134596666D01*
X132294380Y-134930000D02*
X132818190Y-134596666D01*
X132294380Y-134263333D01*
X129802000Y-141993619D02*
X129754380Y-142088857D01*
X129754380Y-142231714D01*
X129802000Y-142374571D01*
X129897238Y-142469809D01*
X129992476Y-142517428D01*
X130182952Y-142565047D01*
X130325809Y-142565047D01*
X130516285Y-142517428D01*
X130611523Y-142469809D01*
X130706761Y-142374571D01*
X130754380Y-142231714D01*
X130754380Y-142136476D01*
X130706761Y-141993619D01*
X130659142Y-141946000D01*
X130325809Y-141946000D01*
X130325809Y-142136476D01*
X130278190Y-141326952D02*
X130754380Y-141326952D01*
X129754380Y-141660285D02*
X130278190Y-141326952D01*
X129754380Y-140993619D01*
X130754380Y-140088857D02*
X130278190Y-140422190D01*
X130754380Y-140660285D02*
X129754380Y-140660285D01*
X129754380Y-140279333D01*
X129802000Y-140184095D01*
X129849619Y-140136476D01*
X129944857Y-140088857D01*
X130087714Y-140088857D01*
X130182952Y-140136476D01*
X130230571Y-140184095D01*
X130278190Y-140279333D01*
X130278190Y-140660285D01*
X129754380Y-139469809D02*
X129754380Y-139279333D01*
X129802000Y-139184095D01*
X129897238Y-139088857D01*
X130087714Y-139041238D01*
X130421047Y-139041238D01*
X130611523Y-139088857D01*
X130706761Y-139184095D01*
X130754380Y-139279333D01*
X130754380Y-139469809D01*
X130706761Y-139565047D01*
X130611523Y-139660285D01*
X130421047Y-139707904D01*
X130087714Y-139707904D01*
X129897238Y-139660285D01*
X129802000Y-139565047D01*
X129754380Y-139469809D01*
X130659142Y-137279333D02*
X130706761Y-137326952D01*
X130754380Y-137469809D01*
X130754380Y-137565047D01*
X130706761Y-137707904D01*
X130611523Y-137803142D01*
X130516285Y-137850761D01*
X130325809Y-137898380D01*
X130182952Y-137898380D01*
X129992476Y-137850761D01*
X129897238Y-137803142D01*
X129802000Y-137707904D01*
X129754380Y-137565047D01*
X129754380Y-137469809D01*
X129802000Y-137326952D01*
X129849619Y-137279333D01*
X130706761Y-136898380D02*
X130754380Y-136755523D01*
X130754380Y-136517428D01*
X130706761Y-136422190D01*
X130659142Y-136374571D01*
X130563904Y-136326952D01*
X130468666Y-136326952D01*
X130373428Y-136374571D01*
X130325809Y-136422190D01*
X130278190Y-136517428D01*
X130230571Y-136707904D01*
X130182952Y-136803142D01*
X130135333Y-136850761D01*
X130040095Y-136898380D01*
X129944857Y-136898380D01*
X129849619Y-136850761D01*
X129802000Y-136803142D01*
X129754380Y-136707904D01*
X129754380Y-136469809D01*
X129802000Y-136326952D01*
X127928666Y-142644380D02*
X127928666Y-142168190D01*
X128214380Y-142739619D02*
X127214380Y-142406285D01*
X128214380Y-142072952D01*
X128119142Y-141168190D02*
X128166761Y-141215809D01*
X128214380Y-141358666D01*
X128214380Y-141453904D01*
X128166761Y-141596761D01*
X128071523Y-141692000D01*
X127976285Y-141739619D01*
X127785809Y-141787238D01*
X127642952Y-141787238D01*
X127452476Y-141739619D01*
X127357238Y-141692000D01*
X127262000Y-141596761D01*
X127214380Y-141453904D01*
X127214380Y-141358666D01*
X127262000Y-141215809D01*
X127309619Y-141168190D01*
X128119142Y-140168190D02*
X128166761Y-140215809D01*
X128214380Y-140358666D01*
X128214380Y-140453904D01*
X128166761Y-140596761D01*
X128071523Y-140692000D01*
X127976285Y-140739619D01*
X127785809Y-140787238D01*
X127642952Y-140787238D01*
X127452476Y-140739619D01*
X127357238Y-140692000D01*
X127262000Y-140596761D01*
X127214380Y-140453904D01*
X127214380Y-140358666D01*
X127262000Y-140215809D01*
X127309619Y-140168190D01*
X127690571Y-139739619D02*
X127690571Y-139406285D01*
X128214380Y-139263428D02*
X128214380Y-139739619D01*
X127214380Y-139739619D01*
X127214380Y-139263428D01*
X128214380Y-138358666D02*
X128214380Y-138834857D01*
X127214380Y-138834857D01*
X128119142Y-136692000D02*
X128166761Y-136739619D01*
X128214380Y-136882476D01*
X128214380Y-136977714D01*
X128166761Y-137120571D01*
X128071523Y-137215809D01*
X127976285Y-137263428D01*
X127785809Y-137311047D01*
X127642952Y-137311047D01*
X127452476Y-137263428D01*
X127357238Y-137215809D01*
X127262000Y-137120571D01*
X127214380Y-136977714D01*
X127214380Y-136882476D01*
X127262000Y-136739619D01*
X127309619Y-136692000D01*
X128166761Y-136311047D02*
X128214380Y-136168190D01*
X128214380Y-135930095D01*
X128166761Y-135834857D01*
X128119142Y-135787238D01*
X128023904Y-135739619D01*
X127928666Y-135739619D01*
X127833428Y-135787238D01*
X127785809Y-135834857D01*
X127738190Y-135930095D01*
X127690571Y-136120571D01*
X127642952Y-136215809D01*
X127595333Y-136263428D01*
X127500095Y-136311047D01*
X127404857Y-136311047D01*
X127309619Y-136263428D01*
X127262000Y-136215809D01*
X127214380Y-136120571D01*
X127214380Y-135882476D01*
X127262000Y-135739619D01*
X125388666Y-142580761D02*
X125388666Y-142104571D01*
X125674380Y-142676000D02*
X124674380Y-142342666D01*
X125674380Y-142009333D01*
X125579142Y-141104571D02*
X125626761Y-141152190D01*
X125674380Y-141295047D01*
X125674380Y-141390285D01*
X125626761Y-141533142D01*
X125531523Y-141628380D01*
X125436285Y-141676000D01*
X125245809Y-141723619D01*
X125102952Y-141723619D01*
X124912476Y-141676000D01*
X124817238Y-141628380D01*
X124722000Y-141533142D01*
X124674380Y-141390285D01*
X124674380Y-141295047D01*
X124722000Y-141152190D01*
X124769619Y-141104571D01*
X125579142Y-140104571D02*
X125626761Y-140152190D01*
X125674380Y-140295047D01*
X125674380Y-140390285D01*
X125626761Y-140533142D01*
X125531523Y-140628380D01*
X125436285Y-140676000D01*
X125245809Y-140723619D01*
X125102952Y-140723619D01*
X124912476Y-140676000D01*
X124817238Y-140628380D01*
X124722000Y-140533142D01*
X124674380Y-140390285D01*
X124674380Y-140295047D01*
X124722000Y-140152190D01*
X124769619Y-140104571D01*
X125150571Y-139676000D02*
X125150571Y-139342666D01*
X125674380Y-139199809D02*
X125674380Y-139676000D01*
X124674380Y-139676000D01*
X124674380Y-139199809D01*
X125674380Y-138295047D02*
X125674380Y-138771238D01*
X124674380Y-138771238D01*
X125674380Y-137199809D02*
X124674380Y-137199809D01*
X124674380Y-136961714D01*
X124722000Y-136818857D01*
X124817238Y-136723619D01*
X124912476Y-136676000D01*
X125102952Y-136628380D01*
X125245809Y-136628380D01*
X125436285Y-136676000D01*
X125531523Y-136723619D01*
X125626761Y-136818857D01*
X125674380Y-136961714D01*
X125674380Y-137199809D01*
X125674380Y-135628380D02*
X125198190Y-135961714D01*
X125674380Y-136199809D02*
X124674380Y-136199809D01*
X124674380Y-135818857D01*
X124722000Y-135723619D01*
X124769619Y-135676000D01*
X124864857Y-135628380D01*
X125007714Y-135628380D01*
X125102952Y-135676000D01*
X125150571Y-135723619D01*
X125198190Y-135818857D01*
X125198190Y-136199809D01*
X125674380Y-135199809D02*
X124674380Y-135199809D01*
X124674380Y-134961714D01*
X124722000Y-134818857D01*
X124817238Y-134723619D01*
X124912476Y-134676000D01*
X125102952Y-134628380D01*
X125245809Y-134628380D01*
X125436285Y-134676000D01*
X125531523Y-134723619D01*
X125626761Y-134818857D01*
X125674380Y-134961714D01*
X125674380Y-135199809D01*
X125198190Y-134009333D02*
X125674380Y-134009333D01*
X124674380Y-134342666D02*
X125198190Y-134009333D01*
X124674380Y-133676000D01*
X123134380Y-142573047D02*
X122134380Y-142573047D01*
X122848666Y-142239714D01*
X122134380Y-141906380D01*
X123134380Y-141906380D01*
X122848666Y-141477809D02*
X122848666Y-141001619D01*
X123134380Y-141573047D02*
X122134380Y-141239714D01*
X123134380Y-140906380D01*
X122182000Y-140049238D02*
X122134380Y-140144476D01*
X122134380Y-140287333D01*
X122182000Y-140430190D01*
X122277238Y-140525428D01*
X122372476Y-140573047D01*
X122562952Y-140620666D01*
X122705809Y-140620666D01*
X122896285Y-140573047D01*
X122991523Y-140525428D01*
X123086761Y-140430190D01*
X123134380Y-140287333D01*
X123134380Y-140192095D01*
X123086761Y-140049238D01*
X123039142Y-140001619D01*
X122705809Y-140001619D01*
X122705809Y-140192095D01*
X123039142Y-138239714D02*
X123086761Y-138287333D01*
X123134380Y-138430190D01*
X123134380Y-138525428D01*
X123086761Y-138668285D01*
X122991523Y-138763523D01*
X122896285Y-138811142D01*
X122705809Y-138858761D01*
X122562952Y-138858761D01*
X122372476Y-138811142D01*
X122277238Y-138763523D01*
X122182000Y-138668285D01*
X122134380Y-138525428D01*
X122134380Y-138430190D01*
X122182000Y-138287333D01*
X122229619Y-138239714D01*
X123086761Y-137858761D02*
X123134380Y-137715904D01*
X123134380Y-137477809D01*
X123086761Y-137382571D01*
X123039142Y-137334952D01*
X122943904Y-137287333D01*
X122848666Y-137287333D01*
X122753428Y-137334952D01*
X122705809Y-137382571D01*
X122658190Y-137477809D01*
X122610571Y-137668285D01*
X122562952Y-137763523D01*
X122515333Y-137811142D01*
X122420095Y-137858761D01*
X122324857Y-137858761D01*
X122229619Y-137811142D01*
X122182000Y-137763523D01*
X122134380Y-137668285D01*
X122134380Y-137430190D01*
X122182000Y-137287333D01*
X120594380Y-142509428D02*
X119594380Y-142509428D01*
X120308666Y-142176095D01*
X119594380Y-141842761D01*
X120594380Y-141842761D01*
X120308666Y-141414190D02*
X120308666Y-140938000D01*
X120594380Y-141509428D02*
X119594380Y-141176095D01*
X120594380Y-140842761D01*
X119642000Y-139985619D02*
X119594380Y-140080857D01*
X119594380Y-140223714D01*
X119642000Y-140366571D01*
X119737238Y-140461809D01*
X119832476Y-140509428D01*
X120022952Y-140557047D01*
X120165809Y-140557047D01*
X120356285Y-140509428D01*
X120451523Y-140461809D01*
X120546761Y-140366571D01*
X120594380Y-140223714D01*
X120594380Y-140128476D01*
X120546761Y-139985619D01*
X120499142Y-139938000D01*
X120165809Y-139938000D01*
X120165809Y-140128476D01*
X120594380Y-138747523D02*
X119594380Y-138747523D01*
X119594380Y-138509428D01*
X119642000Y-138366571D01*
X119737238Y-138271333D01*
X119832476Y-138223714D01*
X120022952Y-138176095D01*
X120165809Y-138176095D01*
X120356285Y-138223714D01*
X120451523Y-138271333D01*
X120546761Y-138366571D01*
X120594380Y-138509428D01*
X120594380Y-138747523D01*
X120594380Y-137176095D02*
X120118190Y-137509428D01*
X120594380Y-137747523D02*
X119594380Y-137747523D01*
X119594380Y-137366571D01*
X119642000Y-137271333D01*
X119689619Y-137223714D01*
X119784857Y-137176095D01*
X119927714Y-137176095D01*
X120022952Y-137223714D01*
X120070571Y-137271333D01*
X120118190Y-137366571D01*
X120118190Y-137747523D01*
X120594380Y-136747523D02*
X119594380Y-136747523D01*
X119594380Y-136509428D01*
X119642000Y-136366571D01*
X119737238Y-136271333D01*
X119832476Y-136223714D01*
X120022952Y-136176095D01*
X120165809Y-136176095D01*
X120356285Y-136223714D01*
X120451523Y-136271333D01*
X120546761Y-136366571D01*
X120594380Y-136509428D01*
X120594380Y-136747523D01*
X120118190Y-135557047D02*
X120594380Y-135557047D01*
X119594380Y-135890380D02*
X120118190Y-135557047D01*
X119594380Y-135223714D01*
X170973904Y-135326380D02*
X170973904Y-134326380D01*
X171354857Y-134326380D01*
X171450095Y-134374000D01*
X171497714Y-134421619D01*
X171545333Y-134516857D01*
X171545333Y-134659714D01*
X171497714Y-134754952D01*
X171450095Y-134802571D01*
X171354857Y-134850190D01*
X170973904Y-134850190D01*
X172545333Y-135231142D02*
X172497714Y-135278761D01*
X172354857Y-135326380D01*
X172259619Y-135326380D01*
X172116761Y-135278761D01*
X172021523Y-135183523D01*
X171973904Y-135088285D01*
X171926285Y-134897809D01*
X171926285Y-134754952D01*
X171973904Y-134564476D01*
X172021523Y-134469238D01*
X172116761Y-134374000D01*
X172259619Y-134326380D01*
X172354857Y-134326380D01*
X172497714Y-134374000D01*
X172545333Y-134421619D01*
X173497714Y-135326380D02*
X172926285Y-135326380D01*
X173212000Y-135326380D02*
X173212000Y-134326380D01*
X173116761Y-134469238D01*
X173021523Y-134564476D01*
X172926285Y-134612095D01*
X170973904Y-132786380D02*
X170973904Y-131786380D01*
X171354857Y-131786380D01*
X171450095Y-131834000D01*
X171497714Y-131881619D01*
X171545333Y-131976857D01*
X171545333Y-132119714D01*
X171497714Y-132214952D01*
X171450095Y-132262571D01*
X171354857Y-132310190D01*
X170973904Y-132310190D01*
X172545333Y-132691142D02*
X172497714Y-132738761D01*
X172354857Y-132786380D01*
X172259619Y-132786380D01*
X172116761Y-132738761D01*
X172021523Y-132643523D01*
X171973904Y-132548285D01*
X171926285Y-132357809D01*
X171926285Y-132214952D01*
X171973904Y-132024476D01*
X172021523Y-131929238D01*
X172116761Y-131834000D01*
X172259619Y-131786380D01*
X172354857Y-131786380D01*
X172497714Y-131834000D01*
X172545333Y-131881619D01*
X173164380Y-131786380D02*
X173259619Y-131786380D01*
X173354857Y-131834000D01*
X173402476Y-131881619D01*
X173450095Y-131976857D01*
X173497714Y-132167333D01*
X173497714Y-132405428D01*
X173450095Y-132595904D01*
X173402476Y-132691142D01*
X173354857Y-132738761D01*
X173259619Y-132786380D01*
X173164380Y-132786380D01*
X173069142Y-132738761D01*
X173021523Y-132691142D01*
X172973904Y-132595904D01*
X172926285Y-132405428D01*
X172926285Y-132167333D01*
X172973904Y-131976857D01*
X173021523Y-131881619D01*
X173069142Y-131834000D01*
X173164380Y-131786380D01*
X169989714Y-130246380D02*
X169989714Y-129246380D01*
X170370666Y-129246380D01*
X170465904Y-129294000D01*
X170513523Y-129341619D01*
X170561142Y-129436857D01*
X170561142Y-129579714D01*
X170513523Y-129674952D01*
X170465904Y-129722571D01*
X170370666Y-129770190D01*
X169989714Y-129770190D01*
X171323047Y-129722571D02*
X171465904Y-129770190D01*
X171513523Y-129817809D01*
X171561142Y-129913047D01*
X171561142Y-130055904D01*
X171513523Y-130151142D01*
X171465904Y-130198761D01*
X171370666Y-130246380D01*
X170989714Y-130246380D01*
X170989714Y-129246380D01*
X171323047Y-129246380D01*
X171418285Y-129294000D01*
X171465904Y-129341619D01*
X171513523Y-129436857D01*
X171513523Y-129532095D01*
X171465904Y-129627333D01*
X171418285Y-129674952D01*
X171323047Y-129722571D01*
X170989714Y-129722571D01*
X172513523Y-130246380D02*
X171942095Y-130246380D01*
X172227809Y-130246380D02*
X172227809Y-129246380D01*
X172132571Y-129389238D01*
X172037333Y-129484476D01*
X171942095Y-129532095D01*
X172846857Y-129246380D02*
X173465904Y-129246380D01*
X173132571Y-129627333D01*
X173275428Y-129627333D01*
X173370666Y-129674952D01*
X173418285Y-129722571D01*
X173465904Y-129817809D01*
X173465904Y-130055904D01*
X173418285Y-130151142D01*
X173370666Y-130198761D01*
X173275428Y-130246380D01*
X172989714Y-130246380D01*
X172894476Y-130198761D01*
X172846857Y-130151142D01*
X170973904Y-127706380D02*
X170973904Y-126706380D01*
X171354857Y-126706380D01*
X171450095Y-126754000D01*
X171497714Y-126801619D01*
X171545333Y-126896857D01*
X171545333Y-127039714D01*
X171497714Y-127134952D01*
X171450095Y-127182571D01*
X171354857Y-127230190D01*
X170973904Y-127230190D01*
X172545333Y-127611142D02*
X172497714Y-127658761D01*
X172354857Y-127706380D01*
X172259619Y-127706380D01*
X172116761Y-127658761D01*
X172021523Y-127563523D01*
X171973904Y-127468285D01*
X171926285Y-127277809D01*
X171926285Y-127134952D01*
X171973904Y-126944476D01*
X172021523Y-126849238D01*
X172116761Y-126754000D01*
X172259619Y-126706380D01*
X172354857Y-126706380D01*
X172497714Y-126754000D01*
X172545333Y-126801619D01*
X173402476Y-126706380D02*
X173212000Y-126706380D01*
X173116761Y-126754000D01*
X173069142Y-126801619D01*
X172973904Y-126944476D01*
X172926285Y-127134952D01*
X172926285Y-127515904D01*
X172973904Y-127611142D01*
X173021523Y-127658761D01*
X173116761Y-127706380D01*
X173307238Y-127706380D01*
X173402476Y-127658761D01*
X173450095Y-127611142D01*
X173497714Y-127515904D01*
X173497714Y-127277809D01*
X173450095Y-127182571D01*
X173402476Y-127134952D01*
X173307238Y-127087333D01*
X173116761Y-127087333D01*
X173021523Y-127134952D01*
X172973904Y-127182571D01*
X172926285Y-127277809D01*
X170973904Y-125166380D02*
X170973904Y-124166380D01*
X171354857Y-124166380D01*
X171450095Y-124214000D01*
X171497714Y-124261619D01*
X171545333Y-124356857D01*
X171545333Y-124499714D01*
X171497714Y-124594952D01*
X171450095Y-124642571D01*
X171354857Y-124690190D01*
X170973904Y-124690190D01*
X172545333Y-125071142D02*
X172497714Y-125118761D01*
X172354857Y-125166380D01*
X172259619Y-125166380D01*
X172116761Y-125118761D01*
X172021523Y-125023523D01*
X171973904Y-124928285D01*
X171926285Y-124737809D01*
X171926285Y-124594952D01*
X171973904Y-124404476D01*
X172021523Y-124309238D01*
X172116761Y-124214000D01*
X172259619Y-124166380D01*
X172354857Y-124166380D01*
X172497714Y-124214000D01*
X172545333Y-124261619D01*
X172878666Y-124166380D02*
X173545333Y-124166380D01*
X173116761Y-125166380D01*
X170973904Y-122626380D02*
X170973904Y-121626380D01*
X171354857Y-121626380D01*
X171450095Y-121674000D01*
X171497714Y-121721619D01*
X171545333Y-121816857D01*
X171545333Y-121959714D01*
X171497714Y-122054952D01*
X171450095Y-122102571D01*
X171354857Y-122150190D01*
X170973904Y-122150190D01*
X172307238Y-122102571D02*
X172450095Y-122150190D01*
X172497714Y-122197809D01*
X172545333Y-122293047D01*
X172545333Y-122435904D01*
X172497714Y-122531142D01*
X172450095Y-122578761D01*
X172354857Y-122626380D01*
X171973904Y-122626380D01*
X171973904Y-121626380D01*
X172307238Y-121626380D01*
X172402476Y-121674000D01*
X172450095Y-121721619D01*
X172497714Y-121816857D01*
X172497714Y-121912095D01*
X172450095Y-122007333D01*
X172402476Y-122054952D01*
X172307238Y-122102571D01*
X171973904Y-122102571D01*
X173164380Y-121626380D02*
X173259619Y-121626380D01*
X173354857Y-121674000D01*
X173402476Y-121721619D01*
X173450095Y-121816857D01*
X173497714Y-122007333D01*
X173497714Y-122245428D01*
X173450095Y-122435904D01*
X173402476Y-122531142D01*
X173354857Y-122578761D01*
X173259619Y-122626380D01*
X173164380Y-122626380D01*
X173069142Y-122578761D01*
X173021523Y-122531142D01*
X172973904Y-122435904D01*
X172926285Y-122245428D01*
X172926285Y-122007333D01*
X172973904Y-121816857D01*
X173021523Y-121721619D01*
X173069142Y-121674000D01*
X173164380Y-121626380D01*
X170973904Y-120086380D02*
X170973904Y-119086380D01*
X171354857Y-119086380D01*
X171450095Y-119134000D01*
X171497714Y-119181619D01*
X171545333Y-119276857D01*
X171545333Y-119419714D01*
X171497714Y-119514952D01*
X171450095Y-119562571D01*
X171354857Y-119610190D01*
X170973904Y-119610190D01*
X172307238Y-119562571D02*
X172450095Y-119610190D01*
X172497714Y-119657809D01*
X172545333Y-119753047D01*
X172545333Y-119895904D01*
X172497714Y-119991142D01*
X172450095Y-120038761D01*
X172354857Y-120086380D01*
X171973904Y-120086380D01*
X171973904Y-119086380D01*
X172307238Y-119086380D01*
X172402476Y-119134000D01*
X172450095Y-119181619D01*
X172497714Y-119276857D01*
X172497714Y-119372095D01*
X172450095Y-119467333D01*
X172402476Y-119514952D01*
X172307238Y-119562571D01*
X171973904Y-119562571D01*
X173497714Y-120086380D02*
X172926285Y-120086380D01*
X173212000Y-120086380D02*
X173212000Y-119086380D01*
X173116761Y-119229238D01*
X173021523Y-119324476D01*
X172926285Y-119372095D01*
X171045333Y-117546380D02*
X171045333Y-116546380D01*
X171426285Y-116546380D01*
X171521523Y-116594000D01*
X171569142Y-116641619D01*
X171616761Y-116736857D01*
X171616761Y-116879714D01*
X171569142Y-116974952D01*
X171521523Y-117022571D01*
X171426285Y-117070190D01*
X171045333Y-117070190D01*
X171997714Y-117260666D02*
X172473904Y-117260666D01*
X171902476Y-117546380D02*
X172235809Y-116546380D01*
X172569142Y-117546380D01*
X173045333Y-116974952D02*
X172950095Y-116927333D01*
X172902476Y-116879714D01*
X172854857Y-116784476D01*
X172854857Y-116736857D01*
X172902476Y-116641619D01*
X172950095Y-116594000D01*
X173045333Y-116546380D01*
X173235809Y-116546380D01*
X173331047Y-116594000D01*
X173378666Y-116641619D01*
X173426285Y-116736857D01*
X173426285Y-116784476D01*
X173378666Y-116879714D01*
X173331047Y-116927333D01*
X173235809Y-116974952D01*
X173045333Y-116974952D01*
X172950095Y-117022571D01*
X172902476Y-117070190D01*
X172854857Y-117165428D01*
X172854857Y-117355904D01*
X172902476Y-117451142D01*
X172950095Y-117498761D01*
X173045333Y-117546380D01*
X173235809Y-117546380D01*
X173331047Y-117498761D01*
X173378666Y-117451142D01*
X173426285Y-117355904D01*
X173426285Y-117165428D01*
X173378666Y-117070190D01*
X173331047Y-117022571D01*
X173235809Y-116974952D01*
X170061142Y-115006380D02*
X170061142Y-114006380D01*
X170442095Y-114006380D01*
X170537333Y-114054000D01*
X170584952Y-114101619D01*
X170632571Y-114196857D01*
X170632571Y-114339714D01*
X170584952Y-114434952D01*
X170537333Y-114482571D01*
X170442095Y-114530190D01*
X170061142Y-114530190D01*
X171013523Y-114720666D02*
X171489714Y-114720666D01*
X170918285Y-115006380D02*
X171251619Y-114006380D01*
X171584952Y-115006380D01*
X172442095Y-115006380D02*
X171870666Y-115006380D01*
X172156380Y-115006380D02*
X172156380Y-114006380D01*
X172061142Y-114149238D01*
X171965904Y-114244476D01*
X171870666Y-114292095D01*
X173061142Y-114006380D02*
X173156380Y-114006380D01*
X173251619Y-114054000D01*
X173299238Y-114101619D01*
X173346857Y-114196857D01*
X173394476Y-114387333D01*
X173394476Y-114625428D01*
X173346857Y-114815904D01*
X173299238Y-114911142D01*
X173251619Y-114958761D01*
X173156380Y-115006380D01*
X173061142Y-115006380D01*
X172965904Y-114958761D01*
X172918285Y-114911142D01*
X172870666Y-114815904D01*
X172823047Y-114625428D01*
X172823047Y-114387333D01*
X172870666Y-114196857D01*
X172918285Y-114101619D01*
X172965904Y-114054000D01*
X173061142Y-114006380D01*
X170061142Y-112466380D02*
X170061142Y-111466380D01*
X170442095Y-111466380D01*
X170537333Y-111514000D01*
X170584952Y-111561619D01*
X170632571Y-111656857D01*
X170632571Y-111799714D01*
X170584952Y-111894952D01*
X170537333Y-111942571D01*
X170442095Y-111990190D01*
X170061142Y-111990190D01*
X171013523Y-112180666D02*
X171489714Y-112180666D01*
X170918285Y-112466380D02*
X171251619Y-111466380D01*
X171584952Y-112466380D01*
X172442095Y-112466380D02*
X171870666Y-112466380D01*
X172156380Y-112466380D02*
X172156380Y-111466380D01*
X172061142Y-111609238D01*
X171965904Y-111704476D01*
X171870666Y-111752095D01*
X173346857Y-111466380D02*
X172870666Y-111466380D01*
X172823047Y-111942571D01*
X172870666Y-111894952D01*
X172965904Y-111847333D01*
X173204000Y-111847333D01*
X173299238Y-111894952D01*
X173346857Y-111942571D01*
X173394476Y-112037809D01*
X173394476Y-112275904D01*
X173346857Y-112371142D01*
X173299238Y-112418761D01*
X173204000Y-112466380D01*
X172965904Y-112466380D01*
X172870666Y-112418761D01*
X172823047Y-112371142D01*
X170719904Y-109926380D02*
X170719904Y-108926380D01*
X171100857Y-108926380D01*
X171196095Y-108974000D01*
X171243714Y-109021619D01*
X171291333Y-109116857D01*
X171291333Y-109259714D01*
X171243714Y-109354952D01*
X171196095Y-109402571D01*
X171100857Y-109450190D01*
X170719904Y-109450190D01*
X172053238Y-109402571D02*
X172196095Y-109450190D01*
X172243714Y-109497809D01*
X172291333Y-109593047D01*
X172291333Y-109735904D01*
X172243714Y-109831142D01*
X172196095Y-109878761D01*
X172100857Y-109926380D01*
X171719904Y-109926380D01*
X171719904Y-108926380D01*
X172053238Y-108926380D01*
X172148476Y-108974000D01*
X172196095Y-109021619D01*
X172243714Y-109116857D01*
X172243714Y-109212095D01*
X172196095Y-109307333D01*
X172148476Y-109354952D01*
X172053238Y-109402571D01*
X171719904Y-109402571D01*
X172672285Y-109021619D02*
X172719904Y-108974000D01*
X172815142Y-108926380D01*
X173053238Y-108926380D01*
X173148476Y-108974000D01*
X173196095Y-109021619D01*
X173243714Y-109116857D01*
X173243714Y-109212095D01*
X173196095Y-109354952D01*
X172624666Y-109926380D01*
X173243714Y-109926380D01*
X171196095Y-64016000D02*
X171100857Y-63968380D01*
X170958000Y-63968380D01*
X170815142Y-64016000D01*
X170719904Y-64111238D01*
X170672285Y-64206476D01*
X170624666Y-64396952D01*
X170624666Y-64539809D01*
X170672285Y-64730285D01*
X170719904Y-64825523D01*
X170815142Y-64920761D01*
X170958000Y-64968380D01*
X171053238Y-64968380D01*
X171196095Y-64920761D01*
X171243714Y-64873142D01*
X171243714Y-64539809D01*
X171053238Y-64539809D01*
X171672285Y-64968380D02*
X171672285Y-63968380D01*
X172243714Y-64968380D01*
X172243714Y-63968380D01*
X172719904Y-64968380D02*
X172719904Y-63968380D01*
X172958000Y-63968380D01*
X173100857Y-64016000D01*
X173196095Y-64111238D01*
X173243714Y-64206476D01*
X173291333Y-64396952D01*
X173291333Y-64539809D01*
X173243714Y-64730285D01*
X173196095Y-64825523D01*
X173100857Y-64920761D01*
X172958000Y-64968380D01*
X172719904Y-64968380D01*
X172275523Y-61682380D02*
X171799333Y-61682380D01*
X171751714Y-62158571D01*
X171799333Y-62110952D01*
X171894571Y-62063333D01*
X172132666Y-62063333D01*
X172227904Y-62110952D01*
X172275523Y-62158571D01*
X172323142Y-62253809D01*
X172323142Y-62491904D01*
X172275523Y-62587142D01*
X172227904Y-62634761D01*
X172132666Y-62682380D01*
X171894571Y-62682380D01*
X171799333Y-62634761D01*
X171751714Y-62587142D01*
X172608857Y-61682380D02*
X172942190Y-62682380D01*
X173275523Y-61682380D01*
X169084761Y-95655380D02*
X169418095Y-96655380D01*
X169751428Y-95655380D01*
X170084761Y-96655380D02*
X170084761Y-95655380D01*
X170560952Y-96655380D02*
X170560952Y-95655380D01*
X171132380Y-96655380D01*
X171132380Y-95655380D01*
X167227619Y-97305380D02*
X166751428Y-97305380D01*
X166703809Y-97781571D01*
X166751428Y-97733952D01*
X166846666Y-97686333D01*
X167084761Y-97686333D01*
X167180000Y-97733952D01*
X167227619Y-97781571D01*
X167275238Y-97876809D01*
X167275238Y-98114904D01*
X167227619Y-98210142D01*
X167180000Y-98257761D01*
X167084761Y-98305380D01*
X166846666Y-98305380D01*
X166751428Y-98257761D01*
X166703809Y-98210142D01*
X167560952Y-97305380D02*
X167894285Y-98305380D01*
X168227619Y-97305380D01*
X169322857Y-97924428D02*
X170084761Y-97924428D01*
X171846666Y-98305380D02*
X171275238Y-98305380D01*
X171560952Y-98305380D02*
X171560952Y-97305380D01*
X171465714Y-97448238D01*
X171370476Y-97543476D01*
X171275238Y-97591095D01*
X172703809Y-97638714D02*
X172703809Y-98305380D01*
X172465714Y-97257761D02*
X172227619Y-97972047D01*
X172846666Y-97972047D01*
X173084761Y-97305380D02*
X173418095Y-98305380D01*
X173751428Y-97305380D01*
X175006095Y-100084000D02*
X174910857Y-100036380D01*
X174768000Y-100036380D01*
X174625142Y-100084000D01*
X174529904Y-100179238D01*
X174482285Y-100274476D01*
X174434666Y-100464952D01*
X174434666Y-100607809D01*
X174482285Y-100798285D01*
X174529904Y-100893523D01*
X174625142Y-100988761D01*
X174768000Y-101036380D01*
X174863238Y-101036380D01*
X175006095Y-100988761D01*
X175053714Y-100941142D01*
X175053714Y-100607809D01*
X174863238Y-100607809D01*
X175482285Y-101036380D02*
X175482285Y-100036380D01*
X176053714Y-101036380D01*
X176053714Y-100036380D01*
X176529904Y-101036380D02*
X176529904Y-100036380D01*
X176768000Y-100036380D01*
X176910857Y-100084000D01*
X177006095Y-100179238D01*
X177053714Y-100274476D01*
X177101333Y-100464952D01*
X177101333Y-100607809D01*
X177053714Y-100798285D01*
X177006095Y-100893523D01*
X176910857Y-100988761D01*
X176768000Y-101036380D01*
X176529904Y-101036380D01*
X168576761Y-104799380D02*
X168910095Y-105799380D01*
X169243428Y-104799380D01*
X169576761Y-105799380D02*
X169576761Y-104799380D01*
X170052952Y-105799380D02*
X170052952Y-104799380D01*
X170624380Y-105799380D01*
X170624380Y-104799380D01*
X166148190Y-106449380D02*
X166767238Y-106449380D01*
X166433904Y-106830333D01*
X166576761Y-106830333D01*
X166672000Y-106877952D01*
X166719619Y-106925571D01*
X166767238Y-107020809D01*
X166767238Y-107258904D01*
X166719619Y-107354142D01*
X166672000Y-107401761D01*
X166576761Y-107449380D01*
X166291047Y-107449380D01*
X166195809Y-107401761D01*
X166148190Y-107354142D01*
X167052952Y-106449380D02*
X167386285Y-107449380D01*
X167719619Y-106449380D01*
X167957714Y-106449380D02*
X168576761Y-106449380D01*
X168243428Y-106830333D01*
X168386285Y-106830333D01*
X168481523Y-106877952D01*
X168529142Y-106925571D01*
X168576761Y-107020809D01*
X168576761Y-107258904D01*
X168529142Y-107354142D01*
X168481523Y-107401761D01*
X168386285Y-107449380D01*
X168100571Y-107449380D01*
X168005333Y-107401761D01*
X167957714Y-107354142D01*
X169767238Y-107068428D02*
X170529142Y-107068428D01*
X172243428Y-106449380D02*
X171767238Y-106449380D01*
X171719619Y-106925571D01*
X171767238Y-106877952D01*
X171862476Y-106830333D01*
X172100571Y-106830333D01*
X172195809Y-106877952D01*
X172243428Y-106925571D01*
X172291047Y-107020809D01*
X172291047Y-107258904D01*
X172243428Y-107354142D01*
X172195809Y-107401761D01*
X172100571Y-107449380D01*
X171862476Y-107449380D01*
X171767238Y-107401761D01*
X171719619Y-107354142D01*
X172576761Y-106449380D02*
X172910095Y-107449380D01*
X173243428Y-106449380D01*
D11*
%TO.C,C8*%
X159473000Y-96385000D02*
X159473000Y-95385000D01*
X157773000Y-95385000D02*
X157773000Y-96385000D01*
D12*
%TO.C,G\u002A\u002A\u002A*%
G36*
X159445543Y-106182014D02*
G01*
X159638305Y-106215740D01*
X159822560Y-106282541D01*
X159862247Y-106300563D01*
X160317825Y-106565651D01*
X160705404Y-106903643D01*
X160857421Y-107080161D01*
X160951750Y-107196394D01*
X161037278Y-107285201D01*
X161133735Y-107358859D01*
X161260851Y-107429642D01*
X161438356Y-107509826D01*
X161685979Y-107611687D01*
X161759054Y-107641133D01*
X162189253Y-107817165D01*
X162534179Y-107965539D01*
X162804602Y-108091736D01*
X163011292Y-108201241D01*
X163165019Y-108299536D01*
X163276552Y-108392104D01*
X163316462Y-108434053D01*
X163410200Y-108550194D01*
X163466803Y-108638416D01*
X163474400Y-108661663D01*
X163433683Y-108714280D01*
X163333322Y-108782749D01*
X163309300Y-108795834D01*
X163224956Y-108829986D01*
X163110749Y-108855043D01*
X162950082Y-108872620D01*
X162726357Y-108884335D01*
X162422978Y-108891804D01*
X162306000Y-108893566D01*
X161869293Y-108903362D01*
X161505536Y-108923604D01*
X161190986Y-108960016D01*
X160901903Y-109018319D01*
X160614545Y-109104237D01*
X160305172Y-109223491D01*
X159950042Y-109381803D01*
X159611793Y-109542961D01*
X159309523Y-109682995D01*
X158980284Y-109825118D01*
X158661792Y-109953631D01*
X158391761Y-110052833D01*
X158367193Y-110061096D01*
X158132942Y-110144747D01*
X157925181Y-110229473D01*
X157768792Y-110304494D01*
X157695225Y-110352221D01*
X157589261Y-110502403D01*
X157491146Y-110745520D01*
X157402081Y-111073127D01*
X157323272Y-111476774D01*
X157255923Y-111948017D01*
X157201237Y-112478406D01*
X157160419Y-113059497D01*
X157134671Y-113682841D01*
X157125199Y-114339991D01*
X157125185Y-114351666D01*
X157130376Y-114845128D01*
X157146032Y-115357831D01*
X157170931Y-115875846D01*
X157203852Y-116385241D01*
X157243575Y-116872085D01*
X157288877Y-117322446D01*
X157338537Y-117722394D01*
X157391334Y-118057996D01*
X157446046Y-118315322D01*
X157483399Y-118437625D01*
X157573917Y-118616775D01*
X157735249Y-118858267D01*
X157969033Y-119164434D01*
X158148588Y-119384756D01*
X158527822Y-119847468D01*
X158845159Y-120249040D01*
X159109147Y-120601542D01*
X159328335Y-120917046D01*
X159511270Y-121207623D01*
X159666501Y-121485346D01*
X159742509Y-121635640D01*
X159930717Y-122049038D01*
X160068030Y-122424805D01*
X160161139Y-122793144D01*
X160216735Y-123184255D01*
X160241508Y-123628341D01*
X160244426Y-123901200D01*
X160242688Y-124212583D01*
X160236274Y-124446592D01*
X160222411Y-124627433D01*
X160198328Y-124779314D01*
X160161255Y-124926442D01*
X160108419Y-125093023D01*
X160107758Y-125095000D01*
X160014913Y-125339632D01*
X159899960Y-125596812D01*
X159787123Y-125812512D01*
X159782671Y-125820062D01*
X159645384Y-126026274D01*
X159441368Y-126296943D01*
X159176521Y-126625478D01*
X158856740Y-127005289D01*
X158487924Y-127429783D01*
X158075970Y-127892369D01*
X157626776Y-128386456D01*
X157146240Y-128905453D01*
X156640260Y-129442769D01*
X156114733Y-129991812D01*
X155575557Y-130545992D01*
X155338528Y-130786713D01*
X154956254Y-131173870D01*
X154639169Y-131496319D01*
X154380798Y-131761370D01*
X154174661Y-131976333D01*
X154014284Y-132148516D01*
X153893188Y-132285229D01*
X153804897Y-132393782D01*
X153742933Y-132481484D01*
X153700820Y-132555644D01*
X153672081Y-132623572D01*
X153650486Y-132691713D01*
X153604909Y-132904409D01*
X153579440Y-133128803D01*
X153577318Y-133223000D01*
X153564053Y-133422502D01*
X153523408Y-133648835D01*
X153492551Y-133762441D01*
X153433988Y-133998776D01*
X153438668Y-134174663D01*
X153514556Y-134314900D01*
X153669621Y-134444288D01*
X153722570Y-134478392D01*
X153882263Y-134587990D01*
X153965718Y-134668768D01*
X153967340Y-134714125D01*
X153928662Y-134721600D01*
X153870830Y-134754585D01*
X153765633Y-134840621D01*
X153649262Y-134948304D01*
X153513321Y-135092081D01*
X153441661Y-135205475D01*
X153416900Y-135318549D01*
X153416000Y-135351706D01*
X153428406Y-135478227D01*
X153458744Y-135553963D01*
X153463418Y-135557709D01*
X153525621Y-135558491D01*
X153672474Y-135543991D01*
X153888509Y-135516242D01*
X154158264Y-135477277D01*
X154466272Y-135429130D01*
X154568318Y-135412458D01*
X154952675Y-135350778D01*
X155251561Y-135307346D01*
X155479178Y-135280728D01*
X155649732Y-135269492D01*
X155777426Y-135272204D01*
X155854400Y-135282682D01*
X156017539Y-135323752D01*
X156212259Y-135385995D01*
X156413849Y-135459721D01*
X156597598Y-135535239D01*
X156738796Y-135602857D01*
X156812731Y-135652884D01*
X156817449Y-135660381D01*
X156784094Y-135704588D01*
X156680075Y-135794922D01*
X156518945Y-135920674D01*
X156314254Y-136071133D01*
X156158555Y-136181081D01*
X155481265Y-136652000D01*
X155070932Y-136644931D01*
X154831374Y-136637437D01*
X154539520Y-136623406D01*
X154244273Y-136605332D01*
X154127200Y-136596840D01*
X153647659Y-136558972D01*
X153258000Y-136525635D01*
X152946682Y-136495341D01*
X152702165Y-136466596D01*
X152512908Y-136437911D01*
X152367372Y-136407794D01*
X152254016Y-136374754D01*
X152178334Y-136345034D01*
X152043515Y-136273993D01*
X151958284Y-136207156D01*
X151942800Y-136177926D01*
X151985242Y-136126232D01*
X152097087Y-136048661D01*
X152255116Y-135961088D01*
X152273000Y-135952177D01*
X152461549Y-135850087D01*
X152566966Y-135767952D01*
X152602901Y-135694821D01*
X152603200Y-135687274D01*
X152567331Y-135601231D01*
X152514300Y-135584970D01*
X152355258Y-135576674D01*
X152128279Y-135554534D01*
X151855227Y-135521753D01*
X151557967Y-135481537D01*
X151258366Y-135437092D01*
X150978288Y-135391621D01*
X150739598Y-135348330D01*
X150564163Y-135310423D01*
X150488820Y-135288080D01*
X150286821Y-135185639D01*
X150180969Y-135078092D01*
X150172437Y-134970876D01*
X150262398Y-134869424D01*
X150384550Y-134804771D01*
X150582639Y-134676123D01*
X150695869Y-134493690D01*
X150722906Y-134316596D01*
X150721141Y-134163424D01*
X150720664Y-134159943D01*
X151434800Y-134159943D01*
X151434800Y-134454629D01*
X151962372Y-134340714D01*
X152185473Y-134290494D01*
X152373375Y-134244390D01*
X152502592Y-134208388D01*
X152546572Y-134191801D01*
X152596949Y-134103475D01*
X152587639Y-133946824D01*
X152519836Y-133734861D01*
X152500405Y-133689332D01*
X152397611Y-133456949D01*
X152192070Y-133529468D01*
X152003483Y-133591742D01*
X151811707Y-133648962D01*
X151789150Y-133655136D01*
X151607112Y-133720935D01*
X151498871Y-133813695D01*
X151447195Y-133957964D01*
X151434800Y-134159943D01*
X150720664Y-134159943D01*
X150706661Y-134057959D01*
X150663604Y-133991909D01*
X150576104Y-133956985D01*
X150428297Y-133944895D01*
X150204320Y-133947350D01*
X150025965Y-133952378D01*
X149733286Y-133954492D01*
X149435037Y-133946184D01*
X149169028Y-133929041D01*
X148999854Y-133909249D01*
X148316467Y-133753900D01*
X147617171Y-133506109D01*
X146911827Y-133171710D01*
X146210297Y-132756539D01*
X145522442Y-132266431D01*
X144858122Y-131707221D01*
X144228082Y-131085687D01*
X143660122Y-130429740D01*
X143331589Y-129993659D01*
X151747621Y-129993659D01*
X151759930Y-130078507D01*
X151807738Y-130125169D01*
X151917363Y-130142750D01*
X152052607Y-130139574D01*
X152315950Y-130124200D01*
X152665154Y-129337968D01*
X152807488Y-129009599D01*
X152907440Y-128759014D01*
X152969320Y-128573762D01*
X152997439Y-128441392D01*
X152999279Y-128372768D01*
X152974294Y-128246284D01*
X152918917Y-128197053D01*
X152888221Y-128193800D01*
X152815959Y-128224997D01*
X152758717Y-128330473D01*
X152730310Y-128422400D01*
X152681805Y-128574296D01*
X152614192Y-128752757D01*
X152538402Y-128932910D01*
X152465365Y-129089884D01*
X152406010Y-129198806D01*
X152373115Y-129235200D01*
X152335562Y-129191656D01*
X152274285Y-129077850D01*
X152200236Y-128919018D01*
X152124368Y-128740400D01*
X152057630Y-128567231D01*
X152010976Y-128424749D01*
X151998366Y-128371600D01*
X151958734Y-128244025D01*
X151891750Y-128195942D01*
X151865738Y-128193800D01*
X151790824Y-128220115D01*
X151754745Y-128315068D01*
X151748797Y-128362712D01*
X151760558Y-128485958D01*
X151806261Y-128661579D01*
X151875946Y-128865207D01*
X151959649Y-129072471D01*
X152047409Y-129259000D01*
X152129264Y-129400426D01*
X152195251Y-129472377D01*
X152203830Y-129475857D01*
X152252691Y-129498159D01*
X152259053Y-129546751D01*
X152222917Y-129650334D01*
X152203830Y-129696325D01*
X152138814Y-129824749D01*
X152066834Y-129882014D01*
X151958498Y-129895083D01*
X151809149Y-129920315D01*
X151747621Y-129993659D01*
X143331589Y-129993659D01*
X143105967Y-129694178D01*
X142578840Y-128900984D01*
X142091965Y-128072142D01*
X141658563Y-127229633D01*
X141554637Y-126993218D01*
X146915441Y-126993218D01*
X146957044Y-127027683D01*
X147066959Y-127099782D01*
X147224846Y-127197518D01*
X147410366Y-127308892D01*
X147603178Y-127421907D01*
X147782943Y-127524565D01*
X147929320Y-127604869D01*
X148021969Y-127650821D01*
X148040979Y-127657123D01*
X148065706Y-127613991D01*
X148086375Y-127501619D01*
X148091779Y-127444500D01*
X148107400Y-127228600D01*
X152244787Y-127215599D01*
X153023579Y-127212836D01*
X153706150Y-127209690D01*
X154297879Y-127206062D01*
X154804144Y-127201855D01*
X155230324Y-127196970D01*
X155581798Y-127191310D01*
X155863944Y-127184776D01*
X156082141Y-127177270D01*
X156241768Y-127168694D01*
X156348203Y-127158950D01*
X156406825Y-127147939D01*
X156422309Y-127139399D01*
X156428549Y-127079882D01*
X156434510Y-126926489D01*
X156440118Y-126686947D01*
X156445295Y-126368979D01*
X156449967Y-125980310D01*
X156454057Y-125528665D01*
X156457489Y-125021769D01*
X156460188Y-124467346D01*
X156462077Y-123873121D01*
X156462155Y-123824405D01*
X157498142Y-123824405D01*
X157563532Y-123895415D01*
X157666016Y-123877493D01*
X157799086Y-123773477D01*
X157912801Y-123643539D01*
X158115000Y-123385879D01*
X158347634Y-123643539D01*
X158476269Y-123773851D01*
X158588693Y-123866508D01*
X158659699Y-123901200D01*
X158748038Y-123870698D01*
X158756925Y-123781751D01*
X158687179Y-123638194D01*
X158569585Y-123479617D01*
X158457303Y-123338367D01*
X158376406Y-123227325D01*
X158343671Y-123169583D01*
X158343600Y-123168571D01*
X158374007Y-123113604D01*
X158453333Y-123006325D01*
X158553022Y-122883665D01*
X158682028Y-122705712D01*
X158729373Y-122576696D01*
X158694659Y-122500097D01*
X158599194Y-122478800D01*
X158515057Y-122494613D01*
X158494625Y-122516900D01*
X158461913Y-122572764D01*
X158379563Y-122674654D01*
X158311413Y-122750659D01*
X158129576Y-122946318D01*
X157915888Y-122703478D01*
X157775533Y-122559239D01*
X157675087Y-122494284D01*
X157616500Y-122493524D01*
X157547940Y-122541922D01*
X157543677Y-122619576D01*
X157607482Y-122739666D01*
X157734000Y-122904362D01*
X157839689Y-123035855D01*
X157913173Y-123134147D01*
X157937200Y-123174729D01*
X157906632Y-123222554D01*
X157826177Y-123325465D01*
X157712700Y-123461953D01*
X157702936Y-123473403D01*
X157575256Y-123638603D01*
X157505716Y-123763869D01*
X157498142Y-123824405D01*
X156462155Y-123824405D01*
X156463082Y-123246819D01*
X156463222Y-122974100D01*
X156464000Y-118872000D01*
X156692600Y-118872000D01*
X156828976Y-118865942D01*
X156910744Y-118850618D01*
X156921200Y-118841526D01*
X156897449Y-118786957D01*
X156834156Y-118665945D01*
X156743254Y-118499642D01*
X156636680Y-118309196D01*
X156526368Y-118115759D01*
X156424253Y-117940480D01*
X156342272Y-117804510D01*
X156296468Y-117734452D01*
X156264889Y-117704943D01*
X156227728Y-117711191D01*
X156175679Y-117764519D01*
X156099435Y-117876251D01*
X155989688Y-118057711D01*
X155889456Y-118229681D01*
X155764135Y-118448119D01*
X155659650Y-118633967D01*
X155585436Y-118770162D01*
X155550928Y-118839637D01*
X155549600Y-118844376D01*
X155595041Y-118860856D01*
X155710001Y-118870737D01*
X155778200Y-118872000D01*
X156006800Y-118872000D01*
X156006800Y-126746000D01*
X148082000Y-126746000D01*
X148082000Y-126296350D01*
X147497800Y-126628693D01*
X147281900Y-126753883D01*
X147102313Y-126862532D01*
X146975353Y-126944426D01*
X146917335Y-126989354D01*
X146915441Y-126993218D01*
X141554637Y-126993218D01*
X141291859Y-126395443D01*
X141103362Y-125890809D01*
X140998657Y-125577991D01*
X140930335Y-125344861D01*
X140896034Y-125177180D01*
X140893394Y-125060713D01*
X140920054Y-124981224D01*
X140946909Y-124947547D01*
X141009580Y-124906288D01*
X141095125Y-124893454D01*
X141212576Y-124912722D01*
X141370967Y-124967771D01*
X141579332Y-125062277D01*
X141846704Y-125199918D01*
X142182117Y-125384371D01*
X142588536Y-125615820D01*
X143030003Y-125867143D01*
X143395231Y-126067789D01*
X143693800Y-126221461D01*
X143935292Y-126331863D01*
X144129288Y-126402699D01*
X144285370Y-126437673D01*
X144413119Y-126440489D01*
X144522115Y-126414850D01*
X144583261Y-126386941D01*
X144685959Y-126323280D01*
X144859096Y-126205821D01*
X145092146Y-126042142D01*
X145374582Y-125839821D01*
X145695878Y-125606436D01*
X146045507Y-125349567D01*
X146412943Y-125076792D01*
X146659600Y-124892098D01*
X147265731Y-124437322D01*
X147798460Y-124039411D01*
X148265017Y-123693419D01*
X148672636Y-123394403D01*
X149028549Y-123137418D01*
X149339990Y-122917520D01*
X149614191Y-122729763D01*
X149858384Y-122569204D01*
X150079802Y-122430898D01*
X150285678Y-122309900D01*
X150483244Y-122201267D01*
X150679734Y-122100052D01*
X150882380Y-122001313D01*
X150901400Y-121992269D01*
X151700964Y-121650675D01*
X152515674Y-121381014D01*
X153372824Y-121175128D01*
X153998372Y-121066717D01*
X154606145Y-120976004D01*
X154593460Y-120724102D01*
X154586079Y-120584907D01*
X154574187Y-120369009D01*
X154559163Y-120101134D01*
X154542390Y-119806008D01*
X154533977Y-119659400D01*
X154490396Y-118747168D01*
X154463110Y-117820096D01*
X154451635Y-116888800D01*
X154455486Y-115963898D01*
X154474178Y-115056008D01*
X154507228Y-114175749D01*
X154554151Y-113333738D01*
X154614463Y-112540592D01*
X154687679Y-111806930D01*
X154773315Y-111143370D01*
X154870886Y-110560529D01*
X154969662Y-110109158D01*
X155177047Y-109393348D01*
X155415156Y-108771424D01*
X155683491Y-108244502D01*
X155981556Y-107813698D01*
X156003601Y-107787076D01*
X156263191Y-107501830D01*
X156366722Y-107408431D01*
X159215736Y-107408431D01*
X159236326Y-107498773D01*
X159304184Y-107611087D01*
X159390615Y-107706665D01*
X159466595Y-107746800D01*
X159518903Y-107709399D01*
X159596756Y-107617703D01*
X159608835Y-107601091D01*
X159674818Y-107500570D01*
X159681946Y-107441167D01*
X159631613Y-107382188D01*
X159616786Y-107368683D01*
X159500012Y-107308183D01*
X159368834Y-107299789D01*
X159260923Y-107339769D01*
X159215736Y-107408431D01*
X156366722Y-107408431D01*
X156536807Y-107254993D01*
X156841469Y-107035722D01*
X157194200Y-106833175D01*
X157612022Y-106636511D01*
X158111956Y-106434889D01*
X158147983Y-106421246D01*
X158428021Y-106317941D01*
X158639864Y-106247534D01*
X158809148Y-106203955D01*
X158961508Y-106181133D01*
X159122578Y-106172996D01*
X159198309Y-106172496D01*
X159445543Y-106182014D01*
G37*
X159445543Y-106182014D02*
X159638305Y-106215740D01*
X159822560Y-106282541D01*
X159862247Y-106300563D01*
X160317825Y-106565651D01*
X160705404Y-106903643D01*
X160857421Y-107080161D01*
X160951750Y-107196394D01*
X161037278Y-107285201D01*
X161133735Y-107358859D01*
X161260851Y-107429642D01*
X161438356Y-107509826D01*
X161685979Y-107611687D01*
X161759054Y-107641133D01*
X162189253Y-107817165D01*
X162534179Y-107965539D01*
X162804602Y-108091736D01*
X163011292Y-108201241D01*
X163165019Y-108299536D01*
X163276552Y-108392104D01*
X163316462Y-108434053D01*
X163410200Y-108550194D01*
X163466803Y-108638416D01*
X163474400Y-108661663D01*
X163433683Y-108714280D01*
X163333322Y-108782749D01*
X163309300Y-108795834D01*
X163224956Y-108829986D01*
X163110749Y-108855043D01*
X162950082Y-108872620D01*
X162726357Y-108884335D01*
X162422978Y-108891804D01*
X162306000Y-108893566D01*
X161869293Y-108903362D01*
X161505536Y-108923604D01*
X161190986Y-108960016D01*
X160901903Y-109018319D01*
X160614545Y-109104237D01*
X160305172Y-109223491D01*
X159950042Y-109381803D01*
X159611793Y-109542961D01*
X159309523Y-109682995D01*
X158980284Y-109825118D01*
X158661792Y-109953631D01*
X158391761Y-110052833D01*
X158367193Y-110061096D01*
X158132942Y-110144747D01*
X157925181Y-110229473D01*
X157768792Y-110304494D01*
X157695225Y-110352221D01*
X157589261Y-110502403D01*
X157491146Y-110745520D01*
X157402081Y-111073127D01*
X157323272Y-111476774D01*
X157255923Y-111948017D01*
X157201237Y-112478406D01*
X157160419Y-113059497D01*
X157134671Y-113682841D01*
X157125199Y-114339991D01*
X157125185Y-114351666D01*
X157130376Y-114845128D01*
X157146032Y-115357831D01*
X157170931Y-115875846D01*
X157203852Y-116385241D01*
X157243575Y-116872085D01*
X157288877Y-117322446D01*
X157338537Y-117722394D01*
X157391334Y-118057996D01*
X157446046Y-118315322D01*
X157483399Y-118437625D01*
X157573917Y-118616775D01*
X157735249Y-118858267D01*
X157969033Y-119164434D01*
X158148588Y-119384756D01*
X158527822Y-119847468D01*
X158845159Y-120249040D01*
X159109147Y-120601542D01*
X159328335Y-120917046D01*
X159511270Y-121207623D01*
X159666501Y-121485346D01*
X159742509Y-121635640D01*
X159930717Y-122049038D01*
X160068030Y-122424805D01*
X160161139Y-122793144D01*
X160216735Y-123184255D01*
X160241508Y-123628341D01*
X160244426Y-123901200D01*
X160242688Y-124212583D01*
X160236274Y-124446592D01*
X160222411Y-124627433D01*
X160198328Y-124779314D01*
X160161255Y-124926442D01*
X160108419Y-125093023D01*
X160107758Y-125095000D01*
X160014913Y-125339632D01*
X159899960Y-125596812D01*
X159787123Y-125812512D01*
X159782671Y-125820062D01*
X159645384Y-126026274D01*
X159441368Y-126296943D01*
X159176521Y-126625478D01*
X158856740Y-127005289D01*
X158487924Y-127429783D01*
X158075970Y-127892369D01*
X157626776Y-128386456D01*
X157146240Y-128905453D01*
X156640260Y-129442769D01*
X156114733Y-129991812D01*
X155575557Y-130545992D01*
X155338528Y-130786713D01*
X154956254Y-131173870D01*
X154639169Y-131496319D01*
X154380798Y-131761370D01*
X154174661Y-131976333D01*
X154014284Y-132148516D01*
X153893188Y-132285229D01*
X153804897Y-132393782D01*
X153742933Y-132481484D01*
X153700820Y-132555644D01*
X153672081Y-132623572D01*
X153650486Y-132691713D01*
X153604909Y-132904409D01*
X153579440Y-133128803D01*
X153577318Y-133223000D01*
X153564053Y-133422502D01*
X153523408Y-133648835D01*
X153492551Y-133762441D01*
X153433988Y-133998776D01*
X153438668Y-134174663D01*
X153514556Y-134314900D01*
X153669621Y-134444288D01*
X153722570Y-134478392D01*
X153882263Y-134587990D01*
X153965718Y-134668768D01*
X153967340Y-134714125D01*
X153928662Y-134721600D01*
X153870830Y-134754585D01*
X153765633Y-134840621D01*
X153649262Y-134948304D01*
X153513321Y-135092081D01*
X153441661Y-135205475D01*
X153416900Y-135318549D01*
X153416000Y-135351706D01*
X153428406Y-135478227D01*
X153458744Y-135553963D01*
X153463418Y-135557709D01*
X153525621Y-135558491D01*
X153672474Y-135543991D01*
X153888509Y-135516242D01*
X154158264Y-135477277D01*
X154466272Y-135429130D01*
X154568318Y-135412458D01*
X154952675Y-135350778D01*
X155251561Y-135307346D01*
X155479178Y-135280728D01*
X155649732Y-135269492D01*
X155777426Y-135272204D01*
X155854400Y-135282682D01*
X156017539Y-135323752D01*
X156212259Y-135385995D01*
X156413849Y-135459721D01*
X156597598Y-135535239D01*
X156738796Y-135602857D01*
X156812731Y-135652884D01*
X156817449Y-135660381D01*
X156784094Y-135704588D01*
X156680075Y-135794922D01*
X156518945Y-135920674D01*
X156314254Y-136071133D01*
X156158555Y-136181081D01*
X155481265Y-136652000D01*
X155070932Y-136644931D01*
X154831374Y-136637437D01*
X154539520Y-136623406D01*
X154244273Y-136605332D01*
X154127200Y-136596840D01*
X153647659Y-136558972D01*
X153258000Y-136525635D01*
X152946682Y-136495341D01*
X152702165Y-136466596D01*
X152512908Y-136437911D01*
X152367372Y-136407794D01*
X152254016Y-136374754D01*
X152178334Y-136345034D01*
X152043515Y-136273993D01*
X151958284Y-136207156D01*
X151942800Y-136177926D01*
X151985242Y-136126232D01*
X152097087Y-136048661D01*
X152255116Y-135961088D01*
X152273000Y-135952177D01*
X152461549Y-135850087D01*
X152566966Y-135767952D01*
X152602901Y-135694821D01*
X152603200Y-135687274D01*
X152567331Y-135601231D01*
X152514300Y-135584970D01*
X152355258Y-135576674D01*
X152128279Y-135554534D01*
X151855227Y-135521753D01*
X151557967Y-135481537D01*
X151258366Y-135437092D01*
X150978288Y-135391621D01*
X150739598Y-135348330D01*
X150564163Y-135310423D01*
X150488820Y-135288080D01*
X150286821Y-135185639D01*
X150180969Y-135078092D01*
X150172437Y-134970876D01*
X150262398Y-134869424D01*
X150384550Y-134804771D01*
X150582639Y-134676123D01*
X150695869Y-134493690D01*
X150722906Y-134316596D01*
X150721141Y-134163424D01*
X150720664Y-134159943D01*
X151434800Y-134159943D01*
X151434800Y-134454629D01*
X151962372Y-134340714D01*
X152185473Y-134290494D01*
X152373375Y-134244390D01*
X152502592Y-134208388D01*
X152546572Y-134191801D01*
X152596949Y-134103475D01*
X152587639Y-133946824D01*
X152519836Y-133734861D01*
X152500405Y-133689332D01*
X152397611Y-133456949D01*
X152192070Y-133529468D01*
X152003483Y-133591742D01*
X151811707Y-133648962D01*
X151789150Y-133655136D01*
X151607112Y-133720935D01*
X151498871Y-133813695D01*
X151447195Y-133957964D01*
X151434800Y-134159943D01*
X150720664Y-134159943D01*
X150706661Y-134057959D01*
X150663604Y-133991909D01*
X150576104Y-133956985D01*
X150428297Y-133944895D01*
X150204320Y-133947350D01*
X150025965Y-133952378D01*
X149733286Y-133954492D01*
X149435037Y-133946184D01*
X149169028Y-133929041D01*
X148999854Y-133909249D01*
X148316467Y-133753900D01*
X147617171Y-133506109D01*
X146911827Y-133171710D01*
X146210297Y-132756539D01*
X145522442Y-132266431D01*
X144858122Y-131707221D01*
X144228082Y-131085687D01*
X143660122Y-130429740D01*
X143331589Y-129993659D01*
X151747621Y-129993659D01*
X151759930Y-130078507D01*
X151807738Y-130125169D01*
X151917363Y-130142750D01*
X152052607Y-130139574D01*
X152315950Y-130124200D01*
X152665154Y-129337968D01*
X152807488Y-129009599D01*
X152907440Y-128759014D01*
X152969320Y-128573762D01*
X152997439Y-128441392D01*
X152999279Y-128372768D01*
X152974294Y-128246284D01*
X152918917Y-128197053D01*
X152888221Y-128193800D01*
X152815959Y-128224997D01*
X152758717Y-128330473D01*
X152730310Y-128422400D01*
X152681805Y-128574296D01*
X152614192Y-128752757D01*
X152538402Y-128932910D01*
X152465365Y-129089884D01*
X152406010Y-129198806D01*
X152373115Y-129235200D01*
X152335562Y-129191656D01*
X152274285Y-129077850D01*
X152200236Y-128919018D01*
X152124368Y-128740400D01*
X152057630Y-128567231D01*
X152010976Y-128424749D01*
X151998366Y-128371600D01*
X151958734Y-128244025D01*
X151891750Y-128195942D01*
X151865738Y-128193800D01*
X151790824Y-128220115D01*
X151754745Y-128315068D01*
X151748797Y-128362712D01*
X151760558Y-128485958D01*
X151806261Y-128661579D01*
X151875946Y-128865207D01*
X151959649Y-129072471D01*
X152047409Y-129259000D01*
X152129264Y-129400426D01*
X152195251Y-129472377D01*
X152203830Y-129475857D01*
X152252691Y-129498159D01*
X152259053Y-129546751D01*
X152222917Y-129650334D01*
X152203830Y-129696325D01*
X152138814Y-129824749D01*
X152066834Y-129882014D01*
X151958498Y-129895083D01*
X151809149Y-129920315D01*
X151747621Y-129993659D01*
X143331589Y-129993659D01*
X143105967Y-129694178D01*
X142578840Y-128900984D01*
X142091965Y-128072142D01*
X141658563Y-127229633D01*
X141554637Y-126993218D01*
X146915441Y-126993218D01*
X146957044Y-127027683D01*
X147066959Y-127099782D01*
X147224846Y-127197518D01*
X147410366Y-127308892D01*
X147603178Y-127421907D01*
X147782943Y-127524565D01*
X147929320Y-127604869D01*
X148021969Y-127650821D01*
X148040979Y-127657123D01*
X148065706Y-127613991D01*
X148086375Y-127501619D01*
X148091779Y-127444500D01*
X148107400Y-127228600D01*
X152244787Y-127215599D01*
X153023579Y-127212836D01*
X153706150Y-127209690D01*
X154297879Y-127206062D01*
X154804144Y-127201855D01*
X155230324Y-127196970D01*
X155581798Y-127191310D01*
X155863944Y-127184776D01*
X156082141Y-127177270D01*
X156241768Y-127168694D01*
X156348203Y-127158950D01*
X156406825Y-127147939D01*
X156422309Y-127139399D01*
X156428549Y-127079882D01*
X156434510Y-126926489D01*
X156440118Y-126686947D01*
X156445295Y-126368979D01*
X156449967Y-125980310D01*
X156454057Y-125528665D01*
X156457489Y-125021769D01*
X156460188Y-124467346D01*
X156462077Y-123873121D01*
X156462155Y-123824405D01*
X157498142Y-123824405D01*
X157563532Y-123895415D01*
X157666016Y-123877493D01*
X157799086Y-123773477D01*
X157912801Y-123643539D01*
X158115000Y-123385879D01*
X158347634Y-123643539D01*
X158476269Y-123773851D01*
X158588693Y-123866508D01*
X158659699Y-123901200D01*
X158748038Y-123870698D01*
X158756925Y-123781751D01*
X158687179Y-123638194D01*
X158569585Y-123479617D01*
X158457303Y-123338367D01*
X158376406Y-123227325D01*
X158343671Y-123169583D01*
X158343600Y-123168571D01*
X158374007Y-123113604D01*
X158453333Y-123006325D01*
X158553022Y-122883665D01*
X158682028Y-122705712D01*
X158729373Y-122576696D01*
X158694659Y-122500097D01*
X158599194Y-122478800D01*
X158515057Y-122494613D01*
X158494625Y-122516900D01*
X158461913Y-122572764D01*
X158379563Y-122674654D01*
X158311413Y-122750659D01*
X158129576Y-122946318D01*
X157915888Y-122703478D01*
X157775533Y-122559239D01*
X157675087Y-122494284D01*
X157616500Y-122493524D01*
X157547940Y-122541922D01*
X157543677Y-122619576D01*
X157607482Y-122739666D01*
X157734000Y-122904362D01*
X157839689Y-123035855D01*
X157913173Y-123134147D01*
X157937200Y-123174729D01*
X157906632Y-123222554D01*
X157826177Y-123325465D01*
X157712700Y-123461953D01*
X157702936Y-123473403D01*
X157575256Y-123638603D01*
X157505716Y-123763869D01*
X157498142Y-123824405D01*
X156462155Y-123824405D01*
X156463082Y-123246819D01*
X156463222Y-122974100D01*
X156464000Y-118872000D01*
X156692600Y-118872000D01*
X156828976Y-118865942D01*
X156910744Y-118850618D01*
X156921200Y-118841526D01*
X156897449Y-118786957D01*
X156834156Y-118665945D01*
X156743254Y-118499642D01*
X156636680Y-118309196D01*
X156526368Y-118115759D01*
X156424253Y-117940480D01*
X156342272Y-117804510D01*
X156296468Y-117734452D01*
X156264889Y-117704943D01*
X156227728Y-117711191D01*
X156175679Y-117764519D01*
X156099435Y-117876251D01*
X155989688Y-118057711D01*
X155889456Y-118229681D01*
X155764135Y-118448119D01*
X155659650Y-118633967D01*
X155585436Y-118770162D01*
X155550928Y-118839637D01*
X155549600Y-118844376D01*
X155595041Y-118860856D01*
X155710001Y-118870737D01*
X155778200Y-118872000D01*
X156006800Y-118872000D01*
X156006800Y-126746000D01*
X148082000Y-126746000D01*
X148082000Y-126296350D01*
X147497800Y-126628693D01*
X147281900Y-126753883D01*
X147102313Y-126862532D01*
X146975353Y-126944426D01*
X146917335Y-126989354D01*
X146915441Y-126993218D01*
X141554637Y-126993218D01*
X141291859Y-126395443D01*
X141103362Y-125890809D01*
X140998657Y-125577991D01*
X140930335Y-125344861D01*
X140896034Y-125177180D01*
X140893394Y-125060713D01*
X140920054Y-124981224D01*
X140946909Y-124947547D01*
X141009580Y-124906288D01*
X141095125Y-124893454D01*
X141212576Y-124912722D01*
X141370967Y-124967771D01*
X141579332Y-125062277D01*
X141846704Y-125199918D01*
X142182117Y-125384371D01*
X142588536Y-125615820D01*
X143030003Y-125867143D01*
X143395231Y-126067789D01*
X143693800Y-126221461D01*
X143935292Y-126331863D01*
X144129288Y-126402699D01*
X144285370Y-126437673D01*
X144413119Y-126440489D01*
X144522115Y-126414850D01*
X144583261Y-126386941D01*
X144685959Y-126323280D01*
X144859096Y-126205821D01*
X145092146Y-126042142D01*
X145374582Y-125839821D01*
X145695878Y-125606436D01*
X146045507Y-125349567D01*
X146412943Y-125076792D01*
X146659600Y-124892098D01*
X147265731Y-124437322D01*
X147798460Y-124039411D01*
X148265017Y-123693419D01*
X148672636Y-123394403D01*
X149028549Y-123137418D01*
X149339990Y-122917520D01*
X149614191Y-122729763D01*
X149858384Y-122569204D01*
X150079802Y-122430898D01*
X150285678Y-122309900D01*
X150483244Y-122201267D01*
X150679734Y-122100052D01*
X150882380Y-122001313D01*
X150901400Y-121992269D01*
X151700964Y-121650675D01*
X152515674Y-121381014D01*
X153372824Y-121175128D01*
X153998372Y-121066717D01*
X154606145Y-120976004D01*
X154593460Y-120724102D01*
X154586079Y-120584907D01*
X154574187Y-120369009D01*
X154559163Y-120101134D01*
X154542390Y-119806008D01*
X154533977Y-119659400D01*
X154490396Y-118747168D01*
X154463110Y-117820096D01*
X154451635Y-116888800D01*
X154455486Y-115963898D01*
X154474178Y-115056008D01*
X154507228Y-114175749D01*
X154554151Y-113333738D01*
X154614463Y-112540592D01*
X154687679Y-111806930D01*
X154773315Y-111143370D01*
X154870886Y-110560529D01*
X154969662Y-110109158D01*
X155177047Y-109393348D01*
X155415156Y-108771424D01*
X155683491Y-108244502D01*
X155981556Y-107813698D01*
X156003601Y-107787076D01*
X156263191Y-107501830D01*
X156366722Y-107408431D01*
X159215736Y-107408431D01*
X159236326Y-107498773D01*
X159304184Y-107611087D01*
X159390615Y-107706665D01*
X159466595Y-107746800D01*
X159518903Y-107709399D01*
X159596756Y-107617703D01*
X159608835Y-107601091D01*
X159674818Y-107500570D01*
X159681946Y-107441167D01*
X159631613Y-107382188D01*
X159616786Y-107368683D01*
X159500012Y-107308183D01*
X159368834Y-107299789D01*
X159260923Y-107339769D01*
X159215736Y-107408431D01*
X156366722Y-107408431D01*
X156536807Y-107254993D01*
X156841469Y-107035722D01*
X157194200Y-106833175D01*
X157612022Y-106636511D01*
X158111956Y-106434889D01*
X158147983Y-106421246D01*
X158428021Y-106317941D01*
X158639864Y-106247534D01*
X158809148Y-106203955D01*
X158961508Y-106181133D01*
X159122578Y-106172996D01*
X159198309Y-106172496D01*
X159445543Y-106182014D01*
D11*
%TO.C,J12*%
X144258000Y-48364000D02*
X144258000Y-61364000D01*
X159258000Y-61364000D02*
X144258000Y-61364000D01*
X159258000Y-48364000D02*
X159258000Y-61364000D01*
X159258000Y-48364000D02*
X144258000Y-48364000D01*
D13*
X158650000Y-49214000D02*
X158650000Y-60514000D01*
X158650000Y-60514000D02*
X159745000Y-60514000D01*
X158650000Y-49214000D02*
X159072000Y-49214000D01*
D11*
%TO.C,C1*%
X116832000Y-126277000D02*
X115832000Y-126277000D01*
X115832000Y-127977000D02*
X116832000Y-127977000D01*
%TO.C,C2*%
X172046000Y-77716000D02*
X172046000Y-76716000D01*
X170346000Y-76716000D02*
X170346000Y-77716000D01*
%TO.C,C3*%
X111164000Y-129548000D02*
X111164000Y-130548000D01*
X112864000Y-130548000D02*
X112864000Y-129548000D01*
%TO.C,C4*%
X113069000Y-129548000D02*
X113069000Y-130548000D01*
X114769000Y-130548000D02*
X114769000Y-129548000D01*
%TO.C,C5*%
X171458000Y-95084000D02*
X172458000Y-95084000D01*
X172458000Y-93384000D02*
X171458000Y-93384000D01*
%TO.C,C6*%
X155202000Y-93687000D02*
X156202000Y-93687000D01*
X156202000Y-91987000D02*
X155202000Y-91987000D01*
%TO.C,C7*%
X157695000Y-96385000D02*
X157695000Y-95385000D01*
X155995000Y-95385000D02*
X155995000Y-96385000D01*
%TO.C,C9*%
X125992000Y-124294000D02*
X126992000Y-124294000D01*
X126992000Y-122594000D02*
X125992000Y-122594000D01*
%TO.C,C10*%
X125992000Y-126072000D02*
X126992000Y-126072000D01*
X126992000Y-124372000D02*
X125992000Y-124372000D01*
%TO.C,C11*%
X134962000Y-129024000D02*
X134962000Y-128024000D01*
X133262000Y-128024000D02*
X133262000Y-129024000D01*
%TO.C,C12*%
X114578000Y-92290000D02*
X115578000Y-92290000D01*
X115578000Y-90590000D02*
X114578000Y-90590000D01*
%TO.C,C13*%
X119546000Y-92988000D02*
X119546000Y-93988000D01*
X121246000Y-93988000D02*
X121246000Y-92988000D01*
%TO.C,C14*%
X124626000Y-92870400D02*
X124626000Y-93870400D01*
X126326000Y-93870400D02*
X126326000Y-92870400D01*
%TO.C,C15*%
X139946000Y-106784000D02*
X140946000Y-106784000D01*
X140946000Y-105084000D02*
X139946000Y-105084000D01*
D14*
%TO.C,C16*%
X109220000Y-69014340D02*
X109220000Y-71501000D01*
X116078000Y-67129660D02*
X116078000Y-64643000D01*
X116078000Y-71501000D02*
X116078000Y-69014340D01*
X109220000Y-71501000D02*
X116078000Y-71501000D01*
X109220000Y-64643000D02*
X109220000Y-67129660D01*
X116078000Y-64643000D02*
X109220000Y-64643000D01*
D11*
%TO.C,C17*%
X143422000Y-90178000D02*
X143422000Y-91178000D01*
X145122000Y-91178000D02*
X145122000Y-90178000D01*
%TO.C,C18*%
X127342000Y-99052000D02*
X127342000Y-98052000D01*
X125642000Y-98052000D02*
X125642000Y-99052000D01*
%TO.C,C19*%
X122262000Y-101846000D02*
X122262000Y-100846000D01*
X120562000Y-100846000D02*
X120562000Y-101846000D01*
%TO.C,C20*%
X131802000Y-103290000D02*
X130802000Y-103290000D01*
X130802000Y-104990000D02*
X131802000Y-104990000D01*
%TO.C,C21*%
X140962000Y-103290000D02*
X139962000Y-103290000D01*
X139962000Y-104990000D02*
X140962000Y-104990000D01*
%TO.C,C22*%
X129294000Y-87972000D02*
X130294000Y-87972000D01*
X130294000Y-86272000D02*
X129294000Y-86272000D01*
D15*
%TO.C,D2*%
X163814000Y-86884000D02*
X161814000Y-86884000D01*
X161814000Y-86884000D02*
X161814000Y-87509000D01*
X161814000Y-88259000D02*
X161814000Y-88884000D01*
X161814000Y-88884000D02*
X163814000Y-88884000D01*
D11*
%TO.C,D3*%
X157691000Y-100203000D02*
X157691000Y-100330000D01*
X158072000Y-99949000D02*
X157310000Y-99949000D01*
X157691000Y-100203000D02*
X157691000Y-99568000D01*
X161396000Y-99760000D02*
X161396000Y-98360000D01*
D16*
X159996000Y-99460000D02*
X159996000Y-98660000D01*
X159996000Y-99060000D02*
X159396000Y-99460000D01*
X159396000Y-98660000D02*
X159996000Y-99060000D01*
X159396000Y-99460000D02*
X159396000Y-98660000D01*
D11*
X161396000Y-98360000D02*
X158596000Y-98360000D01*
X161396000Y-99760000D02*
X158596000Y-99760000D01*
%TO.C,D4*%
X171831000Y-61341000D02*
X171958000Y-61341000D01*
X171577000Y-60960000D02*
X171577000Y-61722000D01*
X171831000Y-61341000D02*
X171196000Y-61341000D01*
X171388000Y-57636000D02*
X169988000Y-57636000D01*
D16*
X171088000Y-59036000D02*
X170288000Y-59036000D01*
X170688000Y-59036000D02*
X171088000Y-59636000D01*
X170288000Y-59636000D02*
X170688000Y-59036000D01*
X171088000Y-59636000D02*
X170288000Y-59636000D01*
D11*
X169988000Y-57636000D02*
X169988000Y-60436000D01*
X171388000Y-57636000D02*
X171388000Y-60436000D01*
%TO.C,D5*%
X116289000Y-75438000D02*
X116289000Y-75311000D01*
X115908000Y-75692000D02*
X116670000Y-75692000D01*
X116289000Y-75438000D02*
X116289000Y-76073000D01*
X112584000Y-75881000D02*
X112584000Y-77281000D01*
D16*
X113984000Y-76181000D02*
X113984000Y-76981000D01*
X113984000Y-76581000D02*
X114584000Y-76181000D01*
X114584000Y-76981000D02*
X113984000Y-76581000D01*
X114584000Y-76181000D02*
X114584000Y-76981000D01*
D11*
X112584000Y-77281000D02*
X115384000Y-77281000D01*
X112584000Y-75881000D02*
X115384000Y-75881000D01*
%TO.C,D6*%
X116205000Y-83185000D02*
X116205000Y-83058000D01*
X115824000Y-83439000D02*
X116586000Y-83439000D01*
X116205000Y-83185000D02*
X116205000Y-83820000D01*
X112500000Y-83628000D02*
X112500000Y-85028000D01*
D16*
X113900000Y-83928000D02*
X113900000Y-84728000D01*
X113900000Y-84328000D02*
X114500000Y-83928000D01*
X114500000Y-84728000D02*
X113900000Y-84328000D01*
X114500000Y-83928000D02*
X114500000Y-84728000D01*
D11*
X112500000Y-85028000D02*
X115300000Y-85028000D01*
X112500000Y-83628000D02*
X115300000Y-83628000D01*
D14*
%TO.C,J6*%
X154559000Y-78867000D02*
X146685000Y-78867000D01*
X146685000Y-78867000D02*
X146685000Y-84201000D01*
X146685000Y-84201000D02*
X154559000Y-84201000D01*
X154559000Y-84201000D02*
X154559000Y-78867000D01*
X153416000Y-78155800D02*
G75*
G03*
X153416000Y-78155800I-254000J0D01*
G01*
D11*
%TO.C,R1*%
X169247078Y-71553000D02*
X168729922Y-71553000D01*
X169247078Y-72973000D02*
X168729922Y-72973000D01*
%TO.C,R2*%
X169247078Y-73458000D02*
X168729922Y-73458000D01*
X169247078Y-74878000D02*
X168729922Y-74878000D01*
%TO.C,R3*%
X167381422Y-79831000D02*
X167898578Y-79831000D01*
X167381422Y-78411000D02*
X167898578Y-78411000D01*
%TO.C,R4*%
X163524000Y-98381078D02*
X163524000Y-97863922D01*
X162104000Y-98381078D02*
X162104000Y-97863922D01*
%TO.C,R5*%
X167819000Y-59001922D02*
X167819000Y-59519078D01*
X169239000Y-59001922D02*
X169239000Y-59519078D01*
%TO.C,R6*%
X159206000Y-63426078D02*
X159206000Y-62908922D01*
X157786000Y-63426078D02*
X157786000Y-62908922D01*
%TO.C,R7*%
X155650000Y-63426078D02*
X155650000Y-62908922D01*
X154230000Y-63426078D02*
X154230000Y-62908922D01*
%TO.C,R8*%
X152094000Y-63426078D02*
X152094000Y-62908922D01*
X150674000Y-63426078D02*
X150674000Y-62908922D01*
%TO.C,R9*%
X148538000Y-63426078D02*
X148538000Y-62908922D01*
X147118000Y-63426078D02*
X147118000Y-62908922D01*
%TO.C,R10*%
X144982000Y-63426078D02*
X144982000Y-62908922D01*
X143562000Y-63426078D02*
X143562000Y-62908922D01*
%TO.C,R11*%
X162508000Y-63426078D02*
X162508000Y-62908922D01*
X161088000Y-63426078D02*
X161088000Y-62908922D01*
%TO.C,R12*%
X110240578Y-75871000D02*
X109723422Y-75871000D01*
X110240578Y-77291000D02*
X109723422Y-77291000D01*
%TO.C,R13*%
X110240578Y-83618000D02*
X109723422Y-83618000D01*
X110240578Y-85038000D02*
X109723422Y-85038000D01*
%TO.C,R14*%
X117654000Y-69845422D02*
X117654000Y-70362578D01*
X119074000Y-69845422D02*
X119074000Y-70362578D01*
%TO.C,R15*%
X134314000Y-83316578D02*
X134314000Y-82799422D01*
X132894000Y-83316578D02*
X132894000Y-82799422D01*
%TO.C,R16*%
X113230922Y-54177000D02*
X113748078Y-54177000D01*
X113230922Y-52757000D02*
X113748078Y-52757000D01*
%TO.C,R17*%
X113230922Y-56336000D02*
X113748078Y-56336000D01*
X113230922Y-54916000D02*
X113748078Y-54916000D01*
D14*
%TO.C,U1*%
X117793200Y-128669000D02*
G75*
G03*
X117793200Y-128669000I-76200J0D01*
G01*
D16*
%TO.C,U2*%
G36*
X177292000Y-91186000D02*
G01*
X177292000Y-93218000D01*
X175260000Y-93218000D01*
X177292000Y-91186000D01*
G37*
X177292000Y-91186000D02*
X177292000Y-93218000D01*
X175260000Y-93218000D01*
X177292000Y-91186000D01*
D11*
X177036000Y-80264000D02*
X164336000Y-80264000D01*
X177036000Y-92964000D02*
X164336000Y-92964000D01*
X164336000Y-92964000D02*
X164336000Y-80264000D01*
X177036000Y-92964000D02*
X177036000Y-80264000D01*
D14*
%TO.C,U3*%
X152374001Y-95035000D02*
X152374001Y-96989000D01*
X153683739Y-96989000D02*
X154418261Y-96989000D01*
X155727999Y-96989000D02*
X155727999Y-95035000D01*
D17*
%TO.C,U4*%
X128391000Y-128532000D02*
X128391000Y-127502000D01*
X128391000Y-127502000D02*
X128111000Y-127502000D01*
X128391000Y-129532000D02*
X128391000Y-130562000D01*
X128391000Y-130562000D02*
X128111000Y-130562000D01*
X124111000Y-130562000D02*
X123831000Y-130562000D01*
X123831000Y-130562000D02*
X123831000Y-129532000D01*
X123831000Y-128532000D02*
X123831000Y-127502000D01*
X123831000Y-127502000D02*
X124111000Y-127502000D01*
D13*
X124582000Y-126932000D02*
G75*
G03*
X124582000Y-126932000I-100000J0D01*
G01*
D14*
%TO.C,U5*%
X135534400Y-132295900D02*
X139293600Y-132295900D01*
X139293600Y-132295900D02*
X139293600Y-131829852D01*
X139293600Y-126530100D02*
X135534400Y-126530100D01*
X135534400Y-126530100D02*
X135534400Y-126996148D01*
X135534400Y-131829852D02*
X135534400Y-132295900D01*
X139293600Y-126996148D02*
X139293600Y-126530100D01*
X135117500Y-127538000D02*
G75*
G03*
X135117500Y-127538000I-76200J0D01*
G01*
D11*
%TO.C,U6*%
X114302000Y-92654000D02*
X114302000Y-93584000D01*
X114302000Y-95814000D02*
X114302000Y-94884000D01*
X114302000Y-95814000D02*
X116462000Y-95814000D01*
X114302000Y-92654000D02*
X115762000Y-92654000D01*
D14*
%TO.C,Y1*%
X121513600Y-93075088D02*
X121513600Y-93868912D01*
X124358400Y-93868912D02*
X124358400Y-93075088D01*
D11*
%TO.C,D1*%
X158012000Y-91860000D02*
X158012000Y-93560000D01*
X158012000Y-93560000D02*
X160562000Y-93560000D01*
X158012000Y-91860000D02*
X160562000Y-91860000D01*
%TO.C,D7*%
X119214000Y-64540000D02*
X117514000Y-64540000D01*
X117514000Y-64540000D02*
X117514000Y-67090000D01*
X119214000Y-64540000D02*
X119214000Y-67090000D01*
%TO.C,D8*%
X164892000Y-94704000D02*
X165392000Y-94704000D01*
X165392000Y-93764000D02*
X164892000Y-93764000D01*
%TO.C,J1*%
X173239000Y-69088000D02*
X173239000Y-69468000D01*
X177289000Y-69088000D02*
X177549000Y-69088000D01*
X173239000Y-69088000D02*
X175009000Y-69088000D01*
X173239000Y-76708000D02*
X173239000Y-76328000D01*
X175009000Y-76708000D02*
X173239000Y-76708000D01*
X177549000Y-76708000D02*
X177289000Y-76708000D01*
D10*
%TO.C,U7*%
X130461000Y-91456000D02*
X129436000Y-91456000D01*
X140811000Y-90456000D02*
X139736000Y-90456000D01*
X140811000Y-100806000D02*
X139736000Y-100806000D01*
X130461000Y-100806000D02*
X131536000Y-100806000D01*
X130461000Y-90456000D02*
X131536000Y-90456000D01*
X130461000Y-100806000D02*
X130461000Y-99731000D01*
X140811000Y-100806000D02*
X140811000Y-99731000D01*
X140811000Y-90456000D02*
X140811000Y-91531000D01*
X130461000Y-90456000D02*
X130461000Y-91456000D01*
%TO.C,U8*%
X118661000Y-105191000D02*
X118661000Y-105141000D01*
X114511000Y-105191000D02*
X114511000Y-105046000D01*
X114511000Y-100041000D02*
X114511000Y-100186000D01*
X118661000Y-100041000D02*
X118661000Y-100186000D01*
X118661000Y-105191000D02*
X114511000Y-105191000D01*
X118661000Y-100041000D02*
X114511000Y-100041000D01*
X118661000Y-105141000D02*
X120061000Y-105141000D01*
D11*
%TO.C,F1*%
X173600000Y-103286000D02*
X173600000Y-104486000D01*
X171840000Y-104486000D02*
X171840000Y-103286000D01*
%TO.C,F2*%
X161426000Y-92040000D02*
X161426000Y-90840000D01*
X163186000Y-90840000D02*
X163186000Y-92040000D01*
%TO.C,C8*%
D10*
X160869333Y-95607142D02*
X160821714Y-95654761D01*
X160678857Y-95702380D01*
X160583619Y-95702380D01*
X160440761Y-95654761D01*
X160345523Y-95559523D01*
X160297904Y-95464285D01*
X160250285Y-95273809D01*
X160250285Y-95130952D01*
X160297904Y-94940476D01*
X160345523Y-94845238D01*
X160440761Y-94750000D01*
X160583619Y-94702380D01*
X160678857Y-94702380D01*
X160821714Y-94750000D01*
X160869333Y-94797619D01*
X161440761Y-95130952D02*
X161345523Y-95083333D01*
X161297904Y-95035714D01*
X161250285Y-94940476D01*
X161250285Y-94892857D01*
X161297904Y-94797619D01*
X161345523Y-94750000D01*
X161440761Y-94702380D01*
X161631238Y-94702380D01*
X161726476Y-94750000D01*
X161774095Y-94797619D01*
X161821714Y-94892857D01*
X161821714Y-94940476D01*
X161774095Y-95035714D01*
X161726476Y-95083333D01*
X161631238Y-95130952D01*
X161440761Y-95130952D01*
X161345523Y-95178571D01*
X161297904Y-95226190D01*
X161250285Y-95321428D01*
X161250285Y-95511904D01*
X161297904Y-95607142D01*
X161345523Y-95654761D01*
X161440761Y-95702380D01*
X161631238Y-95702380D01*
X161726476Y-95654761D01*
X161774095Y-95607142D01*
X161821714Y-95511904D01*
X161821714Y-95321428D01*
X161774095Y-95226190D01*
X161726476Y-95178571D01*
X161631238Y-95130952D01*
%TO.C,J12*%
X166068476Y-49490380D02*
X166068476Y-50204666D01*
X166020857Y-50347523D01*
X165925619Y-50442761D01*
X165782761Y-50490380D01*
X165687523Y-50490380D01*
X167068476Y-50490380D02*
X166497047Y-50490380D01*
X166782761Y-50490380D02*
X166782761Y-49490380D01*
X166687523Y-49633238D01*
X166592285Y-49728476D01*
X166497047Y-49776095D01*
X167449428Y-49585619D02*
X167497047Y-49538000D01*
X167592285Y-49490380D01*
X167830380Y-49490380D01*
X167925619Y-49538000D01*
X167973238Y-49585619D01*
X168020857Y-49680857D01*
X168020857Y-49776095D01*
X167973238Y-49918952D01*
X167401809Y-50490380D01*
X168020857Y-50490380D01*
X145437523Y-55429476D02*
X145437523Y-54596142D01*
X145437523Y-54715190D02*
X145497047Y-54655666D01*
X145616095Y-54596142D01*
X145794666Y-54596142D01*
X145913714Y-54655666D01*
X145973238Y-54774714D01*
X145973238Y-55429476D01*
X145973238Y-54774714D02*
X146032761Y-54655666D01*
X146151809Y-54596142D01*
X146330380Y-54596142D01*
X146449428Y-54655666D01*
X146508952Y-54774714D01*
X146508952Y-55429476D01*
X147104190Y-55429476D02*
X147104190Y-54596142D01*
X147104190Y-54179476D02*
X147044666Y-54239000D01*
X147104190Y-54298523D01*
X147163714Y-54239000D01*
X147104190Y-54179476D01*
X147104190Y-54298523D01*
X148235142Y-55369952D02*
X148116095Y-55429476D01*
X147878000Y-55429476D01*
X147758952Y-55369952D01*
X147699428Y-55310428D01*
X147639904Y-55191380D01*
X147639904Y-54834238D01*
X147699428Y-54715190D01*
X147758952Y-54655666D01*
X147878000Y-54596142D01*
X148116095Y-54596142D01*
X148235142Y-54655666D01*
X148770857Y-55429476D02*
X148770857Y-54596142D01*
X148770857Y-54834238D02*
X148830380Y-54715190D01*
X148889904Y-54655666D01*
X149008952Y-54596142D01*
X149128000Y-54596142D01*
X149723238Y-55429476D02*
X149604190Y-55369952D01*
X149544666Y-55310428D01*
X149485142Y-55191380D01*
X149485142Y-54834238D01*
X149544666Y-54715190D01*
X149604190Y-54655666D01*
X149723238Y-54596142D01*
X149901809Y-54596142D01*
X150020857Y-54655666D01*
X150080380Y-54715190D01*
X150139904Y-54834238D01*
X150139904Y-55191380D01*
X150080380Y-55310428D01*
X150020857Y-55369952D01*
X149901809Y-55429476D01*
X149723238Y-55429476D01*
X150616095Y-55369952D02*
X150794666Y-55429476D01*
X151092285Y-55429476D01*
X151211333Y-55369952D01*
X151270857Y-55310428D01*
X151330380Y-55191380D01*
X151330380Y-55072333D01*
X151270857Y-54953285D01*
X151211333Y-54893761D01*
X151092285Y-54834238D01*
X150854190Y-54774714D01*
X150735142Y-54715190D01*
X150675619Y-54655666D01*
X150616095Y-54536619D01*
X150616095Y-54417571D01*
X150675619Y-54298523D01*
X150735142Y-54239000D01*
X150854190Y-54179476D01*
X151151809Y-54179476D01*
X151330380Y-54239000D01*
X151866095Y-55429476D02*
X151866095Y-54179476D01*
X152163714Y-54179476D01*
X152342285Y-54239000D01*
X152461333Y-54358047D01*
X152520857Y-54477095D01*
X152580380Y-54715190D01*
X152580380Y-54893761D01*
X152520857Y-55131857D01*
X152461333Y-55250904D01*
X152342285Y-55369952D01*
X152163714Y-55429476D01*
X151866095Y-55429476D01*
X154068476Y-54953285D02*
X155020857Y-54953285D01*
X155616095Y-54596142D02*
X156568476Y-54953285D01*
X155616095Y-55310428D01*
%TO.C,C1*%
X116419333Y-124817142D02*
X116371714Y-124864761D01*
X116228857Y-124912380D01*
X116133619Y-124912380D01*
X115990761Y-124864761D01*
X115895523Y-124769523D01*
X115847904Y-124674285D01*
X115800285Y-124483809D01*
X115800285Y-124340952D01*
X115847904Y-124150476D01*
X115895523Y-124055238D01*
X115990761Y-123960000D01*
X116133619Y-123912380D01*
X116228857Y-123912380D01*
X116371714Y-123960000D01*
X116419333Y-124007619D01*
X117371714Y-124912380D02*
X116800285Y-124912380D01*
X117086000Y-124912380D02*
X117086000Y-123912380D01*
X116990761Y-124055238D01*
X116895523Y-124150476D01*
X116800285Y-124198095D01*
%TO.C,C2*%
X172807333Y-79859142D02*
X172759714Y-79906761D01*
X172616857Y-79954380D01*
X172521619Y-79954380D01*
X172378761Y-79906761D01*
X172283523Y-79811523D01*
X172235904Y-79716285D01*
X172188285Y-79525809D01*
X172188285Y-79382952D01*
X172235904Y-79192476D01*
X172283523Y-79097238D01*
X172378761Y-79002000D01*
X172521619Y-78954380D01*
X172616857Y-78954380D01*
X172759714Y-79002000D01*
X172807333Y-79049619D01*
X173188285Y-79049619D02*
X173235904Y-79002000D01*
X173331142Y-78954380D01*
X173569238Y-78954380D01*
X173664476Y-79002000D01*
X173712095Y-79049619D01*
X173759714Y-79144857D01*
X173759714Y-79240095D01*
X173712095Y-79382952D01*
X173140666Y-79954380D01*
X173759714Y-79954380D01*
%TO.C,C3*%
X111339333Y-132945142D02*
X111291714Y-132992761D01*
X111148857Y-133040380D01*
X111053619Y-133040380D01*
X110910761Y-132992761D01*
X110815523Y-132897523D01*
X110767904Y-132802285D01*
X110720285Y-132611809D01*
X110720285Y-132468952D01*
X110767904Y-132278476D01*
X110815523Y-132183238D01*
X110910761Y-132088000D01*
X111053619Y-132040380D01*
X111148857Y-132040380D01*
X111291714Y-132088000D01*
X111339333Y-132135619D01*
X111672666Y-132040380D02*
X112291714Y-132040380D01*
X111958380Y-132421333D01*
X112101238Y-132421333D01*
X112196476Y-132468952D01*
X112244095Y-132516571D01*
X112291714Y-132611809D01*
X112291714Y-132849904D01*
X112244095Y-132945142D01*
X112196476Y-132992761D01*
X112101238Y-133040380D01*
X111815523Y-133040380D01*
X111720285Y-132992761D01*
X111672666Y-132945142D01*
%TO.C,C4*%
X113879333Y-132945142D02*
X113831714Y-132992761D01*
X113688857Y-133040380D01*
X113593619Y-133040380D01*
X113450761Y-132992761D01*
X113355523Y-132897523D01*
X113307904Y-132802285D01*
X113260285Y-132611809D01*
X113260285Y-132468952D01*
X113307904Y-132278476D01*
X113355523Y-132183238D01*
X113450761Y-132088000D01*
X113593619Y-132040380D01*
X113688857Y-132040380D01*
X113831714Y-132088000D01*
X113879333Y-132135619D01*
X114736476Y-132373714D02*
X114736476Y-133040380D01*
X114498380Y-131992761D02*
X114260285Y-132707047D01*
X114879333Y-132707047D01*
%TO.C,C5*%
X168997333Y-94845142D02*
X168949714Y-94892761D01*
X168806857Y-94940380D01*
X168711619Y-94940380D01*
X168568761Y-94892761D01*
X168473523Y-94797523D01*
X168425904Y-94702285D01*
X168378285Y-94511809D01*
X168378285Y-94368952D01*
X168425904Y-94178476D01*
X168473523Y-94083238D01*
X168568761Y-93988000D01*
X168711619Y-93940380D01*
X168806857Y-93940380D01*
X168949714Y-93988000D01*
X168997333Y-94035619D01*
X169902095Y-93940380D02*
X169425904Y-93940380D01*
X169378285Y-94416571D01*
X169425904Y-94368952D01*
X169521142Y-94321333D01*
X169759238Y-94321333D01*
X169854476Y-94368952D01*
X169902095Y-94416571D01*
X169949714Y-94511809D01*
X169949714Y-94749904D01*
X169902095Y-94845142D01*
X169854476Y-94892761D01*
X169759238Y-94940380D01*
X169521142Y-94940380D01*
X169425904Y-94892761D01*
X169378285Y-94845142D01*
%TO.C,C6*%
X155535333Y-91289142D02*
X155487714Y-91336761D01*
X155344857Y-91384380D01*
X155249619Y-91384380D01*
X155106761Y-91336761D01*
X155011523Y-91241523D01*
X154963904Y-91146285D01*
X154916285Y-90955809D01*
X154916285Y-90812952D01*
X154963904Y-90622476D01*
X155011523Y-90527238D01*
X155106761Y-90432000D01*
X155249619Y-90384380D01*
X155344857Y-90384380D01*
X155487714Y-90432000D01*
X155535333Y-90479619D01*
X156392476Y-90384380D02*
X156202000Y-90384380D01*
X156106761Y-90432000D01*
X156059142Y-90479619D01*
X155963904Y-90622476D01*
X155916285Y-90812952D01*
X155916285Y-91193904D01*
X155963904Y-91289142D01*
X156011523Y-91336761D01*
X156106761Y-91384380D01*
X156297238Y-91384380D01*
X156392476Y-91336761D01*
X156440095Y-91289142D01*
X156487714Y-91193904D01*
X156487714Y-90955809D01*
X156440095Y-90860571D01*
X156392476Y-90812952D01*
X156297238Y-90765333D01*
X156106761Y-90765333D01*
X156011523Y-90812952D01*
X155963904Y-90860571D01*
X155916285Y-90955809D01*
%TO.C,C7*%
X156297333Y-98909142D02*
X156249714Y-98956761D01*
X156106857Y-99004380D01*
X156011619Y-99004380D01*
X155868761Y-98956761D01*
X155773523Y-98861523D01*
X155725904Y-98766285D01*
X155678285Y-98575809D01*
X155678285Y-98432952D01*
X155725904Y-98242476D01*
X155773523Y-98147238D01*
X155868761Y-98052000D01*
X156011619Y-98004380D01*
X156106857Y-98004380D01*
X156249714Y-98052000D01*
X156297333Y-98099619D01*
X156630666Y-98004380D02*
X157297333Y-98004380D01*
X156868761Y-99004380D01*
%TO.C,C9*%
X126325333Y-122023142D02*
X126277714Y-122070761D01*
X126134857Y-122118380D01*
X126039619Y-122118380D01*
X125896761Y-122070761D01*
X125801523Y-121975523D01*
X125753904Y-121880285D01*
X125706285Y-121689809D01*
X125706285Y-121546952D01*
X125753904Y-121356476D01*
X125801523Y-121261238D01*
X125896761Y-121166000D01*
X126039619Y-121118380D01*
X126134857Y-121118380D01*
X126277714Y-121166000D01*
X126325333Y-121213619D01*
X126801523Y-122118380D02*
X126992000Y-122118380D01*
X127087238Y-122070761D01*
X127134857Y-122023142D01*
X127230095Y-121880285D01*
X127277714Y-121689809D01*
X127277714Y-121308857D01*
X127230095Y-121213619D01*
X127182476Y-121166000D01*
X127087238Y-121118380D01*
X126896761Y-121118380D01*
X126801523Y-121166000D01*
X126753904Y-121213619D01*
X126706285Y-121308857D01*
X126706285Y-121546952D01*
X126753904Y-121642190D01*
X126801523Y-121689809D01*
X126896761Y-121737428D01*
X127087238Y-121737428D01*
X127182476Y-121689809D01*
X127230095Y-121642190D01*
X127277714Y-121546952D01*
%TO.C,C10*%
X122039142Y-125833142D02*
X121991523Y-125880761D01*
X121848666Y-125928380D01*
X121753428Y-125928380D01*
X121610571Y-125880761D01*
X121515333Y-125785523D01*
X121467714Y-125690285D01*
X121420095Y-125499809D01*
X121420095Y-125356952D01*
X121467714Y-125166476D01*
X121515333Y-125071238D01*
X121610571Y-124976000D01*
X121753428Y-124928380D01*
X121848666Y-124928380D01*
X121991523Y-124976000D01*
X122039142Y-125023619D01*
X122991523Y-125928380D02*
X122420095Y-125928380D01*
X122705809Y-125928380D02*
X122705809Y-124928380D01*
X122610571Y-125071238D01*
X122515333Y-125166476D01*
X122420095Y-125214095D01*
X123610571Y-124928380D02*
X123705809Y-124928380D01*
X123801047Y-124976000D01*
X123848666Y-125023619D01*
X123896285Y-125118857D01*
X123943904Y-125309333D01*
X123943904Y-125547428D01*
X123896285Y-125737904D01*
X123848666Y-125833142D01*
X123801047Y-125880761D01*
X123705809Y-125928380D01*
X123610571Y-125928380D01*
X123515333Y-125880761D01*
X123467714Y-125833142D01*
X123420095Y-125737904D01*
X123372476Y-125547428D01*
X123372476Y-125309333D01*
X123420095Y-125118857D01*
X123467714Y-125023619D01*
X123515333Y-124976000D01*
X123610571Y-124928380D01*
%TO.C,C11*%
X130929142Y-127611142D02*
X130881523Y-127658761D01*
X130738666Y-127706380D01*
X130643428Y-127706380D01*
X130500571Y-127658761D01*
X130405333Y-127563523D01*
X130357714Y-127468285D01*
X130310095Y-127277809D01*
X130310095Y-127134952D01*
X130357714Y-126944476D01*
X130405333Y-126849238D01*
X130500571Y-126754000D01*
X130643428Y-126706380D01*
X130738666Y-126706380D01*
X130881523Y-126754000D01*
X130929142Y-126801619D01*
X131881523Y-127706380D02*
X131310095Y-127706380D01*
X131595809Y-127706380D02*
X131595809Y-126706380D01*
X131500571Y-126849238D01*
X131405333Y-126944476D01*
X131310095Y-126992095D01*
X132833904Y-127706380D02*
X132262476Y-127706380D01*
X132548190Y-127706380D02*
X132548190Y-126706380D01*
X132452952Y-126849238D01*
X132357714Y-126944476D01*
X132262476Y-126992095D01*
%TO.C,C12*%
X114435142Y-90297142D02*
X114387523Y-90344761D01*
X114244666Y-90392380D01*
X114149428Y-90392380D01*
X114006571Y-90344761D01*
X113911333Y-90249523D01*
X113863714Y-90154285D01*
X113816095Y-89963809D01*
X113816095Y-89820952D01*
X113863714Y-89630476D01*
X113911333Y-89535238D01*
X114006571Y-89440000D01*
X114149428Y-89392380D01*
X114244666Y-89392380D01*
X114387523Y-89440000D01*
X114435142Y-89487619D01*
X115387523Y-90392380D02*
X114816095Y-90392380D01*
X115101809Y-90392380D02*
X115101809Y-89392380D01*
X115006571Y-89535238D01*
X114911333Y-89630476D01*
X114816095Y-89678095D01*
X115768476Y-89487619D02*
X115816095Y-89440000D01*
X115911333Y-89392380D01*
X116149428Y-89392380D01*
X116244666Y-89440000D01*
X116292285Y-89487619D01*
X116339904Y-89582857D01*
X116339904Y-89678095D01*
X116292285Y-89820952D01*
X115720857Y-90392380D01*
X116339904Y-90392380D01*
%TO.C,C13*%
X119245142Y-91289142D02*
X119197523Y-91336761D01*
X119054666Y-91384380D01*
X118959428Y-91384380D01*
X118816571Y-91336761D01*
X118721333Y-91241523D01*
X118673714Y-91146285D01*
X118626095Y-90955809D01*
X118626095Y-90812952D01*
X118673714Y-90622476D01*
X118721333Y-90527238D01*
X118816571Y-90432000D01*
X118959428Y-90384380D01*
X119054666Y-90384380D01*
X119197523Y-90432000D01*
X119245142Y-90479619D01*
X120197523Y-91384380D02*
X119626095Y-91384380D01*
X119911809Y-91384380D02*
X119911809Y-90384380D01*
X119816571Y-90527238D01*
X119721333Y-90622476D01*
X119626095Y-90670095D01*
X120530857Y-90384380D02*
X121149904Y-90384380D01*
X120816571Y-90765333D01*
X120959428Y-90765333D01*
X121054666Y-90812952D01*
X121102285Y-90860571D01*
X121149904Y-90955809D01*
X121149904Y-91193904D01*
X121102285Y-91289142D01*
X121054666Y-91336761D01*
X120959428Y-91384380D01*
X120673714Y-91384380D01*
X120578476Y-91336761D01*
X120530857Y-91289142D01*
%TO.C,C14*%
X125341142Y-91187542D02*
X125293523Y-91235161D01*
X125150666Y-91282780D01*
X125055428Y-91282780D01*
X124912571Y-91235161D01*
X124817333Y-91139923D01*
X124769714Y-91044685D01*
X124722095Y-90854209D01*
X124722095Y-90711352D01*
X124769714Y-90520876D01*
X124817333Y-90425638D01*
X124912571Y-90330400D01*
X125055428Y-90282780D01*
X125150666Y-90282780D01*
X125293523Y-90330400D01*
X125341142Y-90378019D01*
X126293523Y-91282780D02*
X125722095Y-91282780D01*
X126007809Y-91282780D02*
X126007809Y-90282780D01*
X125912571Y-90425638D01*
X125817333Y-90520876D01*
X125722095Y-90568495D01*
X127150666Y-90616114D02*
X127150666Y-91282780D01*
X126912571Y-90235161D02*
X126674476Y-90949447D01*
X127293523Y-90949447D01*
%TO.C,C15*%
X143629142Y-104497142D02*
X143581523Y-104544761D01*
X143438666Y-104592380D01*
X143343428Y-104592380D01*
X143200571Y-104544761D01*
X143105333Y-104449523D01*
X143057714Y-104354285D01*
X143010095Y-104163809D01*
X143010095Y-104020952D01*
X143057714Y-103830476D01*
X143105333Y-103735238D01*
X143200571Y-103640000D01*
X143343428Y-103592380D01*
X143438666Y-103592380D01*
X143581523Y-103640000D01*
X143629142Y-103687619D01*
X144581523Y-104592380D02*
X144010095Y-104592380D01*
X144295809Y-104592380D02*
X144295809Y-103592380D01*
X144200571Y-103735238D01*
X144105333Y-103830476D01*
X144010095Y-103878095D01*
X145486285Y-103592380D02*
X145010095Y-103592380D01*
X144962476Y-104068571D01*
X145010095Y-104020952D01*
X145105333Y-103973333D01*
X145343428Y-103973333D01*
X145438666Y-104020952D01*
X145486285Y-104068571D01*
X145533904Y-104163809D01*
X145533904Y-104401904D01*
X145486285Y-104497142D01*
X145438666Y-104544761D01*
X145343428Y-104592380D01*
X145105333Y-104592380D01*
X145010095Y-104544761D01*
X144962476Y-104497142D01*
%TO.C,C16*%
X109593142Y-72747142D02*
X109545523Y-72794761D01*
X109402666Y-72842380D01*
X109307428Y-72842380D01*
X109164571Y-72794761D01*
X109069333Y-72699523D01*
X109021714Y-72604285D01*
X108974095Y-72413809D01*
X108974095Y-72270952D01*
X109021714Y-72080476D01*
X109069333Y-71985238D01*
X109164571Y-71890000D01*
X109307428Y-71842380D01*
X109402666Y-71842380D01*
X109545523Y-71890000D01*
X109593142Y-71937619D01*
X110545523Y-72842380D02*
X109974095Y-72842380D01*
X110259809Y-72842380D02*
X110259809Y-71842380D01*
X110164571Y-71985238D01*
X110069333Y-72080476D01*
X109974095Y-72128095D01*
X111402666Y-71842380D02*
X111212190Y-71842380D01*
X111116952Y-71890000D01*
X111069333Y-71937619D01*
X110974095Y-72080476D01*
X110926476Y-72270952D01*
X110926476Y-72651904D01*
X110974095Y-72747142D01*
X111021714Y-72794761D01*
X111116952Y-72842380D01*
X111307428Y-72842380D01*
X111402666Y-72794761D01*
X111450285Y-72747142D01*
X111497904Y-72651904D01*
X111497904Y-72413809D01*
X111450285Y-72318571D01*
X111402666Y-72270952D01*
X111307428Y-72223333D01*
X111116952Y-72223333D01*
X111021714Y-72270952D01*
X110974095Y-72318571D01*
X110926476Y-72413809D01*
X112649000Y-67524380D02*
X112649000Y-67762476D01*
X112410904Y-67667238D02*
X112649000Y-67762476D01*
X112887095Y-67667238D01*
X112506142Y-67952952D02*
X112649000Y-67762476D01*
X112791857Y-67952952D01*
%TO.C,C17*%
X146169142Y-89765142D02*
X146121523Y-89812761D01*
X145978666Y-89860380D01*
X145883428Y-89860380D01*
X145740571Y-89812761D01*
X145645333Y-89717523D01*
X145597714Y-89622285D01*
X145550095Y-89431809D01*
X145550095Y-89288952D01*
X145597714Y-89098476D01*
X145645333Y-89003238D01*
X145740571Y-88908000D01*
X145883428Y-88860380D01*
X145978666Y-88860380D01*
X146121523Y-88908000D01*
X146169142Y-88955619D01*
X147121523Y-89860380D02*
X146550095Y-89860380D01*
X146835809Y-89860380D02*
X146835809Y-88860380D01*
X146740571Y-89003238D01*
X146645333Y-89098476D01*
X146550095Y-89146095D01*
X147454857Y-88860380D02*
X148121523Y-88860380D01*
X147692952Y-89860380D01*
%TO.C,C18*%
X123309142Y-99163142D02*
X123261523Y-99210761D01*
X123118666Y-99258380D01*
X123023428Y-99258380D01*
X122880571Y-99210761D01*
X122785333Y-99115523D01*
X122737714Y-99020285D01*
X122690095Y-98829809D01*
X122690095Y-98686952D01*
X122737714Y-98496476D01*
X122785333Y-98401238D01*
X122880571Y-98306000D01*
X123023428Y-98258380D01*
X123118666Y-98258380D01*
X123261523Y-98306000D01*
X123309142Y-98353619D01*
X124261523Y-99258380D02*
X123690095Y-99258380D01*
X123975809Y-99258380D02*
X123975809Y-98258380D01*
X123880571Y-98401238D01*
X123785333Y-98496476D01*
X123690095Y-98544095D01*
X124832952Y-98686952D02*
X124737714Y-98639333D01*
X124690095Y-98591714D01*
X124642476Y-98496476D01*
X124642476Y-98448857D01*
X124690095Y-98353619D01*
X124737714Y-98306000D01*
X124832952Y-98258380D01*
X125023428Y-98258380D01*
X125118666Y-98306000D01*
X125166285Y-98353619D01*
X125213904Y-98448857D01*
X125213904Y-98496476D01*
X125166285Y-98591714D01*
X125118666Y-98639333D01*
X125023428Y-98686952D01*
X124832952Y-98686952D01*
X124737714Y-98734571D01*
X124690095Y-98782190D01*
X124642476Y-98877428D01*
X124642476Y-99067904D01*
X124690095Y-99163142D01*
X124737714Y-99210761D01*
X124832952Y-99258380D01*
X125023428Y-99258380D01*
X125118666Y-99210761D01*
X125166285Y-99163142D01*
X125213904Y-99067904D01*
X125213904Y-98877428D01*
X125166285Y-98782190D01*
X125118666Y-98734571D01*
X125023428Y-98686952D01*
%TO.C,C19*%
X121531142Y-104497142D02*
X121483523Y-104544761D01*
X121340666Y-104592380D01*
X121245428Y-104592380D01*
X121102571Y-104544761D01*
X121007333Y-104449523D01*
X120959714Y-104354285D01*
X120912095Y-104163809D01*
X120912095Y-104020952D01*
X120959714Y-103830476D01*
X121007333Y-103735238D01*
X121102571Y-103640000D01*
X121245428Y-103592380D01*
X121340666Y-103592380D01*
X121483523Y-103640000D01*
X121531142Y-103687619D01*
X122483523Y-104592380D02*
X121912095Y-104592380D01*
X122197809Y-104592380D02*
X122197809Y-103592380D01*
X122102571Y-103735238D01*
X122007333Y-103830476D01*
X121912095Y-103878095D01*
X122959714Y-104592380D02*
X123150190Y-104592380D01*
X123245428Y-104544761D01*
X123293047Y-104497142D01*
X123388285Y-104354285D01*
X123435904Y-104163809D01*
X123435904Y-103782857D01*
X123388285Y-103687619D01*
X123340666Y-103640000D01*
X123245428Y-103592380D01*
X123054952Y-103592380D01*
X122959714Y-103640000D01*
X122912095Y-103687619D01*
X122864476Y-103782857D01*
X122864476Y-104020952D01*
X122912095Y-104116190D01*
X122959714Y-104163809D01*
X123054952Y-104211428D01*
X123245428Y-104211428D01*
X123340666Y-104163809D01*
X123388285Y-104116190D01*
X123435904Y-104020952D01*
%TO.C,C20*%
X127373142Y-104751142D02*
X127325523Y-104798761D01*
X127182666Y-104846380D01*
X127087428Y-104846380D01*
X126944571Y-104798761D01*
X126849333Y-104703523D01*
X126801714Y-104608285D01*
X126754095Y-104417809D01*
X126754095Y-104274952D01*
X126801714Y-104084476D01*
X126849333Y-103989238D01*
X126944571Y-103894000D01*
X127087428Y-103846380D01*
X127182666Y-103846380D01*
X127325523Y-103894000D01*
X127373142Y-103941619D01*
X127754095Y-103941619D02*
X127801714Y-103894000D01*
X127896952Y-103846380D01*
X128135047Y-103846380D01*
X128230285Y-103894000D01*
X128277904Y-103941619D01*
X128325523Y-104036857D01*
X128325523Y-104132095D01*
X128277904Y-104274952D01*
X127706476Y-104846380D01*
X128325523Y-104846380D01*
X128944571Y-103846380D02*
X129039809Y-103846380D01*
X129135047Y-103894000D01*
X129182666Y-103941619D01*
X129230285Y-104036857D01*
X129277904Y-104227333D01*
X129277904Y-104465428D01*
X129230285Y-104655904D01*
X129182666Y-104751142D01*
X129135047Y-104798761D01*
X129039809Y-104846380D01*
X128944571Y-104846380D01*
X128849333Y-104798761D01*
X128801714Y-104751142D01*
X128754095Y-104655904D01*
X128706476Y-104465428D01*
X128706476Y-104227333D01*
X128754095Y-104036857D01*
X128801714Y-103941619D01*
X128849333Y-103894000D01*
X128944571Y-103846380D01*
%TO.C,C21*%
X143629142Y-106529142D02*
X143581523Y-106576761D01*
X143438666Y-106624380D01*
X143343428Y-106624380D01*
X143200571Y-106576761D01*
X143105333Y-106481523D01*
X143057714Y-106386285D01*
X143010095Y-106195809D01*
X143010095Y-106052952D01*
X143057714Y-105862476D01*
X143105333Y-105767238D01*
X143200571Y-105672000D01*
X143343428Y-105624380D01*
X143438666Y-105624380D01*
X143581523Y-105672000D01*
X143629142Y-105719619D01*
X144010095Y-105719619D02*
X144057714Y-105672000D01*
X144152952Y-105624380D01*
X144391047Y-105624380D01*
X144486285Y-105672000D01*
X144533904Y-105719619D01*
X144581523Y-105814857D01*
X144581523Y-105910095D01*
X144533904Y-106052952D01*
X143962476Y-106624380D01*
X144581523Y-106624380D01*
X145533904Y-106624380D02*
X144962476Y-106624380D01*
X145248190Y-106624380D02*
X145248190Y-105624380D01*
X145152952Y-105767238D01*
X145057714Y-105862476D01*
X144962476Y-105910095D01*
%TO.C,C22*%
X128135142Y-85955142D02*
X128087523Y-86002761D01*
X127944666Y-86050380D01*
X127849428Y-86050380D01*
X127706571Y-86002761D01*
X127611333Y-85907523D01*
X127563714Y-85812285D01*
X127516095Y-85621809D01*
X127516095Y-85478952D01*
X127563714Y-85288476D01*
X127611333Y-85193238D01*
X127706571Y-85098000D01*
X127849428Y-85050380D01*
X127944666Y-85050380D01*
X128087523Y-85098000D01*
X128135142Y-85145619D01*
X128516095Y-85145619D02*
X128563714Y-85098000D01*
X128658952Y-85050380D01*
X128897047Y-85050380D01*
X128992285Y-85098000D01*
X129039904Y-85145619D01*
X129087523Y-85240857D01*
X129087523Y-85336095D01*
X129039904Y-85478952D01*
X128468476Y-86050380D01*
X129087523Y-86050380D01*
X129468476Y-85145619D02*
X129516095Y-85098000D01*
X129611333Y-85050380D01*
X129849428Y-85050380D01*
X129944666Y-85098000D01*
X129992285Y-85145619D01*
X130039904Y-85240857D01*
X130039904Y-85336095D01*
X129992285Y-85478952D01*
X129420857Y-86050380D01*
X130039904Y-86050380D01*
%TO.C,D2*%
X161567904Y-86558380D02*
X161567904Y-85558380D01*
X161806000Y-85558380D01*
X161948857Y-85606000D01*
X162044095Y-85701238D01*
X162091714Y-85796476D01*
X162139333Y-85986952D01*
X162139333Y-86129809D01*
X162091714Y-86320285D01*
X162044095Y-86415523D01*
X161948857Y-86510761D01*
X161806000Y-86558380D01*
X161567904Y-86558380D01*
X162520285Y-85653619D02*
X162567904Y-85606000D01*
X162663142Y-85558380D01*
X162901238Y-85558380D01*
X162996476Y-85606000D01*
X163044095Y-85653619D01*
X163091714Y-85748857D01*
X163091714Y-85844095D01*
X163044095Y-85986952D01*
X162472666Y-86558380D01*
X163091714Y-86558380D01*
%TO.C,D3*%
X158857904Y-101290380D02*
X158857904Y-100290380D01*
X159096000Y-100290380D01*
X159238857Y-100338000D01*
X159334095Y-100433238D01*
X159381714Y-100528476D01*
X159429333Y-100718952D01*
X159429333Y-100861809D01*
X159381714Y-101052285D01*
X159334095Y-101147523D01*
X159238857Y-101242761D01*
X159096000Y-101290380D01*
X158857904Y-101290380D01*
X159762666Y-100290380D02*
X160381714Y-100290380D01*
X160048380Y-100671333D01*
X160191238Y-100671333D01*
X160286476Y-100718952D01*
X160334095Y-100766571D01*
X160381714Y-100861809D01*
X160381714Y-101099904D01*
X160334095Y-101195142D01*
X160286476Y-101242761D01*
X160191238Y-101290380D01*
X159905523Y-101290380D01*
X159810285Y-101242761D01*
X159762666Y-101195142D01*
%TO.C,D4*%
X169949904Y-57094380D02*
X169949904Y-56094380D01*
X170188000Y-56094380D01*
X170330857Y-56142000D01*
X170426095Y-56237238D01*
X170473714Y-56332476D01*
X170521333Y-56522952D01*
X170521333Y-56665809D01*
X170473714Y-56856285D01*
X170426095Y-56951523D01*
X170330857Y-57046761D01*
X170188000Y-57094380D01*
X169949904Y-57094380D01*
X171378476Y-56427714D02*
X171378476Y-57094380D01*
X171140380Y-56046761D02*
X170902285Y-56761047D01*
X171521333Y-56761047D01*
%TO.C,D5*%
X113561904Y-78684380D02*
X113561904Y-77684380D01*
X113800000Y-77684380D01*
X113942857Y-77732000D01*
X114038095Y-77827238D01*
X114085714Y-77922476D01*
X114133333Y-78112952D01*
X114133333Y-78255809D01*
X114085714Y-78446285D01*
X114038095Y-78541523D01*
X113942857Y-78636761D01*
X113800000Y-78684380D01*
X113561904Y-78684380D01*
X115038095Y-77684380D02*
X114561904Y-77684380D01*
X114514285Y-78160571D01*
X114561904Y-78112952D01*
X114657142Y-78065333D01*
X114895238Y-78065333D01*
X114990476Y-78112952D01*
X115038095Y-78160571D01*
X115085714Y-78255809D01*
X115085714Y-78493904D01*
X115038095Y-78589142D01*
X114990476Y-78636761D01*
X114895238Y-78684380D01*
X114657142Y-78684380D01*
X114561904Y-78636761D01*
X114514285Y-78589142D01*
%TO.C,D6*%
X113307904Y-86304380D02*
X113307904Y-85304380D01*
X113546000Y-85304380D01*
X113688857Y-85352000D01*
X113784095Y-85447238D01*
X113831714Y-85542476D01*
X113879333Y-85732952D01*
X113879333Y-85875809D01*
X113831714Y-86066285D01*
X113784095Y-86161523D01*
X113688857Y-86256761D01*
X113546000Y-86304380D01*
X113307904Y-86304380D01*
X114736476Y-85304380D02*
X114546000Y-85304380D01*
X114450761Y-85352000D01*
X114403142Y-85399619D01*
X114307904Y-85542476D01*
X114260285Y-85732952D01*
X114260285Y-86113904D01*
X114307904Y-86209142D01*
X114355523Y-86256761D01*
X114450761Y-86304380D01*
X114641238Y-86304380D01*
X114736476Y-86256761D01*
X114784095Y-86209142D01*
X114831714Y-86113904D01*
X114831714Y-85875809D01*
X114784095Y-85780571D01*
X114736476Y-85732952D01*
X114641238Y-85685333D01*
X114450761Y-85685333D01*
X114355523Y-85732952D01*
X114307904Y-85780571D01*
X114260285Y-85875809D01*
%TO.C,J2*%
X175434666Y-93686380D02*
X175434666Y-94400666D01*
X175387047Y-94543523D01*
X175291809Y-94638761D01*
X175148952Y-94686380D01*
X175053714Y-94686380D01*
X175863238Y-93781619D02*
X175910857Y-93734000D01*
X176006095Y-93686380D01*
X176244190Y-93686380D01*
X176339428Y-93734000D01*
X176387047Y-93781619D01*
X176434666Y-93876857D01*
X176434666Y-93972095D01*
X176387047Y-94114952D01*
X175815619Y-94686380D01*
X176434666Y-94686380D01*
%TO.C,J3*%
X175434666Y-106640380D02*
X175434666Y-107354666D01*
X175387047Y-107497523D01*
X175291809Y-107592761D01*
X175148952Y-107640380D01*
X175053714Y-107640380D01*
X175815619Y-106640380D02*
X176434666Y-106640380D01*
X176101333Y-107021333D01*
X176244190Y-107021333D01*
X176339428Y-107068952D01*
X176387047Y-107116571D01*
X176434666Y-107211809D01*
X176434666Y-107449904D01*
X176387047Y-107545142D01*
X176339428Y-107592761D01*
X176244190Y-107640380D01*
X175958476Y-107640380D01*
X175863238Y-107592761D01*
X175815619Y-107545142D01*
%TO.C,J4*%
X142414666Y-49744380D02*
X142414666Y-50458666D01*
X142367047Y-50601523D01*
X142271809Y-50696761D01*
X142128952Y-50744380D01*
X142033714Y-50744380D01*
X143319428Y-50077714D02*
X143319428Y-50744380D01*
X143081333Y-49696761D02*
X142843238Y-50411047D01*
X143462285Y-50411047D01*
%TO.C,J5*%
X144954666Y-145248380D02*
X144954666Y-145962666D01*
X144907047Y-146105523D01*
X144811809Y-146200761D01*
X144668952Y-146248380D01*
X144573714Y-146248380D01*
X145907047Y-145248380D02*
X145430857Y-145248380D01*
X145383238Y-145724571D01*
X145430857Y-145676952D01*
X145526095Y-145629333D01*
X145764190Y-145629333D01*
X145859428Y-145676952D01*
X145907047Y-145724571D01*
X145954666Y-145819809D01*
X145954666Y-146057904D01*
X145907047Y-146153142D01*
X145859428Y-146200761D01*
X145764190Y-146248380D01*
X145526095Y-146248380D01*
X145430857Y-146200761D01*
X145383238Y-146153142D01*
%TO.C,J6*%
X155114666Y-80986380D02*
X155114666Y-81700666D01*
X155067047Y-81843523D01*
X154971809Y-81938761D01*
X154828952Y-81986380D01*
X154733714Y-81986380D01*
X156019428Y-80986380D02*
X155828952Y-80986380D01*
X155733714Y-81034000D01*
X155686095Y-81081619D01*
X155590857Y-81224476D01*
X155543238Y-81414952D01*
X155543238Y-81795904D01*
X155590857Y-81891142D01*
X155638476Y-81938761D01*
X155733714Y-81986380D01*
X155924190Y-81986380D01*
X156019428Y-81938761D01*
X156067047Y-81891142D01*
X156114666Y-81795904D01*
X156114666Y-81557809D01*
X156067047Y-81462571D01*
X156019428Y-81414952D01*
X155924190Y-81367333D01*
X155733714Y-81367333D01*
X155638476Y-81414952D01*
X155590857Y-81462571D01*
X155543238Y-81557809D01*
X153162000Y-79716380D02*
X153162000Y-79954476D01*
X152923904Y-79859238D02*
X153162000Y-79954476D01*
X153400095Y-79859238D01*
X153019142Y-80144952D02*
X153162000Y-79954476D01*
X153304857Y-80144952D01*
%TO.C,J7*%
X110918666Y-49744380D02*
X110918666Y-50458666D01*
X110871047Y-50601523D01*
X110775809Y-50696761D01*
X110632952Y-50744380D01*
X110537714Y-50744380D01*
X111299619Y-49744380D02*
X111966285Y-49744380D01*
X111537714Y-50744380D01*
%TO.C,J8*%
X101012666Y-101814380D02*
X101012666Y-102528666D01*
X100965047Y-102671523D01*
X100869809Y-102766761D01*
X100726952Y-102814380D01*
X100631714Y-102814380D01*
X101631714Y-102242952D02*
X101536476Y-102195333D01*
X101488857Y-102147714D01*
X101441238Y-102052476D01*
X101441238Y-102004857D01*
X101488857Y-101909619D01*
X101536476Y-101862000D01*
X101631714Y-101814380D01*
X101822190Y-101814380D01*
X101917428Y-101862000D01*
X101965047Y-101909619D01*
X102012666Y-102004857D01*
X102012666Y-102052476D01*
X101965047Y-102147714D01*
X101917428Y-102195333D01*
X101822190Y-102242952D01*
X101631714Y-102242952D01*
X101536476Y-102290571D01*
X101488857Y-102338190D01*
X101441238Y-102433428D01*
X101441238Y-102623904D01*
X101488857Y-102719142D01*
X101536476Y-102766761D01*
X101631714Y-102814380D01*
X101822190Y-102814380D01*
X101917428Y-102766761D01*
X101965047Y-102719142D01*
X102012666Y-102623904D01*
X102012666Y-102433428D01*
X101965047Y-102338190D01*
X101917428Y-102290571D01*
X101822190Y-102242952D01*
%TO.C,J9*%
X101012666Y-123912380D02*
X101012666Y-124626666D01*
X100965047Y-124769523D01*
X100869809Y-124864761D01*
X100726952Y-124912380D01*
X100631714Y-124912380D01*
X101536476Y-124912380D02*
X101726952Y-124912380D01*
X101822190Y-124864761D01*
X101869809Y-124817142D01*
X101965047Y-124674285D01*
X102012666Y-124483809D01*
X102012666Y-124102857D01*
X101965047Y-124007619D01*
X101917428Y-123960000D01*
X101822190Y-123912380D01*
X101631714Y-123912380D01*
X101536476Y-123960000D01*
X101488857Y-124007619D01*
X101441238Y-124102857D01*
X101441238Y-124340952D01*
X101488857Y-124436190D01*
X101536476Y-124483809D01*
X101631714Y-124531428D01*
X101822190Y-124531428D01*
X101917428Y-124483809D01*
X101965047Y-124436190D01*
X102012666Y-124340952D01*
%TO.C,J10*%
X174958476Y-136358380D02*
X174958476Y-137072666D01*
X174910857Y-137215523D01*
X174815619Y-137310761D01*
X174672761Y-137358380D01*
X174577523Y-137358380D01*
X175958476Y-137358380D02*
X175387047Y-137358380D01*
X175672761Y-137358380D02*
X175672761Y-136358380D01*
X175577523Y-136501238D01*
X175482285Y-136596476D01*
X175387047Y-136644095D01*
X176577523Y-136358380D02*
X176672761Y-136358380D01*
X176768000Y-136406000D01*
X176815619Y-136453619D01*
X176863238Y-136548857D01*
X176910857Y-136739333D01*
X176910857Y-136977428D01*
X176863238Y-137167904D01*
X176815619Y-137263142D01*
X176768000Y-137310761D01*
X176672761Y-137358380D01*
X176577523Y-137358380D01*
X176482285Y-137310761D01*
X176434666Y-137263142D01*
X176387047Y-137167904D01*
X176339428Y-136977428D01*
X176339428Y-136739333D01*
X176387047Y-136548857D01*
X176434666Y-136453619D01*
X176482285Y-136406000D01*
X176577523Y-136358380D01*
%TO.C,J11*%
X174958476Y-59142380D02*
X174958476Y-59856666D01*
X174910857Y-59999523D01*
X174815619Y-60094761D01*
X174672761Y-60142380D01*
X174577523Y-60142380D01*
X175958476Y-60142380D02*
X175387047Y-60142380D01*
X175672761Y-60142380D02*
X175672761Y-59142380D01*
X175577523Y-59285238D01*
X175482285Y-59380476D01*
X175387047Y-59428095D01*
X176910857Y-60142380D02*
X176339428Y-60142380D01*
X176625142Y-60142380D02*
X176625142Y-59142380D01*
X176529904Y-59285238D01*
X176434666Y-59380476D01*
X176339428Y-59428095D01*
%TO.C,R1*%
X167473333Y-71064380D02*
X167140000Y-70588190D01*
X166901904Y-71064380D02*
X166901904Y-70064380D01*
X167282857Y-70064380D01*
X167378095Y-70112000D01*
X167425714Y-70159619D01*
X167473333Y-70254857D01*
X167473333Y-70397714D01*
X167425714Y-70492952D01*
X167378095Y-70540571D01*
X167282857Y-70588190D01*
X166901904Y-70588190D01*
X168425714Y-71064380D02*
X167854285Y-71064380D01*
X168140000Y-71064380D02*
X168140000Y-70064380D01*
X168044761Y-70207238D01*
X167949523Y-70302476D01*
X167854285Y-70350095D01*
%TO.C,R2*%
X168235333Y-76398380D02*
X167902000Y-75922190D01*
X167663904Y-76398380D02*
X167663904Y-75398380D01*
X168044857Y-75398380D01*
X168140095Y-75446000D01*
X168187714Y-75493619D01*
X168235333Y-75588857D01*
X168235333Y-75731714D01*
X168187714Y-75826952D01*
X168140095Y-75874571D01*
X168044857Y-75922190D01*
X167663904Y-75922190D01*
X168616285Y-75493619D02*
X168663904Y-75446000D01*
X168759142Y-75398380D01*
X168997238Y-75398380D01*
X169092476Y-75446000D01*
X169140095Y-75493619D01*
X169187714Y-75588857D01*
X169187714Y-75684095D01*
X169140095Y-75826952D01*
X168568666Y-76398380D01*
X169187714Y-76398380D01*
%TO.C,R3*%
X164425333Y-79192380D02*
X164092000Y-78716190D01*
X163853904Y-79192380D02*
X163853904Y-78192380D01*
X164234857Y-78192380D01*
X164330095Y-78240000D01*
X164377714Y-78287619D01*
X164425333Y-78382857D01*
X164425333Y-78525714D01*
X164377714Y-78620952D01*
X164330095Y-78668571D01*
X164234857Y-78716190D01*
X163853904Y-78716190D01*
X164758666Y-78192380D02*
X165377714Y-78192380D01*
X165044380Y-78573333D01*
X165187238Y-78573333D01*
X165282476Y-78620952D01*
X165330095Y-78668571D01*
X165377714Y-78763809D01*
X165377714Y-79001904D01*
X165330095Y-79097142D01*
X165282476Y-79144761D01*
X165187238Y-79192380D01*
X164901523Y-79192380D01*
X164806285Y-79144761D01*
X164758666Y-79097142D01*
%TO.C,R4*%
X162647333Y-101290380D02*
X162314000Y-100814190D01*
X162075904Y-101290380D02*
X162075904Y-100290380D01*
X162456857Y-100290380D01*
X162552095Y-100338000D01*
X162599714Y-100385619D01*
X162647333Y-100480857D01*
X162647333Y-100623714D01*
X162599714Y-100718952D01*
X162552095Y-100766571D01*
X162456857Y-100814190D01*
X162075904Y-100814190D01*
X163504476Y-100623714D02*
X163504476Y-101290380D01*
X163266380Y-100242761D02*
X163028285Y-100957047D01*
X163647333Y-100957047D01*
%TO.C,R5*%
X168235333Y-57094380D02*
X167902000Y-56618190D01*
X167663904Y-57094380D02*
X167663904Y-56094380D01*
X168044857Y-56094380D01*
X168140095Y-56142000D01*
X168187714Y-56189619D01*
X168235333Y-56284857D01*
X168235333Y-56427714D01*
X168187714Y-56522952D01*
X168140095Y-56570571D01*
X168044857Y-56618190D01*
X167663904Y-56618190D01*
X169140095Y-56094380D02*
X168663904Y-56094380D01*
X168616285Y-56570571D01*
X168663904Y-56522952D01*
X168759142Y-56475333D01*
X168997238Y-56475333D01*
X169092476Y-56522952D01*
X169140095Y-56570571D01*
X169187714Y-56665809D01*
X169187714Y-56903904D01*
X169140095Y-56999142D01*
X169092476Y-57046761D01*
X168997238Y-57094380D01*
X168759142Y-57094380D01*
X168663904Y-57046761D01*
X168616285Y-56999142D01*
%TO.C,R6*%
X157059333Y-66238380D02*
X156726000Y-65762190D01*
X156487904Y-66238380D02*
X156487904Y-65238380D01*
X156868857Y-65238380D01*
X156964095Y-65286000D01*
X157011714Y-65333619D01*
X157059333Y-65428857D01*
X157059333Y-65571714D01*
X157011714Y-65666952D01*
X156964095Y-65714571D01*
X156868857Y-65762190D01*
X156487904Y-65762190D01*
X157916476Y-65238380D02*
X157726000Y-65238380D01*
X157630761Y-65286000D01*
X157583142Y-65333619D01*
X157487904Y-65476476D01*
X157440285Y-65666952D01*
X157440285Y-66047904D01*
X157487904Y-66143142D01*
X157535523Y-66190761D01*
X157630761Y-66238380D01*
X157821238Y-66238380D01*
X157916476Y-66190761D01*
X157964095Y-66143142D01*
X158011714Y-66047904D01*
X158011714Y-65809809D01*
X157964095Y-65714571D01*
X157916476Y-65666952D01*
X157821238Y-65619333D01*
X157630761Y-65619333D01*
X157535523Y-65666952D01*
X157487904Y-65714571D01*
X157440285Y-65809809D01*
%TO.C,R7*%
X153503333Y-66238380D02*
X153170000Y-65762190D01*
X152931904Y-66238380D02*
X152931904Y-65238380D01*
X153312857Y-65238380D01*
X153408095Y-65286000D01*
X153455714Y-65333619D01*
X153503333Y-65428857D01*
X153503333Y-65571714D01*
X153455714Y-65666952D01*
X153408095Y-65714571D01*
X153312857Y-65762190D01*
X152931904Y-65762190D01*
X153836666Y-65238380D02*
X154503333Y-65238380D01*
X154074761Y-66238380D01*
%TO.C,R8*%
X149947333Y-66238380D02*
X149614000Y-65762190D01*
X149375904Y-66238380D02*
X149375904Y-65238380D01*
X149756857Y-65238380D01*
X149852095Y-65286000D01*
X149899714Y-65333619D01*
X149947333Y-65428857D01*
X149947333Y-65571714D01*
X149899714Y-65666952D01*
X149852095Y-65714571D01*
X149756857Y-65762190D01*
X149375904Y-65762190D01*
X150518761Y-65666952D02*
X150423523Y-65619333D01*
X150375904Y-65571714D01*
X150328285Y-65476476D01*
X150328285Y-65428857D01*
X150375904Y-65333619D01*
X150423523Y-65286000D01*
X150518761Y-65238380D01*
X150709238Y-65238380D01*
X150804476Y-65286000D01*
X150852095Y-65333619D01*
X150899714Y-65428857D01*
X150899714Y-65476476D01*
X150852095Y-65571714D01*
X150804476Y-65619333D01*
X150709238Y-65666952D01*
X150518761Y-65666952D01*
X150423523Y-65714571D01*
X150375904Y-65762190D01*
X150328285Y-65857428D01*
X150328285Y-66047904D01*
X150375904Y-66143142D01*
X150423523Y-66190761D01*
X150518761Y-66238380D01*
X150709238Y-66238380D01*
X150804476Y-66190761D01*
X150852095Y-66143142D01*
X150899714Y-66047904D01*
X150899714Y-65857428D01*
X150852095Y-65762190D01*
X150804476Y-65714571D01*
X150709238Y-65666952D01*
%TO.C,R9*%
X146391333Y-66238380D02*
X146058000Y-65762190D01*
X145819904Y-66238380D02*
X145819904Y-65238380D01*
X146200857Y-65238380D01*
X146296095Y-65286000D01*
X146343714Y-65333619D01*
X146391333Y-65428857D01*
X146391333Y-65571714D01*
X146343714Y-65666952D01*
X146296095Y-65714571D01*
X146200857Y-65762190D01*
X145819904Y-65762190D01*
X146867523Y-66238380D02*
X147058000Y-66238380D01*
X147153238Y-66190761D01*
X147200857Y-66143142D01*
X147296095Y-66000285D01*
X147343714Y-65809809D01*
X147343714Y-65428857D01*
X147296095Y-65333619D01*
X147248476Y-65286000D01*
X147153238Y-65238380D01*
X146962761Y-65238380D01*
X146867523Y-65286000D01*
X146819904Y-65333619D01*
X146772285Y-65428857D01*
X146772285Y-65666952D01*
X146819904Y-65762190D01*
X146867523Y-65809809D01*
X146962761Y-65857428D01*
X147153238Y-65857428D01*
X147248476Y-65809809D01*
X147296095Y-65762190D01*
X147343714Y-65666952D01*
%TO.C,R10*%
X141089142Y-62682380D02*
X140755809Y-62206190D01*
X140517714Y-62682380D02*
X140517714Y-61682380D01*
X140898666Y-61682380D01*
X140993904Y-61730000D01*
X141041523Y-61777619D01*
X141089142Y-61872857D01*
X141089142Y-62015714D01*
X141041523Y-62110952D01*
X140993904Y-62158571D01*
X140898666Y-62206190D01*
X140517714Y-62206190D01*
X142041523Y-62682380D02*
X141470095Y-62682380D01*
X141755809Y-62682380D02*
X141755809Y-61682380D01*
X141660571Y-61825238D01*
X141565333Y-61920476D01*
X141470095Y-61968095D01*
X142660571Y-61682380D02*
X142755809Y-61682380D01*
X142851047Y-61730000D01*
X142898666Y-61777619D01*
X142946285Y-61872857D01*
X142993904Y-62063333D01*
X142993904Y-62301428D01*
X142946285Y-62491904D01*
X142898666Y-62587142D01*
X142851047Y-62634761D01*
X142755809Y-62682380D01*
X142660571Y-62682380D01*
X142565333Y-62634761D01*
X142517714Y-62587142D01*
X142470095Y-62491904D01*
X142422476Y-62301428D01*
X142422476Y-62063333D01*
X142470095Y-61872857D01*
X142517714Y-61777619D01*
X142565333Y-61730000D01*
X142660571Y-61682380D01*
%TO.C,R11*%
X161409142Y-66238380D02*
X161075809Y-65762190D01*
X160837714Y-66238380D02*
X160837714Y-65238380D01*
X161218666Y-65238380D01*
X161313904Y-65286000D01*
X161361523Y-65333619D01*
X161409142Y-65428857D01*
X161409142Y-65571714D01*
X161361523Y-65666952D01*
X161313904Y-65714571D01*
X161218666Y-65762190D01*
X160837714Y-65762190D01*
X162361523Y-66238380D02*
X161790095Y-66238380D01*
X162075809Y-66238380D02*
X162075809Y-65238380D01*
X161980571Y-65381238D01*
X161885333Y-65476476D01*
X161790095Y-65524095D01*
X163313904Y-66238380D02*
X162742476Y-66238380D01*
X163028190Y-66238380D02*
X163028190Y-65238380D01*
X162932952Y-65381238D01*
X162837714Y-65476476D01*
X162742476Y-65524095D01*
%TO.C,R12*%
X109339142Y-78683380D02*
X109005809Y-78207190D01*
X108767714Y-78683380D02*
X108767714Y-77683380D01*
X109148666Y-77683380D01*
X109243904Y-77731000D01*
X109291523Y-77778619D01*
X109339142Y-77873857D01*
X109339142Y-78016714D01*
X109291523Y-78111952D01*
X109243904Y-78159571D01*
X109148666Y-78207190D01*
X108767714Y-78207190D01*
X110291523Y-78683380D02*
X109720095Y-78683380D01*
X110005809Y-78683380D02*
X110005809Y-77683380D01*
X109910571Y-77826238D01*
X109815333Y-77921476D01*
X109720095Y-77969095D01*
X110672476Y-77778619D02*
X110720095Y-77731000D01*
X110815333Y-77683380D01*
X111053428Y-77683380D01*
X111148666Y-77731000D01*
X111196285Y-77778619D01*
X111243904Y-77873857D01*
X111243904Y-77969095D01*
X111196285Y-78111952D01*
X110624857Y-78683380D01*
X111243904Y-78683380D01*
%TO.C,R13*%
X109339142Y-86430380D02*
X109005809Y-85954190D01*
X108767714Y-86430380D02*
X108767714Y-85430380D01*
X109148666Y-85430380D01*
X109243904Y-85478000D01*
X109291523Y-85525619D01*
X109339142Y-85620857D01*
X109339142Y-85763714D01*
X109291523Y-85858952D01*
X109243904Y-85906571D01*
X109148666Y-85954190D01*
X108767714Y-85954190D01*
X110291523Y-86430380D02*
X109720095Y-86430380D01*
X110005809Y-86430380D02*
X110005809Y-85430380D01*
X109910571Y-85573238D01*
X109815333Y-85668476D01*
X109720095Y-85716095D01*
X110624857Y-85430380D02*
X111243904Y-85430380D01*
X110910571Y-85811333D01*
X111053428Y-85811333D01*
X111148666Y-85858952D01*
X111196285Y-85906571D01*
X111243904Y-86001809D01*
X111243904Y-86239904D01*
X111196285Y-86335142D01*
X111148666Y-86382761D01*
X111053428Y-86430380D01*
X110767714Y-86430380D01*
X110672476Y-86382761D01*
X110624857Y-86335142D01*
%TO.C,R14*%
X120261142Y-69540380D02*
X119927809Y-69064190D01*
X119689714Y-69540380D02*
X119689714Y-68540380D01*
X120070666Y-68540380D01*
X120165904Y-68588000D01*
X120213523Y-68635619D01*
X120261142Y-68730857D01*
X120261142Y-68873714D01*
X120213523Y-68968952D01*
X120165904Y-69016571D01*
X120070666Y-69064190D01*
X119689714Y-69064190D01*
X121213523Y-69540380D02*
X120642095Y-69540380D01*
X120927809Y-69540380D02*
X120927809Y-68540380D01*
X120832571Y-68683238D01*
X120737333Y-68778476D01*
X120642095Y-68826095D01*
X122070666Y-68873714D02*
X122070666Y-69540380D01*
X121832571Y-68492761D02*
X121594476Y-69207047D01*
X122213523Y-69207047D01*
%TO.C,R15*%
X130421142Y-82494380D02*
X130087809Y-82018190D01*
X129849714Y-82494380D02*
X129849714Y-81494380D01*
X130230666Y-81494380D01*
X130325904Y-81542000D01*
X130373523Y-81589619D01*
X130421142Y-81684857D01*
X130421142Y-81827714D01*
X130373523Y-81922952D01*
X130325904Y-81970571D01*
X130230666Y-82018190D01*
X129849714Y-82018190D01*
X131373523Y-82494380D02*
X130802095Y-82494380D01*
X131087809Y-82494380D02*
X131087809Y-81494380D01*
X130992571Y-81637238D01*
X130897333Y-81732476D01*
X130802095Y-81780095D01*
X132278285Y-81494380D02*
X131802095Y-81494380D01*
X131754476Y-81970571D01*
X131802095Y-81922952D01*
X131897333Y-81875333D01*
X132135428Y-81875333D01*
X132230666Y-81922952D01*
X132278285Y-81970571D01*
X132325904Y-82065809D01*
X132325904Y-82303904D01*
X132278285Y-82399142D01*
X132230666Y-82446761D01*
X132135428Y-82494380D01*
X131897333Y-82494380D01*
X131802095Y-82446761D01*
X131754476Y-82399142D01*
%TO.C,R16*%
X109593142Y-53538380D02*
X109259809Y-53062190D01*
X109021714Y-53538380D02*
X109021714Y-52538380D01*
X109402666Y-52538380D01*
X109497904Y-52586000D01*
X109545523Y-52633619D01*
X109593142Y-52728857D01*
X109593142Y-52871714D01*
X109545523Y-52966952D01*
X109497904Y-53014571D01*
X109402666Y-53062190D01*
X109021714Y-53062190D01*
X110545523Y-53538380D02*
X109974095Y-53538380D01*
X110259809Y-53538380D02*
X110259809Y-52538380D01*
X110164571Y-52681238D01*
X110069333Y-52776476D01*
X109974095Y-52824095D01*
X111402666Y-52538380D02*
X111212190Y-52538380D01*
X111116952Y-52586000D01*
X111069333Y-52633619D01*
X110974095Y-52776476D01*
X110926476Y-52966952D01*
X110926476Y-53347904D01*
X110974095Y-53443142D01*
X111021714Y-53490761D01*
X111116952Y-53538380D01*
X111307428Y-53538380D01*
X111402666Y-53490761D01*
X111450285Y-53443142D01*
X111497904Y-53347904D01*
X111497904Y-53109809D01*
X111450285Y-53014571D01*
X111402666Y-52966952D01*
X111307428Y-52919333D01*
X111116952Y-52919333D01*
X111021714Y-52966952D01*
X110974095Y-53014571D01*
X110926476Y-53109809D01*
%TO.C,R17*%
X109593142Y-55824380D02*
X109259809Y-55348190D01*
X109021714Y-55824380D02*
X109021714Y-54824380D01*
X109402666Y-54824380D01*
X109497904Y-54872000D01*
X109545523Y-54919619D01*
X109593142Y-55014857D01*
X109593142Y-55157714D01*
X109545523Y-55252952D01*
X109497904Y-55300571D01*
X109402666Y-55348190D01*
X109021714Y-55348190D01*
X110545523Y-55824380D02*
X109974095Y-55824380D01*
X110259809Y-55824380D02*
X110259809Y-54824380D01*
X110164571Y-54967238D01*
X110069333Y-55062476D01*
X109974095Y-55110095D01*
X110878857Y-54824380D02*
X111545523Y-54824380D01*
X111116952Y-55824380D01*
%TO.C,U1*%
X119126095Y-129246380D02*
X119126095Y-130055904D01*
X119173714Y-130151142D01*
X119221333Y-130198761D01*
X119316571Y-130246380D01*
X119507047Y-130246380D01*
X119602285Y-130198761D01*
X119649904Y-130151142D01*
X119697523Y-130055904D01*
X119697523Y-129246380D01*
X120697523Y-130246380D02*
X120126095Y-130246380D01*
X120411809Y-130246380D02*
X120411809Y-129246380D01*
X120316571Y-129389238D01*
X120221333Y-129484476D01*
X120126095Y-129532095D01*
X118324380Y-128524000D02*
X118562476Y-128524000D01*
X118467238Y-128762095D02*
X118562476Y-128524000D01*
X118467238Y-128285904D01*
X118752952Y-128666857D02*
X118562476Y-128524000D01*
X118752952Y-128381142D01*
%TO.C,U2*%
X170053095Y-85558380D02*
X170053095Y-86367904D01*
X170100714Y-86463142D01*
X170148333Y-86510761D01*
X170243571Y-86558380D01*
X170434047Y-86558380D01*
X170529285Y-86510761D01*
X170576904Y-86463142D01*
X170624523Y-86367904D01*
X170624523Y-85558380D01*
X171053095Y-85653619D02*
X171100714Y-85606000D01*
X171195952Y-85558380D01*
X171434047Y-85558380D01*
X171529285Y-85606000D01*
X171576904Y-85653619D01*
X171624523Y-85748857D01*
X171624523Y-85844095D01*
X171576904Y-85986952D01*
X171005476Y-86558380D01*
X171624523Y-86558380D01*
X176815714Y-89606380D02*
X176244285Y-89606380D01*
X176530000Y-89606380D02*
X176530000Y-88606380D01*
X176434761Y-88749238D01*
X176339523Y-88844476D01*
X176244285Y-88892095D01*
%TO.C,U3*%
X150368095Y-95464380D02*
X150368095Y-96273904D01*
X150415714Y-96369142D01*
X150463333Y-96416761D01*
X150558571Y-96464380D01*
X150749047Y-96464380D01*
X150844285Y-96416761D01*
X150891904Y-96369142D01*
X150939523Y-96273904D01*
X150939523Y-95464380D01*
X151320476Y-95464380D02*
X151939523Y-95464380D01*
X151606190Y-95845333D01*
X151749047Y-95845333D01*
X151844285Y-95892952D01*
X151891904Y-95940571D01*
X151939523Y-96035809D01*
X151939523Y-96273904D01*
X151891904Y-96369142D01*
X151844285Y-96416761D01*
X151749047Y-96464380D01*
X151463333Y-96464380D01*
X151368095Y-96416761D01*
X151320476Y-96369142D01*
X156096380Y-94405200D02*
X156334476Y-94405200D01*
X156239238Y-94643295D02*
X156334476Y-94405200D01*
X156239238Y-94167104D01*
X156524952Y-94548057D02*
X156334476Y-94405200D01*
X156524952Y-94262342D01*
X156096380Y-94405200D02*
X156334476Y-94405200D01*
X156239238Y-94643295D02*
X156334476Y-94405200D01*
X156239238Y-94167104D01*
X156524952Y-94548057D02*
X156334476Y-94405200D01*
X156524952Y-94262342D01*
%TO.C,U4*%
X121666095Y-127468380D02*
X121666095Y-128277904D01*
X121713714Y-128373142D01*
X121761333Y-128420761D01*
X121856571Y-128468380D01*
X122047047Y-128468380D01*
X122142285Y-128420761D01*
X122189904Y-128373142D01*
X122237523Y-128277904D01*
X122237523Y-127468380D01*
X123142285Y-127801714D02*
X123142285Y-128468380D01*
X122904190Y-127420761D02*
X122666095Y-128135047D01*
X123285142Y-128135047D01*
%TO.C,U5*%
X133604095Y-132294380D02*
X133604095Y-133103904D01*
X133651714Y-133199142D01*
X133699333Y-133246761D01*
X133794571Y-133294380D01*
X133985047Y-133294380D01*
X134080285Y-133246761D01*
X134127904Y-133199142D01*
X134175523Y-133103904D01*
X134175523Y-132294380D01*
X135127904Y-132294380D02*
X134651714Y-132294380D01*
X134604095Y-132770571D01*
X134651714Y-132722952D01*
X134746952Y-132675333D01*
X134985047Y-132675333D01*
X135080285Y-132722952D01*
X135127904Y-132770571D01*
X135175523Y-132865809D01*
X135175523Y-133103904D01*
X135127904Y-133199142D01*
X135080285Y-133246761D01*
X134985047Y-133294380D01*
X134746952Y-133294380D01*
X134651714Y-133246761D01*
X134604095Y-133199142D01*
X135382000Y-125690380D02*
X135382000Y-125928476D01*
X135143904Y-125833238D02*
X135382000Y-125928476D01*
X135620095Y-125833238D01*
X135239142Y-126118952D02*
X135382000Y-125928476D01*
X135524857Y-126118952D01*
%TO.C,U6*%
X114300095Y-96186380D02*
X114300095Y-96995904D01*
X114347714Y-97091142D01*
X114395333Y-97138761D01*
X114490571Y-97186380D01*
X114681047Y-97186380D01*
X114776285Y-97138761D01*
X114823904Y-97091142D01*
X114871523Y-96995904D01*
X114871523Y-96186380D01*
X115776285Y-96186380D02*
X115585809Y-96186380D01*
X115490571Y-96234000D01*
X115442952Y-96281619D01*
X115347714Y-96424476D01*
X115300095Y-96614952D01*
X115300095Y-96995904D01*
X115347714Y-97091142D01*
X115395333Y-97138761D01*
X115490571Y-97186380D01*
X115681047Y-97186380D01*
X115776285Y-97138761D01*
X115823904Y-97091142D01*
X115871523Y-96995904D01*
X115871523Y-96757809D01*
X115823904Y-96662571D01*
X115776285Y-96614952D01*
X115681047Y-96567333D01*
X115490571Y-96567333D01*
X115395333Y-96614952D01*
X115347714Y-96662571D01*
X115300095Y-96757809D01*
%TO.C,Y1*%
X122205809Y-96750190D02*
X122205809Y-97226380D01*
X121872476Y-96226380D02*
X122205809Y-96750190D01*
X122539142Y-96226380D01*
X123396285Y-97226380D02*
X122824857Y-97226380D01*
X123110571Y-97226380D02*
X123110571Y-96226380D01*
X123015333Y-96369238D01*
X122920095Y-96464476D01*
X122824857Y-96512095D01*
X123736100Y-95515180D02*
X123736100Y-95753276D01*
X123498004Y-95658038D02*
X123736100Y-95753276D01*
X123974195Y-95658038D01*
X123593242Y-95943752D02*
X123736100Y-95753276D01*
X123878957Y-95943752D01*
X123736100Y-95515180D02*
X123736100Y-95753276D01*
X123498004Y-95658038D02*
X123736100Y-95753276D01*
X123974195Y-95658038D01*
X123593242Y-95943752D02*
X123736100Y-95753276D01*
X123878957Y-95943752D01*
%TO.C,D1*%
X158773904Y-91384380D02*
X158773904Y-90384380D01*
X159012000Y-90384380D01*
X159154857Y-90432000D01*
X159250095Y-90527238D01*
X159297714Y-90622476D01*
X159345333Y-90812952D01*
X159345333Y-90955809D01*
X159297714Y-91146285D01*
X159250095Y-91241523D01*
X159154857Y-91336761D01*
X159012000Y-91384380D01*
X158773904Y-91384380D01*
X160297714Y-91384380D02*
X159726285Y-91384380D01*
X160012000Y-91384380D02*
X160012000Y-90384380D01*
X159916761Y-90527238D01*
X159821523Y-90622476D01*
X159726285Y-90670095D01*
%TO.C,D7*%
X119657904Y-65476380D02*
X119657904Y-64476380D01*
X119896000Y-64476380D01*
X120038857Y-64524000D01*
X120134095Y-64619238D01*
X120181714Y-64714476D01*
X120229333Y-64904952D01*
X120229333Y-65047809D01*
X120181714Y-65238285D01*
X120134095Y-65333523D01*
X120038857Y-65428761D01*
X119896000Y-65476380D01*
X119657904Y-65476380D01*
X120562666Y-64476380D02*
X121229333Y-64476380D01*
X120800761Y-65476380D01*
%TO.C,D8*%
X164615904Y-95956380D02*
X164615904Y-94956380D01*
X164854000Y-94956380D01*
X164996857Y-95004000D01*
X165092095Y-95099238D01*
X165139714Y-95194476D01*
X165187333Y-95384952D01*
X165187333Y-95527809D01*
X165139714Y-95718285D01*
X165092095Y-95813523D01*
X164996857Y-95908761D01*
X164854000Y-95956380D01*
X164615904Y-95956380D01*
X165758761Y-95384952D02*
X165663523Y-95337333D01*
X165615904Y-95289714D01*
X165568285Y-95194476D01*
X165568285Y-95146857D01*
X165615904Y-95051619D01*
X165663523Y-95004000D01*
X165758761Y-94956380D01*
X165949238Y-94956380D01*
X166044476Y-95004000D01*
X166092095Y-95051619D01*
X166139714Y-95146857D01*
X166139714Y-95194476D01*
X166092095Y-95289714D01*
X166044476Y-95337333D01*
X165949238Y-95384952D01*
X165758761Y-95384952D01*
X165663523Y-95432571D01*
X165615904Y-95480190D01*
X165568285Y-95575428D01*
X165568285Y-95765904D01*
X165615904Y-95861142D01*
X165663523Y-95908761D01*
X165758761Y-95956380D01*
X165949238Y-95956380D01*
X166044476Y-95908761D01*
X166092095Y-95861142D01*
X166139714Y-95765904D01*
X166139714Y-95575428D01*
X166092095Y-95480190D01*
X166044476Y-95432571D01*
X165949238Y-95384952D01*
%TO.C,J1*%
X176704666Y-67016380D02*
X176704666Y-67730666D01*
X176657047Y-67873523D01*
X176561809Y-67968761D01*
X176418952Y-68016380D01*
X176323714Y-68016380D01*
X177704666Y-68016380D02*
X177133238Y-68016380D01*
X177418952Y-68016380D02*
X177418952Y-67016380D01*
X177323714Y-67159238D01*
X177228476Y-67254476D01*
X177133238Y-67302095D01*
%TO.C,U7*%
X128778095Y-89114380D02*
X128778095Y-89923904D01*
X128825714Y-90019142D01*
X128873333Y-90066761D01*
X128968571Y-90114380D01*
X129159047Y-90114380D01*
X129254285Y-90066761D01*
X129301904Y-90019142D01*
X129349523Y-89923904D01*
X129349523Y-89114380D01*
X129730476Y-89114380D02*
X130397142Y-89114380D01*
X129968571Y-90114380D01*
%TO.C,U8*%
X115824095Y-105568380D02*
X115824095Y-106377904D01*
X115871714Y-106473142D01*
X115919333Y-106520761D01*
X116014571Y-106568380D01*
X116205047Y-106568380D01*
X116300285Y-106520761D01*
X116347904Y-106473142D01*
X116395523Y-106377904D01*
X116395523Y-105568380D01*
X117014571Y-105996952D02*
X116919333Y-105949333D01*
X116871714Y-105901714D01*
X116824095Y-105806476D01*
X116824095Y-105758857D01*
X116871714Y-105663619D01*
X116919333Y-105616000D01*
X117014571Y-105568380D01*
X117205047Y-105568380D01*
X117300285Y-105616000D01*
X117347904Y-105663619D01*
X117395523Y-105758857D01*
X117395523Y-105806476D01*
X117347904Y-105901714D01*
X117300285Y-105949333D01*
X117205047Y-105996952D01*
X117014571Y-105996952D01*
X116919333Y-106044571D01*
X116871714Y-106092190D01*
X116824095Y-106187428D01*
X116824095Y-106377904D01*
X116871714Y-106473142D01*
X116919333Y-106520761D01*
X117014571Y-106568380D01*
X117205047Y-106568380D01*
X117300285Y-106520761D01*
X117347904Y-106473142D01*
X117395523Y-106377904D01*
X117395523Y-106187428D01*
X117347904Y-106092190D01*
X117300285Y-106044571D01*
X117205047Y-105996952D01*
%TO.C,F1*%
X170608666Y-102544571D02*
X170275333Y-102544571D01*
X170275333Y-103068380D02*
X170275333Y-102068380D01*
X170751523Y-102068380D01*
X171656285Y-103068380D02*
X171084857Y-103068380D01*
X171370571Y-103068380D02*
X171370571Y-102068380D01*
X171275333Y-102211238D01*
X171180095Y-102306476D01*
X171084857Y-102354095D01*
%TO.C,F2*%
X159940666Y-89336571D02*
X159607333Y-89336571D01*
X159607333Y-89860380D02*
X159607333Y-88860380D01*
X160083523Y-88860380D01*
X160416857Y-88955619D02*
X160464476Y-88908000D01*
X160559714Y-88860380D01*
X160797809Y-88860380D01*
X160893047Y-88908000D01*
X160940666Y-88955619D01*
X160988285Y-89050857D01*
X160988285Y-89146095D01*
X160940666Y-89288952D01*
X160369238Y-89860380D01*
X160988285Y-89860380D01*
%TD*%
M02*
